<svg id="icons" enable-background="new 0 0 64 64" height="512" viewBox="0 0 64 64" width="512" xmlns="http://www.w3.org/2000/svg"><path d="m44 5h-24c-2.76 0-5 2.24-5 5v1 44.002 2c0 3.3 2.7 6 6 6h11 11c3.3 0 6-2.7 6-6v-2-44.002-1c0-2.76-2.24-5-5-5z" fill="#545c66"/><path d="m44 .998h-24c-2.76 0-5 2.24-5 5v1 44 2c0 3.3 2.7 6 6 6h11 11c3.3 0 6-2.7 6-6v-2-44-1c0-2.76-2.24-5-5-5z" fill="#656d78"/><path d="m15 6.998h34v44h-34z" fill="#e6e9ed"/><path d="m32 52.998c1.1 0 2 .9 2 2 0 1.11-.9 2-2 2s-2-.89-2-2c0-1.1.9-2 2-2z" fill="#aab2bd"/><path d="m32 12.916c-2.76 0-5 2.23-5 5 0 2.76 2.24 4.99 5 4.99s5-2.23 5-4.99c0-2.77-2.24-5-5-5z" fill="#ed5565"/><path d="m32 15.916c1.1 0 2 .89 2 2 0 1.101-.9 1.99-2 1.99s-2-.89-2-1.99c0-1.11.9-2 2-2z" fill="#da4453"/><path d="m41 40.906c.83 0 1.5.68 1.5 1.5 0 .83-.67 1.5-1.5 1.5h-6c-.83 0-1.5-.67-1.5-1.5 0-.82.67-1.5 1.5-1.5z" fill="#656d78"/><path d="m29 40.906c.83 0 1.5.68 1.5 1.5 0 .83-.67 1.5-1.5 1.5h-6c-.83 0-1.5-.67-1.5-1.5 0-.82.67-1.5 1.5-1.5z" fill="#656d78"/><path d="m43 60h-22c-3.859 0-7-3.141-7-7 0-.553.447-1 1-1s1 .447 1 1c0 2.757 2.243 5 5 5h22c2.757 0 5-2.243 5-5 0-.553.447-1 1-1s1 .447 1 1c0 3.859-3.141 7-7 7z"/><path d="m29.03 5c-.553 0-1.005-.447-1.005-1s.442-1 .994-1h.011c.552 0 1 .447 1 1s-.448 1-1 1z"/><path d="m35 5h-3c-.553 0-1-.447-1-1s.447-1 1-1h3c.553 0 1 .447 1 1s-.447 1-1 1z"/><path d="m49 7.002c-.553 0-1-.447-1-1 0-2.206-1.794-4-4-4-.553 0-1-.447-1-1s.447-1 1-1c3.309 0 6 2.691 6 6 0 .553-.447 1-1 1z"/><path d="m15 7c-.553 0-1-.447-1-1 0-3.309 2.691-6 6-6 .553 0 1 .447 1 1s-.447 1-1 1c-2.206 0-4 1.794-4 4 0 .553-.447 1-1 1z"/><path d="m44 2h-24c-.553 0-1-.447-1-1s.447-1 1-1h24c.553 0 1 .447 1 1s-.447 1-1 1z"/><path d="m49 8.002h-34c-.553 0-1-.447-1-1s.447-1 1-1h34c.553 0 1 .447 1 1s-.447 1-1 1z"/><path d="m43 64h-22c-3.859 0-7-3.141-7-7v-51c0-.553.447-1 1-1s1 .447 1 1v51c0 2.757 2.243 5 5 5h22c2.757 0 5-2.243 5-5v-50.998c0-.553.447-1 1-1s1 .447 1 1v50.998c0 3.859-3.141 7-7 7z"/><path d="m49 52h-34c-.553 0-1-.447-1-1s.447-1 1-1h34c.553 0 1 .447 1 1s-.447 1-1 1z"/><path d="m32 58c-1.654 0-3-1.346-3-3s1.346-3 3-3 3 1.346 3 3-1.346 3-3 3zm0-4c-.552 0-1 .448-1 1s.448 1 1 1 1-.448 1-1-.448-1-1-1z"/><path d="m32 23.999c-3.309 0-6-2.691-6-5.999 0-3.309 2.691-6 6-6s6 2.691 6 6c0 3.308-2.691 5.999-6 5.999zm0-9.999c-2.206 0-4 1.794-4 4 0 2.205 1.794 3.999 4 3.999s4-1.794 4-3.999c0-2.206-1.794-4-4-4z"/><path d="m32 20.999c-1.654 0-3-1.346-3-2.999 0-1.654 1.346-3 3-3s3 1.346 3 3c0 1.653-1.346 2.999-3 2.999zm0-3.999c-.552 0-1 .448-1 1 0 .551.448.999 1 .999s1-.448 1-.999c0-.552-.448-1-1-1z"/><path d="m43.002 30.999h-22.004c-.553 0-1-.447-1-1s.447-1 1-1h22.004c.553 0 1 .447 1 1s-.447 1-1 1z"/><path d="m43.002 27.999h-22.004c-.553 0-1-.447-1-1s.447-1 1-1h22.004c.553 0 1 .447 1 1s-.447 1-1 1z"/><path d="m43.002 33.999h-22.004c-.553 0-1-.447-1-1s.447-1 1-1h22.004c.553 0 1 .447 1 1s-.447 1-1 1z"/><path d="m38 36.999h-12c-.553 0-1-.447-1-1s.447-1 1-1h12c.553 0 1 .447 1 1s-.447 1-1 1z"/><path d="m29.002 44.999h-6.003c-.553 0-1-.447-1-1s.447-1 1-1h6.003c.553 0 1 .447 1 1s-.447 1-1 1z"/><path d="m29.002 41.999h-6.003c-.553 0-1-.447-1-1s.447-1 1-1h6.003c.553 0 1 .447 1 1s-.447 1-1 1z"/><path d="m22.999 44.999c-1.379 0-2.5-1.121-2.5-2.5s1.121-2.5 2.5-2.5c.553 0 1 .447 1 1s-.447 1-1 1c-.275 0-.5.225-.5.5s.225.5.5.5c.553 0 1 .447 1 1s-.447 1-1 1z"/><path d="m29.002 44.999c-.553 0-1-.447-1-1s.447-1 1-1c.275 0 .5-.225.5-.5s-.225-.5-.5-.5c-.553 0-1-.447-1-1s.447-1 1-1c1.379 0 2.5 1.121 2.5 2.5s-1.121 2.5-2.5 2.5z"/><path d="m41.001 44.999h-6.003c-.553 0-1-.447-1-1s.447-1 1-1h6.003c.553 0 1 .447 1 1s-.447 1-1 1z"/><path d="m41.001 41.999h-6.003c-.553 0-1-.447-1-1s.447-1 1-1h6.003c.553 0 1 .447 1 1s-.447 1-1 1z"/><path d="m34.998 44.999c-1.379 0-2.5-1.121-2.5-2.5s1.121-2.5 2.5-2.5c.553 0 1 .447 1 1s-.447 1-1 1c-.275 0-.5.225-.5.5s.225.5.5.5c.553 0 1 .447 1 1s-.447 1-1 1z"/><path d="m41.001 44.999c-.553 0-1-.447-1-1s.447-1 1-1c.275 0 .5-.225.5-.5s-.225-.5-.5-.5c-.553 0-1-.447-1-1s.447-1 1-1c1.379 0 2.5 1.121 2.5 2.5s-1.121 2.5-2.5 2.5z"/></svg>