<svg height="512" viewBox="0 0 64 64" width="512" xmlns="http://www.w3.org/2000/svg"><g id="File-Document-Management-Gear-Envelope"><path d="m47 6v45a2.006 2.006 0 0 1 -2 2h-36a2.032 2.032 0 0 1 -.55-.08 2.085 2.085 0 0 1 -.92-.56 2.339 2.339 0 0 1 -.29-.41 2.028 2.028 0 0 1 -.24-.95v-45l3.86 6.94a4.033 4.033 0 0 0 3.49 2.06h25.3a3.988 3.988 0 0 0 3.49-2.06z" fill="#a97c50"/><path d="m31 48v4l-3.32.47c-.05.18-.1.36-.15.53h-18.53a2.032 2.032 0 0 1 -.55-.08c-.05-.15-.09-.3-.13-.45l-.79-.11a2.339 2.339 0 0 1 -.29-.41 2.028 2.028 0 0 1 -.24-.95v-3.28l1.32-.19a9.492 9.492 0 0 1 .68-1.85 8.141 8.141 0 0 1 .41-.77l-.41-.55-1.61-2.14 2.83-2.83 2.69 2.02a9.8 9.8 0 0 1 2.62-1.09l.47-3.32h4l.47 3.32a9.8 9.8 0 0 1 2.62 1.09l2.69-2.02 2.83 2.83-2.02 2.69a9.8 9.8 0 0 1 1.09 2.62z" fill="#8b5e3c"/><path d="m24.64 53a.405.405 0 0 1 -.05.09l2.02 2.69-2.83 2.83-2.69-2.02a9.8 9.8 0 0 1 -2.62 1.09l-.47 3.32h-4l-.47-3.32a9.8 9.8 0 0 1 -2.62-1.09l-2.69 2.02-2.83-2.83 2.02-2.69a9.253 9.253 0 0 1 -.51-.99 9.011 9.011 0 0 1 -.58-1.63l-3.32-.47v-4l3.32-.47a9.492 9.492 0 0 1 .68-1.85 8.141 8.141 0 0 1 .41-.77l-.41-.55-1.61-2.14 2.83-2.83 2.69 2.02a9.8 9.8 0 0 1 2.62-1.09l.47-3.32h4l.47 3.32a9.8 9.8 0 0 1 2.62 1.09l2.69-2.02 2.83 2.83-2.02 2.69a9.8 9.8 0 0 1 1.09 2.62l3.32.47v4l-3.32.47a9.427 9.427 0 0 1 -1.04 2.53z" fill="#ff9811"/><path d="m47 6v5.6l-1.86 3.34a3.988 3.988 0 0 1 -3.49 2.06h-25.3a3.988 3.988 0 0 1 -3.49-2.06l-.17-.31a3.911 3.911 0 0 0 1.66.37h25.3a3.988 3.988 0 0 0 3.49-2.06z" fill="#8b5e3c"/><path d="m47 5v1l-3.86 6.94a3.988 3.988 0 0 1 -3.49 2.06h-25.3a3.988 3.988 0 0 1 -3.49-2.06l-3.86-6.94v-1a2.006 2.006 0 0 1 2-2h36a2.006 2.006 0 0 1 2 2z" fill="#a1754d"/><circle cx="27" cy="9" fill="#8b5e3c" r="2"/><circle cx="27" cy="21" fill="#8b5e3c" r="2"/><path d="m61 27h-6a2.006 2.006 0 0 1 -2-2v-6z" fill="#bcbec0"/><path d="m61 27v28a2.006 2.006 0 0 1 -2 2h-24a2.006 2.006 0 0 1 -2-2v-34a2.006 2.006 0 0 1 2-2h18v6a2.006 2.006 0 0 0 2 2z" fill="#e6e7e8"/><circle cx="16" cy="48" fill="#ffd422" r="5"/><path d="m61 35v20a2.006 2.006 0 0 1 -2 2h-20z" fill="#d8d7da"/><path d="m28 52h2v2h-2z"/><path d="m28 18.184v-2.184h11.646a5 5 0 0 0 4.371-2.572l1.983-3.569v6.141h2v-11a3 3 0 0 0 -3-3h-36a3 3 0 0 0 -3 3v30h2v-25.142l1.983 3.57a5 5 0 0 0 4.371 2.572h11.646v2.184a3 3 0 1 0 2 0zm-13.646-4.184a3 3 0 0 1 -2.623-1.543l-3.731-6.716v-.741a1 1 0 0 1 1-1h36a1 1 0 0 1 1 1v.741l-3.731 6.716a3 3 0 0 1 -2.623 1.543h-11.646v-2.184a3 3 0 1 0 -2 0v2.184zm11.646-5a1 1 0 1 1 1 1 1 1 0 0 1 -1-1zm1 13a1 1 0 1 1 1-1 1 1 0 0 1 -1 1z"/><path d="m42 24h4v2h-4z"/><path d="m38 24h2v2h-2z"/><path d="m61.707 26.293-8-8a1 1 0 0 0 -.707-.293h-18a3 3 0 0 0 -3 3v34a3 3 0 0 0 3 3h24a3 3 0 0 0 3-3v-28a1 1 0 0 0 -.293-.707zm-7.707-4.879 4.586 4.586h-3.586a1 1 0 0 1 -1-1zm5 34.586h-24a1 1 0 0 1 -1-1v-34a1 1 0 0 1 1-1h17v5a3 3 0 0 0 3 3h5v27a1 1 0 0 1 -1 1z"/><path d="m38 28h8v2h-8z"/><path d="m46 34v6h-2v-4h-2v4h-2v2h14v-2h-2v-8h-2v8h-2v-6z"/><path d="m38 46h2v2h-2z"/><path d="m42 46h14v2h-14z"/><path d="m38 50h18v2h-18z"/><path d="m29.142 45.01-2.682-.383a10.86 10.86 0 0 0 -.679-1.639l1.625-2.166a1 1 0 0 0 -.093-1.307l-2.828-2.828a1 1 0 0 0 -1.306-.093l-2.167 1.624a10.9 10.9 0 0 0 -1.639-.678l-.383-2.682a1 1 0 0 0 -.99-.858h-4a1 1 0 0 0 -.99.858l-.383 2.682a10.855 10.855 0 0 0 -1.639.678l-2.167-1.624a1 1 0 0 0 -1.306.093l-2.828 2.828a1 1 0 0 0 -.093 1.307l1.625 2.166a10.86 10.86 0 0 0 -.679 1.639l-2.682.383a1 1 0 0 0 -.858.99v4a1 1 0 0 0 .858.99l2.682.383a10.86 10.86 0 0 0 .679 1.639l-1.625 2.166a1 1 0 0 0 .093 1.307l2.828 2.828a1 1 0 0 0 1.306.093l2.167-1.624a10.855 10.855 0 0 0 1.639.678l.383 2.682a1 1 0 0 0 .99.858h4a1 1 0 0 0 .99-.858l.383-2.682a10.9 10.9 0 0 0 1.639-.678l2.167 1.624a1 1 0 0 0 1.306-.093l2.828-2.828a1 1 0 0 0 .093-1.307l-1.625-2.166a10.86 10.86 0 0 0 .679-1.639l2.682-.383a1 1 0 0 0 .858-.99v-4a1 1 0 0 0 -.858-.99zm-1.142 4.123-2.463.352a1 1 0 0 0 -.827.742 8.923 8.923 0 0 1 -.977 2.357 1 1 0 0 0 .061 1.111l1.492 1.99-1.6 1.6-1.991-1.492a1 1 0 0 0 -1.11-.06 8.859 8.859 0 0 1 -2.356.975 1 1 0 0 0 -.744.828l-.352 2.464h-2.266l-.351-2.463a1 1 0 0 0 -.744-.828 8.859 8.859 0 0 1 -2.356-.975 1 1 0 0 0 -1.11.06l-1.991 1.492-1.6-1.6 1.491-1.986a1 1 0 0 0 .061-1.111 8.923 8.923 0 0 1 -.977-2.357 1 1 0 0 0 -.827-.742l-2.463-.357v-2.266l2.463-.352a1 1 0 0 0 .827-.742 8.923 8.923 0 0 1 .977-2.357 1 1 0 0 0 -.061-1.111l-1.492-1.99 1.6-1.6 1.991 1.492a1 1 0 0 0 1.11.06 8.859 8.859 0 0 1 2.356-.975 1 1 0 0 0 .744-.828l.352-2.464h2.266l.351 2.463a1 1 0 0 0 .744.828 8.859 8.859 0 0 1 2.356.975 1 1 0 0 0 1.11-.06l1.991-1.492 1.6 1.6-1.492 1.99a1 1 0 0 0 -.061 1.111 8.923 8.923 0 0 1 .977 2.357 1 1 0 0 0 .827.742l2.464.353z"/><path d="m16 42a6 6 0 1 0 6 6 6.006 6.006 0 0 0 -6-6zm0 10a4 4 0 1 1 4-4 4 4 0 0 1 -4 4z"/><path d="m15 38h2v2h-2z"/><path d="m8.636 40.636h2v2h-2z" transform="matrix(.707 -.707 .707 .707 -26.615 19.002)"/><path d="m6 47h2v2h-2z"/><path d="m8.636 53.364h2v2h-2z" transform="matrix(.707 -.707 .707 .707 -35.619 22.736)"/><path d="m15 56h2v2h-2z"/><path d="m21.364 53.364h2v2h-2z" transform="matrix(.707 -.707 .707 .707 -31.887 31.727)"/><path d="m24 47h2v2h-2z"/><path d="m21.364 40.636h2v2h-2z" transform="matrix(.707 -.707 .707 .707 -22.893 28.017)"/></g></svg>