<svg enable-background="new 0 0 24 24" height="512" viewBox="0 0 24 24" width="512" xmlns="http://www.w3.org/2000/svg"><path d="m21 2.75h-14.685c.435.911.685 1.925.685 3s-.25 2.089-.685 3h14.685c.804 0 1.559-.311 2.124-.876s.876-1.32.876-2.124c0-1.654-1.346-3-3-3z" fill="#607d8b"/><circle cx="5" cy="6" fill="#00bcd4" r="5"/><path d="m3 20.75h14.685c-.435-.911-.685-1.925-.685-3s.25-2.089.685-3h-14.685c-.804 0-1.559.311-2.124.876s-.876 1.32-.876 2.124c0 1.654 1.346 3 3 3z" fill="#607d8b"/><circle cx="19" cy="18" fill="#00bcd4" r="5"/><path d="m5 11c-2.757 0-5-2.243-5-5s2.243-5 5-5 5 2.243 5 5-2.243 5-5 5zm0-8.5c-1.93 0-3.5 1.57-3.5 3.5s1.57 3.5 3.5 3.5 3.5-1.57 3.5-3.5-1.57-3.5-3.5-3.5z"/><path d="m21 8.75h-12.25c-.414 0-.75-.336-.75-.75s.336-.75.75-.75h12.25c.827 0 1.5-.673 1.5-1.5s-.673-1.5-1.5-1.5h-12.56c-.414 0-.75-.336-.75-.75s.336-.75.75-.75h12.56c1.654 0 3 1.346 3 3s-1.346 3-3 3z"/><path d="m19 23c-2.757 0-5-2.243-5-5s2.243-5 5-5 5 2.243 5 5-2.243 5-5 5zm0-8.5c-1.93 0-3.5 1.57-3.5 3.5s1.57 3.5 3.5 3.5 3.5-1.57 3.5-3.5-1.57-3.5-3.5-3.5z"/><path d="m15.25 20.75h-12.25c-1.654 0-3-1.346-3-3s1.346-3 3-3h12.56c.414 0 .75.336.75.75s-.336.75-.75.75h-12.56c-.827 0-1.5.673-1.5 1.5s.673 1.5 1.5 1.5h12.25c.414 0 .75.336.75.75s-.336.75-.75.75z"/></svg>