<?xml version="1.0" encoding="iso-8859-1"?>
<!-- Generator: Adobe Illustrator 19.0.0, SVG Export Plug-In . SVG Version: 6.00 Build 0)  -->
<svg version="1.1" id="Capa_1" xmlns="http://www.w3.org/2000/svg" xmlns:xlink="http://www.w3.org/1999/xlink" x="0px" y="0px"
	 viewBox="0 0 480.017 480.017" style="enable-background:new 0 0 480.017 480.017;" xml:space="preserve">
<ellipse style="fill:#C9EBF4;" cx="240.009" cy="415.257" rx="224" ry="56"/>
<path style="fill:#9C1C1F;" d="M332.433,45.241c-24.163-24.537-57.311-38.122-91.744-37.6h-0.512
	c-47.252,0.094-90.791,25.625-113.944,66.816c-23.972,42.467-25.388,94.041-3.784,137.76c27.407,55.789,60.732,108.47,99.4,157.136
	l18.328,23.088l17.856-22.632c38.609-48.969,72.079-101.781,99.88-157.6C385.327,156.725,375.148,90.023,332.433,45.241
	L332.433,45.241z"/>
<circle style="fill:#B5DEF3;" cx="240.009" cy="143.257" r="56"/>
<g>
	<path style="fill:#366130;" d="M286.489,112.017l-14.48,7.24l-16-8l-16,16l16,24v16l24,8l12.408-12.416
		c6.382-16.903,4.173-35.851-5.928-50.832L286.489,112.017z"/>
	<path style="fill:#366130;" d="M224.009,191.257l-16-24v-40l-19.296-6.4c-12.371,28.346,0.579,61.354,28.925,73.725
		c7.056,3.08,14.672,4.671,22.371,4.675c1.32,0,2.608-0.104,3.904-0.192l-3.904-7.808H224.009z"/>
</g>
<path d="M472.009,415.425c0-43.104-116.992-57.52-152.848-60.912c-4.41-0.267-8.202,3.092-8.469,7.502
	c-0.254,4.201,2.79,7.881,6.965,8.418c100.792,9.544,138.352,32.656,138.352,44.992c0,20.296-82.168,48.592-216,48.592
	s-216-28.296-216-48.592c0-12.336,37.6-35.448,138.352-44.992c4.382-0.564,7.478-4.573,6.914-8.955
	c-0.537-4.175-4.217-7.219-8.418-6.965c-35.856,3.392-152.848,17.808-152.848,60.912c0,42.4,116.712,64.592,232,64.592
	S472.009,457.825,472.009,415.425z"/>
<path d="M290.145,113.753c-4.105,1.633-6.109,6.286-4.476,10.391c0.001,0.003,0.002,0.006,0.004,0.009
	c3.791,9.544,4.627,20.007,2.4,30.032c-4.147,18.268-18.309,32.594-36.528,36.952c-16.478,3.943-33.82-0.98-45.768-12.992
	c-12.241-12.307-17.31-30.035-13.424-46.952c5.831-26.313,31.889-42.918,58.202-37.087c2.996,0.664,5.923,1.609,8.742,2.823
	c4.065,1.734,8.766-0.155,10.5-4.22s-0.155-8.766-4.22-10.5c-12.682-5.404-26.749-6.653-40.184-3.568
	c-24.359,5.583-43.312,24.717-48.664,49.128c-5.082,22.256,1.625,45.562,17.76,61.712c12.177,12.137,28.679,18.938,45.872,18.904
	c4.937,0.008,9.86-0.528,14.68-1.6c24.36-5.59,43.309-24.73,48.656-49.144c2.935-13.142,1.842-26.864-3.136-39.376
	c-1.611-4.114-6.253-6.143-10.367-4.532C290.178,113.74,290.161,113.747,290.145,113.753L290.145,113.753z"/>
<path d="M240.177,0.017C190.06,0.171,143.89,27.236,119.273,70.889c-25.334,44.752-26.833,99.153-4,145.232
	c27.665,56.302,61.295,109.471,100.312,158.592l18.328,23.056c1.518,1.91,3.824,3.024,6.264,3.024
	c2.445-0.001,4.756-1.121,6.272-3.04l17.848-22.648c38.96-49.394,72.738-102.664,100.8-158.968
	c28.731-58.535,18.012-128.765-26.872-176.064C312.378,13.901,276.956-0.57,240.177,0.017L240.177,0.017z M350.745,209.025
	c-27.564,55.323-60.735,107.669-98.992,156.216l-11.592,14.704l-12-15.152c-38.331-48.237-71.371-100.451-98.552-155.744
	c-20.489-41.334-19.153-90.137,3.568-130.288c21.91-38.763,62.986-62.735,107.512-62.744c32.229-0.493,63.265,12.176,85.944,35.08
	C366.891,93.525,376.509,156.518,350.745,209.025L350.745,209.025z"/>
<g>
</g>
<g>
</g>
<g>
</g>
<g>
</g>
<g>
</g>
<g>
</g>
<g>
</g>
<g>
</g>
<g>
</g>
<g>
</g>
<g>
</g>
<g>
</g>
<g>
</g>
<g>
</g>
<g>
</g>
</svg>
