<svg height="464pt" fill="#3676a9" viewBox="-31 0 463 464" width="464pt" xmlns="http://www.w3.org/2000/svg"><path d="m192.5 245.175781v8.136719c4.070312 4.976562 17.328125 18.6875 40 18.6875 22.625 0 35.953125-13.769531 40-18.6875v-8.136719c-11.785156 6.839844-25.425781 10.824219-40 10.824219s-28.214844-3.984375-40-10.824219zm0 0"/><path d="m152.5 174.527344v-45.046875c-9.289062 3.3125-16 12.113281-16 22.527343 0 10.417969 6.710938 19.207032 16 22.519532zm0 0"/><path d="m168.101562 322.910156-135.601562-135.597656v28.6875c0 3.832031-.710938 7.457031-1.71875 10.96875l114.671875 114.671875c6.75-7.128906 14.34375-13.417969 22.648437-18.730469zm0 0"/><path d="m232.5 336c45.824219 0 83.535156 35.214844 87.59375 80h16c-4.113281-53.609375-48.953125-96-103.59375-96s-99.480469 42.390625-103.59375 96h16c4.058594-44.785156 41.769531-80 87.59375-80zm0 0"/><path d="m.5 137.472656v101.046875c9.289062-3.304687 16-12.105469 16-22.519531v-56c0-10.414062-6.710938-19.214844-16-22.527344zm0 0"/><path d="m152.5 96h16v8h43.160156c17.289063 0 34.023438-5.0625 48.40625-14.65625l5.464844-3.640625 4.632812 4.640625c7.222657 7.222656 16.40625 11.726562 26.34375 13.136719v-7.480469h16v16.808594c5.945313 1.214844 11.328126 3.855468 16 7.390625v-36.421875c0-19.015625-10.566406-36.121094-27.574218-44.625l-1.160156-.585938-12.761719-12.75c-16.65625-16.648437-38.792969-25.816406-62.34375-25.816406-48.625 0-88.167969 39.550781-88.167969 88.167969v32.039062c4.671875-3.535156 10.054688-6.183593 16-7.390625zm0 0"/><path d="m296.5 176v-56.382812c-12.105469-1.265626-23.457031-5.945313-32.878906-13.640626-15.769532 9.191407-33.609375 14.023438-51.960938 14.023438h-43.160156v56c0 35.289062 28.710938 64 64 64s64-28.710938 64-64zm-104-24c-4.414062 0-8-3.585938-8-8s3.585938-8 8-8 8 3.585938 8 8-3.585938 8-8 8zm40 64c-17.648438 0-32-14.351562-32-32h16c0 8.824219 7.175781 16 16 16s16-7.175781 16-16h16c0 17.648438-14.351562 32-32 32zm32-72c0-4.414062 3.585938-8 8-8s8 3.585938 8 8-3.585938 8-8 8-8-3.585938-8-8zm0 0"/><path d="m312.5 174.527344c9.289062-3.3125 16-12.113282 16-22.527344s-6.710938-19.214844-16-22.527344zm0 0"/><path d="m203.386719 358.199219c-9.183594 4.082031-17.320313 10.039062-24.007813 17.367187l88.433594 88.433594h9.136719c-2.753907-4.726562-4.449219-10.144531-4.449219-16 0-5.921875 1.71875-11.390625 4.535156-16.152344zm0 0"/><path d="m352.5 416h16v16h-64c-8.824219 0-16 7.175781-16 16s7.175781 16 16 16h80v-80h-32zm0 0"/><path d="m128.5 364.390625c2.0625-3.574219 4.304688-7.023437 6.710938-10.359375l-6.710938-6.71875zm0 0"/><path d="m232.5 352c-3.976562 0-7.855469.40625-11.65625 1.03125l67.503906 67.503906c4.632813-2.734375 9.953125-4.398437 15.6875-4.488281-3.976562-35.96875-34.519531-64.046875-71.535156-64.046875zm0 0"/><path d="m367.867188 280.519531-84.121094-15.777343c-6.789063 7.769531-23.765625 23.257812-51.246094 23.257812s-44.457031-15.488281-51.246094-23.246094l-41 7.6875 42.492188 42.496094c15.179687-6.953125 31.992187-10.9375 49.753906-10.9375 44.464844 0 83.273438 24.367188 104 60.390625v-52.390625h16v56h48v-48.167969c0-19.230469-13.726562-35.769531-32.632812-39.3125zm0 0"/><path d="m112.5 331.3125-37.9375-37.9375c-6.421875 7.265625-10.0625 16.585938-10.0625 26.457031v48.167969h48zm0 0"/><path d="m160.5 432h-64v-16h16v-32h-32v80h80c8.824219 0 16-7.175781 16-16s-7.175781-16-16-16zm0 0"/><path d="m160.964844 416.046875c17.429687.257813 31.535156 14.464844 31.535156 31.953125 0 5.855469-1.695312 11.273438-4.449219 16h57.136719l-75.34375-75.34375c-4.679688 8.265625-7.792969 17.519531-8.878906 27.390625zm0 0"/></svg>