<?xml version="1.0" encoding="utf-8"?>
<!-- Generator: Adobe Illustrator 24.3.0, SVG Export Plug-In . SVG Version: 6.00 Build 0)  -->
<svg version="1.1" id="Layer_1" xmlns="http://www.w3.org/2000/svg" xmlns:xlink="http://www.w3.org/1999/xlink" x="0px" y="0px"
	 viewBox="0 0 64 64" style="enable-background:new 0 0 64 64;" xml:space="preserve">
<style type="text/css">
	.st0{fill:#3676AB;}
</style>
<path class="st0" d="M50.3,8.9l-4-7.8c-0.3-0.5-0.8-0.9-1.4-0.9H19.2c-0.6,0-1.2,0.3-1.4,0.9l-4,7.8c-2.8,0.5-4.8,3-4.8,5.8v34.5
	c0,2.9,2,5.3,4.8,5.8l4,7.8c0.3,0.5,0.8,0.9,1.4,0.9h25.7c0.6,0,1.2-0.3,1.4-0.9l4-7.8c2.8-0.5,4.8-3,4.8-5.8V14.8
	C55.2,11.9,53.1,9.5,50.3,8.9z M20.2,3.5h23.7l2.7,5.4H17.4L20.2,3.5z M43.8,60.5H20.2l-2.7-5.4h29.2L43.8,60.5z"/>
</svg>
