<?xml version="1.0" encoding="utf-8"?>
<!-- Generator: Adobe Illustrator 24.3.0, SVG Export Plug-In . SVG Version: 6.00 Build 0)  -->
<svg version="1.1" id="Layer_1" xmlns="http://www.w3.org/2000/svg" xmlns:xlink="http://www.w3.org/1999/xlink" x="0px" y="0px"
	 viewBox="0 0 132 125" style="enable-background:new 0 0 132 125;" xml:space="preserve">
<style type="text/css">
	.st0{fill:#F19E00;}
</style>
<g>
	<path class="st0" d="M2.3,108.4c4-1.4,8-2.8,12.1-4.2c3.1-1.1,4.3-2.7,2-5.8C7,85.6,3.5,71,5.4,55.6C8.4,31.7,21,14.2,43.6,5.1
		c7.3-2.9,15.5-4.9,23.2-4.9c15,0,28.9,4.4,40.6,14.4c11.1,9.4,18.3,21.1,21.2,35.3c3.8,18.1,0,34.8-10.8,49.7
		C103.9,119,84,125.7,61,124.7c-5.9-0.3-12.3-1.6-17.4-4.4c-7.7-4.3-15.7-4.7-23.9-6c-6-0.9-11.9-3.1-17.9-4.7
		C2,109.3,2.1,108.9,2.3,108.4z M26.2,26.5c11.4-12.2,26-17.2,42.1-17.8c16.5-0.6,30,7,41.9,17.8C83.2-4.9,41.6,2.6,26.2,26.5z
		 M118.9,83.6c-4,4.9-8.9,12.5-15.2,18.6c-8.5,8.2-19.6,11.3-31.3,12.6c-1.5,0.2-2.9,1.1-4.3,1.6C86.7,117.9,112.4,106.3,118.9,83.6
		z"/>
</g>
</svg>
