<svg height="512" viewBox="0 0 512 512" width="512" xmlns="http://www.w3.org/2000/svg"><g id="Filled_outline" data-name="Filled outline"><rect fill="#348ed8" height="416" rx="32" width="224" x="144" y="72"/><path d="m176 168h160v184h-160z" fill="#9bd5dd"/><path d="m176 168v80a16 16 0 0 0 32 0 16 16 0 0 0 32 0 16 16 0 0 0 32 0 16 16 0 0 0 32 0 16 16 0 0 0 32 0v-80z" fill="#91cad1"/><path d="m208 216h32a0 0 0 0 1 0 0v16a16 16 0 0 1 -16 16 16 16 0 0 1 -16-16v-16a0 0 0 0 1 0 0z" fill="#f9a40f"/><path d="m272 216h32a0 0 0 0 1 0 0v16a16 16 0 0 1 -16 16 16 16 0 0 1 -16-16v-16a0 0 0 0 1 0 0z" fill="#f9a40f"/><path d="m176 216h32a0 0 0 0 1 0 0v16a16 16 0 0 1 -16 16 16 16 0 0 1 -16-16v-16a0 0 0 0 1 0 0z" fill="#c7483c"/><path d="m240 216h32a0 0 0 0 1 0 0v16a16 16 0 0 1 -16 16 16 16 0 0 1 -16-16v-16a0 0 0 0 1 0 0z" fill="#c7483c"/><path d="m304 216h32a0 0 0 0 1 0 0v16a16 16 0 0 1 -16 16 16 16 0 0 1 -16-16v-16a0 0 0 0 1 0 0z" fill="#c7483c"/><path d="m208 168h32v48h-32z" fill="#ffb431"/><path d="m272 168h32v48h-32z" fill="#ffb431"/><path d="m176 168h32v48h-32z" fill="#d65246"/><path d="m240 168h32v48h-32z" fill="#d65246"/><path d="m304 168h32v48h-32z" fill="#d65246"/><path d="m208 280h96v72h-96z" fill="#4db6e4"/><path d="m248 280h16v72h-16z" fill="#3ba5d3"/><path d="m216 248h-40v40l-48-40h-72a32 32 0 0 1 -32-32v-160a32 32 0 0 1 32-32h160a32 32 0 0 1 32 32v160a32 32 0 0 1 -32 32z" fill="#ffb431"/><path d="m336 496-3.139-6.277a84.977 84.977 0 0 1 3.139-81.723l-41.029-48a22.627 22.627 0 0 1 -5.6-14.9v-.871a22.626 22.626 0 0 1 22.629-22.629 22.628 22.628 0 0 1 16 6.627l40 39.773v-88l49.976 62.47a64 64 0 0 1 14.024 39.98v113.55" fill="#fdc8a2"/><rect fill="#fdb683" height="33.941" rx="8" transform="matrix(.707 -.707 .707 .707 -157.401 380)" width="16" x="372" y="363.029"/><path d="m56 176h160a0 0 0 0 1 0 0v24a16 16 0 0 1 -16 16h-128a16 16 0 0 1 -16-16v-24a0 0 0 0 1 0 0z" fill="#f88400"/><path d="m216 156a20.007 20.007 0 0 1 -20 20h-120a20 20 0 0 1 -3.59-39.67 19.254 19.254 0 0 1 3.59-.33h120a19.994 19.994 0 0 1 20 20z" fill="#91563a"/><path d="m216 136h-160v-16a64 64 0 0 1 64-64h32a64 64 0 0 1 64 64z" fill="#f88400"/><path d="m152 136-40 32-39.59-31.67a19.254 19.254 0 0 1 3.59-.33z" fill="#ffb431"/><path d="m96 88h16v16h-16z" fill="#ffb431"/><path d="m128 88h16v16h-16z" fill="#ffb431"/><path d="m160 88h16v16h-16z" fill="#ffb431"/><g fill="#2d7dbe"><path d="m248 96h56v16h-56z"/><path d="m208 448h96v16h-96z"/><path d="m248 384h16v16h-16z"/><path d="m216 384h16v16h-16z"/><path d="m280 384h16v16h-16z"/></g><path d="m376 104a40.045 40.045 0 0 0 -40-40h-64v16h64a24.027 24.027 0 0 1 24 24v244.764l-16-15.908v-164.856a8 8 0 0 0 -8-8h-64a8 8 0 0 0 -8 8v64a8.034 8.034 0 0 1 -4 6.935l8 13.852a23.883 23.883 0 0 0 4-2.913 23.944 23.944 0 0 0 32 0 23.943 23.943 0 0 0 24 4.755v63.483a30.429 30.429 0 0 0 -16-4.505v-33.607a8 8 0 0 0 -8-8h-96a8 8 0 0 0 -8 8v64h-16v-32h-16v40a8 8 0 0 0 8 8h109.241a30.209 30.209 0 0 0 3.649 5.2l37.41 43.766a92.5 92.5 0 0 0 -.594 84.336l3.139 6.278 14.31-7.156-3.138-6.277a76.617 76.617 0 0 1 2.843-74.029 8 8 0 0 0 -.779-9.314l-41.089-48.07a14.624 14.624 0 0 1 -3.619-9.632v-.871a14.627 14.627 0 0 1 24.986-10.331l63.984 63.755 11.314-11.314-21.657-21.654zm-80 214.126a30.632 30.632 0 0 0 -14.622 25.874h-17.378v-56h32zm-80-30.126h32v56h-32zm112-80h-16v-32h16zm-32-32v32h-16v-32zm-8 64a8.009 8.009 0 0 1 -8-8v-8h16v8a8.009 8.009 0 0 1 -8 8zm32 0a8.009 8.009 0 0 1 -8-8v-8h16v8a8.009 8.009 0 0 1 -8 8z"/><path d="m152 456v-168h-16v168a40.045 40.045 0 0 0 40 40h128v-16h-128a24.028 24.028 0 0 1 -24-24z"/><path d="m208 448h96v16h-96z"/><path d="m424.223 337.472-25.976-32.472-12.494 10 25.976 32.469a56.2 56.2 0 0 1 12.271 34.981v113.55h16v-113.55a72.265 72.265 0 0 0 -15.777-44.978z"/><path d="m248 384h16v16h-16z"/><path d="m216 384h16v16h-16z"/><path d="m280 384h16v16h-16z"/><path d="m176 295.932a7.99 7.99 0 0 0 8-7.932v-32h32a40.045 40.045 0 0 0 40-40v-160a40.045 40.045 0 0 0 -40-40h-160a40.045 40.045 0 0 0 -40 40v8h16v-8a24.028 24.028 0 0 1 24-24h160a24.028 24.028 0 0 1 24 24v160a24.028 24.028 0 0 1 -24 24h-40a8 8 0 0 0 -8 8v22.919l-34.878-29.065a8 8 0 0 0 -5.122-1.854h-72a24.028 24.028 0 0 1 -24-24v-136h-16v136a40.045 40.045 0 0 0 40 40h69.1l45.774 38.146a8.309 8.309 0 0 0 5.126 1.786z"/><path d="m48 176v24a24.028 24.028 0 0 0 24 24h128a24.028 24.028 0 0 0 24-24v-24a7.985 7.985 0 0 0 -3.43-6.561 27.993 27.993 0 0 0 -.01-26.871 7.984 7.984 0 0 0 3.44-6.568v-16a72.081 72.081 0 0 0 -72-72h-32a72.081 72.081 0 0 0 -72 72v16a7.985 7.985 0 0 0 3.43 6.561 27.993 27.993 0 0 0 .01 26.871 7.984 7.984 0 0 0 -3.44 6.568zm160 24a8.009 8.009 0 0 1 -8 8h-128a8.009 8.009 0 0 1 -8-8v-16h144zm-144-44a11.977 11.977 0 0 1 6.727-10.771l28.466 22.771h-23.193a12.013 12.013 0 0 1 -12-12zm132-12a12 12 0 0 1 0 24h-71.194l30-24zm-84 13.755-17.195-13.755h34.389zm-48-37.755a56.064 56.064 0 0 1 56-56h32a56.064 56.064 0 0 1 56 56v8h-144z"/><path d="m96 88h16v16h-16z"/><path d="m128 88h16v16h-16z"/><path d="m160 88h16v16h-16z"/><path d="m272 96h32v16h-32z"/></g></svg>