<svg height="512" viewBox="0 0 512 512" width="512" xmlns="http://www.w3.org/2000/svg" xmlns:xlink="http://www.w3.org/1999/xlink"><linearGradient id="New_Gradient_Swatch_4" gradientUnits="userSpaceOnUse" x1="204" x2="308" y1="492" y2="388"><stop offset="0" stop-color="#9d8b8b"/><stop offset="1" stop-color="#b9acac"/></linearGradient><linearGradient id="New_Gradient_Swatch_7" gradientUnits="userSpaceOnUse" x1="208" x2="304" y1="544" y2="448"><stop offset="0" stop-color="#816a6a"/><stop offset="1" stop-color="#9d8b8b"/></linearGradient><linearGradient id="New_Gradient_Swatch_5" gradientUnits="userSpaceOnUse" x1="44.686" x2="467.314" y1="419.314" y2="-3.314"><stop offset="0" stop-color="#e3dede"/><stop offset="1" stop-color="#fff"/></linearGradient><linearGradient id="New_Gradient_Swatch_7-2" x1="118.343" x2="537.14" xlink:href="#New_Gradient_Swatch_7" y1="492.971" y2="74.174"/><linearGradient id="New_Gradient_Swatch_2" gradientUnits="userSpaceOnUse" x1="118.686" x2="329.314" y1="263.314" y2="52.686"><stop offset="0" stop-color="#e87676"/><stop offset="1" stop-color="#f2b3b3"/></linearGradient><linearGradient id="New_Gradient_Swatch_7-3" x1="149.75" x2="298.25" xlink:href="#New_Gradient_Swatch_7" y1="200.75" y2="52.25"/><linearGradient id="New_Gradient_Swatch_10" gradientUnits="userSpaceOnUse" x1="314.599" x2="404.401" y1="245.401" y2="155.599"><stop offset="0" stop-color="#72c2c8"/><stop offset="1" stop-color="#b8e1e3"/></linearGradient><g id="_17-creditcard" data-name="17-creditcard"><g id="llinear_color" data-name="llinear color"><path d="m304 496h-96l16-128h64z" fill="url(#New_Gradient_Swatch_4)"/><path d="m352 496s-48-32-96-32-96 32-96 32z" fill="url(#New_Gradient_Swatch_7)"/><rect fill="url(#New_Gradient_Swatch_5)" height="384" rx="16" width="480" x="16" y="16"/><path d="m16 320v64a16 16 0 0 0 16 16h448a16 16 0 0 0 16-16v-64z" fill="url(#New_Gradient_Swatch_7-2)"/><rect fill="url(#New_Gradient_Swatch_2)" height="176" rx="16" width="264" x="92" y="70"/><path d="m92 110h264v33h-264z" fill="url(#New_Gradient_Swatch_7-3)"/><circle cx="359.5" cy="200.5" fill="url(#New_Gradient_Swatch_10)" r="63.5"/><path d="m480 6h-448a26.03 26.03 0 0 0 -26 26v352a26.03 26.03 0 0 0 26 26h176.671l-6.807 54.432a238.466 238.466 0 0 0 -47.411 23.248 10 10 0 0 0 5.547 18.32h192a10 10 0 0 0 5.547-18.32 238.466 238.466 0 0 0 -47.411-23.248l-6.807-54.432h176.671a26.03 26.03 0 0 0 26-26v-352a26.03 26.03 0 0 0 -26-26zm-448 20h448a6.006 6.006 0 0 1 6 6v278h-460v-278a6.006 6.006 0 0 1 6-6zm176 460h-6.526c15.893-6.393 35.309-12 54.526-12 19.148 0 38.556 5.607 54.459 12zm81.2-27.84a134.521 134.521 0 0 0 -66.39 0l6.018-48.16h54.344zm196.8-74.16a6.006 6.006 0 0 1 -6 6h-448a6.006 6.006 0 0 1 -6-6v-54h460z"/><path d="m240 370h32a10 10 0 0 0 0-20h-32a10 10 0 0 0 0 20z"/><path d="m108 256h203.4a73.472 73.472 0 1 0 54.6-128.7v-41.3a26.029 26.029 0 0 0 -26-26h-232a26.029 26.029 0 0 0 -26 26v144a26.029 26.029 0 0 0 26 26zm-6-26v-77h201.476a73.3 73.3 0 0 0 -8.307 83h-187.169a6.006 6.006 0 0 1 -6-6zm0-110h244v8.264a72.856 72.856 0 0 0 -15.557 4.736h-228.443zm311 80.5a53.5 53.5 0 1 1 -53.5-53.5 53.561 53.561 0 0 1 53.5 53.5zm-305-120.5h232a6.006 6.006 0 0 1 6 6v14h-244v-14a6.006 6.006 0 0 1 6-6z"/><path d="m206 171h-81a10 10 0 0 0 0 20h81a10 10 0 0 0 0-20z"/><path d="m333.9 193.636a10 10 0 1 0 -11.094 16.64l24 16a10 10 0 0 0 13.355-2.073l32-40a10 10 0 1 0 -15.617-12.494l-26.278 32.841z"/></g></g></svg>