<svg id="Capa_1" enable-background="new 0 0 511.952 511.952" height="512" viewBox="0 0 511.952 511.952" width="512" xmlns="http://www.w3.org/2000/svg"><g><g><path d="m267.967 330.999v-168.068c0-6.622-5.369-11.991-11.991-11.991s-11.991 5.369-11.991 11.991v168.069h23.982z" fill="#f9f6f6"/><path d="m255.75 150.942c-6.601.121-11.765 5.785-11.765 12.387v50.579c2.454 1.095 4.905 2.304 7.354 3.629 2.935 1.589 6.432 1.676 9.434.218 2.398-1.165 4.796-2.252 7.194-3.258v-51.565c0-6.699-5.491-12.114-12.217-11.99z" fill="#dddaec"/><path d="m255.976 23.948c-102.13 0-184.922 88.473-184.922 172.957 27.983-19.04 56.622-19.023 85.914 0 33.405-18.419 66.434-19.644 99.008 0 33.061-17.5 66.074-20.564 99.008 0 26.319-17.694 54.607-20.369 85.914 0 0-84.485-82.792-172.957-184.922-172.957z" fill="#80b4fb"/><path d="m408.091 183.485c10.575 1.721 21.493 6.058 32.808 13.419 0-84.484-82.792-172.957-184.922-172.957-5.41 0-10.762.263-16.055.746 89.329 8.15 160.5 83.104 168.169 158.792z" fill="#61a2f9"/></g><g><path d="m248.49 504.453h-118.799c-4.135 0-7.487-3.352-7.487-7.487v-103.51c0-4.135 3.352-7.487 7.487-7.487h118.799c4.135 0 7.487 3.352 7.487 7.487v103.51c-.001 4.135-3.353 7.487-7.487 7.487z" fill="#ffd064"/><path d="m248.49 385.969h-15.425c4.135 0 7.487 3.352 7.487 7.487v103.51c0 4.135-3.352 7.487-7.487 7.487h15.425c4.135 0 7.487-3.352 7.487-7.487v-103.51c-.001-4.135-3.353-7.487-7.487-7.487z" fill="#ffc250"/><path d="m200.003 423.932h-21.825c-1.718 0-3.11-1.393-3.11-3.11v-34.853h28.046v34.853c-.001 1.717-1.393 3.11-3.111 3.11z" fill="#26457d"/><path d="m192.697 385.969v34.853c0 1.718-1.393 3.11-3.11 3.11h10.416c1.718 0 3.11-1.393 3.11-3.11v-34.853z" fill="#21386b"/><path d="m382.262 504.453h-118.799c-4.135 0-7.487-3.352-7.487-7.487v-103.51c0-4.135 3.352-7.487 7.487-7.487h118.798c4.135 0 7.487 3.352 7.487 7.487v103.51c.001 4.135-3.351 7.487-7.486 7.487z" fill="#ffd064"/><path d="m382.262 385.969h-15.425c4.135 0 7.487 3.352 7.487 7.487v103.51c0 4.135-3.352 7.487-7.487 7.487h15.425c4.135 0 7.487-3.352 7.487-7.487v-103.51c0-4.135-3.352-7.487-7.487-7.487z" fill="#ffc250"/><path d="m333.775 423.932h-21.825c-1.718 0-3.11-1.393-3.11-3.11v-34.853h28.046v34.853c-.001 1.717-1.393 3.11-3.111 3.11z" fill="#26457d"/><path d="m326.47 385.969v34.853c0 1.718-1.393 3.11-3.11 3.11h10.416c1.718 0 3.11-1.393 3.11-3.11v-34.853z" fill="#21386b"/><path d="m322.862 378.254c0 4.135-3.352 7.487-7.487 7.487h-118.798c-4.135 0-7.487-3.352-7.487-7.487v-103.51c0-4.135 3.352-7.487 7.487-7.487h118.798c4.135 0 7.487 3.352 7.487 7.487z" fill="#f1cb86"/><path d="m315.376 267.257h-15.425c4.135 0 7.487 3.352 7.487 7.487v103.51c0 4.135-3.352 7.487-7.487 7.487h15.425c4.135 0 7.487-3.352 7.487-7.487v-103.51c-.001-4.135-3.353-7.487-7.487-7.487z" fill="#e7a561"/><path d="m266.889 305.22h-21.825c-1.718 0-3.11-1.393-3.11-3.11v-34.853h28.046v34.853c-.001 1.717-1.393 3.11-3.111 3.11z" fill="#26457d"/><path d="m259.584 267.257v34.853c0 1.718-1.393 3.11-3.11 3.11h10.416c1.718 0 3.11-1.393 3.11-3.11v-34.853z" fill="#21386b"/></g><g><path d="m391.976 73.379c-35.716-34.877-81.093-54.854-128.5-56.766v-9.113c0-4.143-3.357-7.5-7.5-7.5s-7.5 3.357-7.5 7.5v9.101c-39.233 1.576-77.013 15.502-109.698 40.52-3.289 2.519-3.915 7.226-1.397 10.515 2.519 3.288 7.224 3.917 10.515 1.396 18.151-13.894 37.98-24.083 58.755-30.322-9.781 9.382-18.878 21.597-26.983 36.44-17.088 31.293-27.597 70.482-29.487 109.205-23.947-12.039-47.703-12.359-70.89-.948 3.604-33.35 20.306-67.375 47.056-95.144 2.874-2.982 2.785-7.73-.198-10.604-2.984-2.874-7.732-2.785-10.604.198-33.04 34.297-51.989 77.688-51.989 119.046 0 2.778 1.536 5.33 3.992 6.629 2.458 1.301 5.429 1.136 7.727-.428 25.461-17.323 50.847-17.292 77.61.09 2.589 1.682 6.658 1.74 9.387-.623 25.926-13.831 50.366-16.149 74.214-6.95v64.134h-39.907c-8.264 0-14.987 6.724-14.987 14.987v103.51c0 .073.01.143.011.215h-51.91c-8.264 0-14.986 6.723-14.986 14.986v103.511c0 8.264 6.723 14.986 14.986 14.986h35.657c4.143 0 7.5-3.357 7.5-7.5s-3.357-7.5-7.5-7.5l-35.644.014-.014-103.497 37.876-.004v27.357c0 5.851 4.76 10.61 10.611 10.61h21.824c5.852 0 10.611-4.76 10.611-10.61v-27.362l37.862-.004v.001 103.496h-53.558c-4.143 0-7.5 3.357-7.5 7.5s3.357 7.5 7.5 7.5h53.571c2.728 0 5.281-.745 7.487-2.024 2.206 1.279 4.759 2.024 7.487 2.024h118.798c8.264 0 14.987-6.723 14.987-14.986v-103.51c0-8.264-6.724-14.987-14.987-14.987h-51.909c.001-.072.011-.142.011-.215v-42.513c0-4.143-3.357-7.5-7.5-7.5s-7.5 3.357-7.5 7.5l.013 42.499-118.785.014-.013-103.497 37.876-.004v27.357c0 5.851 4.76 10.61 10.61 10.61h21.825c5.851 0 10.61-4.76 10.61-10.61v-27.361l37.863-.004v31.427c0 4.143 3.357 7.5 7.5 7.5s7.5-3.357 7.5-7.5v-31.427c0-8.264-6.724-14.987-14.987-14.987h-39.908v-63.435c26.496-9.833 50.802-7.854 73.853 5.923 2.782 2.741 7.148 2.698 9.849.884 26.019-17.492 50.689-17.471 77.638.062 4.943 3.215 11.591-.296 11.591-6.286.001-43.487-20.565-88.51-56.422-123.526zm-196.362 343.053h-13.047v-22.963h13.047zm120.725-22.963h13.046v22.963h-13.046zm65.922 103.483-118.785.014v-103.497h37.863v27.353c0 5.851 4.76 10.61 10.61 10.61h21.825c5.851 0 10.61-4.76 10.61-10.61v-27.353h37.863zm-217.069-312.446c1.848-36.316 11.688-72.952 27.641-102.167 15.699-28.75 35.629-46.587 55.644-50.198v152.297c-27.68-12.816-55.649-11.959-83.285.068zm97.308 113.214h-13.046v-22.963h13.046zm-2.033-37.963h-8.982v-56.791c2.859 1.697 4.96 2.154 8.982.061zm3.009-74.788v-152.828c20.015 3.611 39.945 21.449 55.644 50.198 15.863 29.05 25.68 65.439 27.607 101.554-26.185-12.184-53.62-11.823-83.251 1.076zm98.288-.762c-1.91-38.676-12.413-77.804-29.479-109.057-8.105-14.843-17.202-27.058-26.983-36.44 27.956 8.365 54.062 23.787 76.195 45.4 29.307 28.619 47.508 64.265 51.202 99.544-23.856-11.518-47.627-11.332-70.935.553z"/><path d="m213.742 487.85c2.891 2.969 7.638 3.031 10.605.143l12.534-12.2c1.45-1.411 2.269-3.35 2.269-5.374s-.818-3.963-2.269-5.374l-12.534-12.2c-2.968-2.891-7.717-2.825-10.605.143-2.89 2.969-2.825 7.717.143 10.605l7.013 6.826-7.013 6.826c-2.968 2.888-3.033 7.636-.143 10.605z"/><path d="m174.468 468.079h-27.601c-4.143 0-7.5 3.357-7.5 7.5s3.357 7.5 7.5 7.5h27.601c4.143 0 7.5-3.357 7.5-7.5s-3.357-7.5-7.5-7.5z"/><path d="m354.668 470.418-7.013 6.826c-2.968 2.889-3.032 7.637-.143 10.605 2.891 2.969 7.638 3.031 10.605.143l12.534-12.2c1.45-1.411 2.269-3.35 2.269-5.374s-.818-3.963-2.269-5.374l-12.534-12.2c-2.969-2.891-7.717-2.825-10.605.143-2.89 2.969-2.825 7.717.143 10.605z"/><path d="m308.24 468.079h-27.601c-4.143 0-7.5 3.357-7.5 7.5s3.357 7.5 7.5 7.5h27.601c4.143 0 7.5-3.357 7.5-7.5s-3.358-7.5-7.5-7.5z"/><path d="m280.627 369.138c2.891 2.969 7.638 3.031 10.605.143l12.534-12.2c1.45-1.411 2.269-3.35 2.269-5.374s-.818-3.963-2.269-5.374l-12.534-12.2c-2.968-2.891-7.717-2.825-10.605.143-2.89 2.969-2.825 7.717.143 10.605l7.013 6.826-7.013 6.826c-2.968 2.888-3.032 7.636-.143 10.605z"/><path d="m213.753 349.367c-4.143 0-7.5 3.357-7.5 7.5s3.357 7.5 7.5 7.5h27.601c4.143 0 7.5-3.357 7.5-7.5s-3.357-7.5-7.5-7.5z"/></g></g></svg>