<svg id="_x31__x2C_5" enable-background="new 0 0 24 24" height="512" viewBox="0 0 24 24" width="512" xmlns="http://www.w3.org/2000/svg"><path d="m19.35 20.025h-2.7c-.373 0-.675-.302-.675-.675v-1.31c0-.367-.218-.668-.401-.856-.763-.787-1.089-1.862-.894-2.95.243-1.353 1.357-2.464 2.709-2.704.997-.18 2.011.091 2.779.734.767.643 1.207 1.586 1.207 2.587 0 .902-.356 1.749-1.001 2.385-.16.157-.349.411-.349.727v1.388c0 .372-.302.674-.675.674z" fill="#ffc107"/><path d="m22.725 23.763h-9.45c-.373 0-.675-.302-.675-.675v-1.68c0-.793.593-1.465 1.38-1.563l2.811-.352 2.334-.005 2.896.357c.786.098 1.379.77 1.379 1.563v1.68c0 .372-.302.675-.675.675z" fill="#2196f3"/><path d="m13.861 3.609h-6.144-4.578c-1.417 0-2.564 1.147-2.564 2.564v9.081 2.573c0 1.417 1.147 2.564 2.564 2.564h6.144 4.578c1.417 0 2.564-1.147 2.564-2.564v-9.081-2.573c0-1.417-1.147-2.564-2.564-2.564z" fill="#2196f3"/><path d="m11.875 2.125h-.99c-.297-1.035-1.251-1.8-2.385-1.8s-2.088.765-2.385 1.8h-.99c-.369 0-.675.306-.675.675v1.8c0 .864.711 1.575 1.575 1.575h4.95c.864 0 1.575-.711 1.575-1.575v-1.8c0-.369-.306-.675-.675-.675z" fill="#1976d2"/><path d="m19.5 20.5h-3c-.414 0-.75-.336-.75-.75v-1.456c0-.407-.242-.742-.445-.951-.849-.875-1.211-2.069-.993-3.278.271-1.504 1.508-2.739 3.011-3.004 1.103-.198 2.233.1 3.086.815s1.342 1.763 1.342 2.874c0 1.001-.395 1.942-1.111 2.649-.178.176-.389.457-.389.809v1.542c-.001.414-.337.75-.751.75zm-2.25-1.5h1.5v-.792c0-.679.297-1.345.835-1.876.429-.424.665-.985.665-1.582 0-.667-.294-1.296-.806-1.725-.52-.436-1.18-.607-1.861-.488-.896.158-1.634.896-1.795 1.793-.131.728.085 1.444.593 1.968.568.586.869 1.275.869 1.996z"/><path d="m23.25 24h-10.5c-.414 0-.75-.336-.75-.75v-1.867c0-.881.659-1.627 1.533-1.736l3.124-.391 2.593-.006 3.217.396c.874.11 1.533.856 1.533 1.737v1.867c0 .414-.336.75-.75.75zm-9.75-1.5h9v-1.117c0-.126-.094-.232-.219-.248l-3.124-.391-2.407.006-3.031.385c-.125.016-.219.122-.219.248z"/><path d="m9.92 21h-7.17c-1.517 0-2.75-1.233-2.75-2.75v-12.5c0-1.517 1.233-2.75 2.75-2.75h1.88c.414 0 .75.336.75.75s-.336.75-.75.75h-1.88c-.689 0-1.25.561-1.25 1.25v12.5c0 .689.561 1.25 1.25 1.25h7.17c.414 0 .75.336.75.75s-.336.75-.75.75z"/><path d="m16.25 9.76c-.414 0-.75-.336-.75-.75v-3.26c0-.689-.561-1.25-1.25-1.25h-1.87c-.414 0-.75-.336-.75-.75s.336-.75.75-.75h1.87c1.517 0 2.75 1.233 2.75 2.75v3.26c0 .414-.336.75-.75.75z"/><path d="m11.25 6.5h-5.5c-.965 0-1.75-.785-1.75-1.75v-2c0-.414.336-.75.75-.75h1.104c.328-1.153 1.389-2 2.646-2s2.318.847 2.646 2h1.104c.414 0 .75.336.75.75v2c0 .965-.785 1.75-1.75 1.75zm-5.75-3v1.25c0 .138.112.25.25.25h5.5c.138 0 .25-.112.25-.25v-1.25h-1c-.414 0-.75-.336-.75-.75 0-.689-.561-1.25-1.25-1.25s-1.25.561-1.25 1.25c0 .414-.336.75-.75.75z"/><path d="m13.25 9.5h-9.5c-.414 0-.75-.336-.75-.75s.336-.75.75-.75h9.5c.414 0 .75.336.75.75s-.336.75-.75.75z"/><path d="m12.81 12.5h-9.06c-.414 0-.75-.336-.75-.75s.336-.75.75-.75h9.06c.414 0 .75.336.75.75s-.336.75-.75.75z"/><path d="m12 15.5h-8.25c-.414 0-.75-.336-.75-.75s.336-.75.75-.75h8.25c.414 0 .75.336.75.75s-.336.75-.75.75z"/></svg>