<?xml version="1.0"?>
<svg xmlns="http://www.w3.org/2000/svg" viewBox="0 0 64 64" width="512" height="512"><title>profit-Budget-investment-Earnings-graph</title><g id="FillOutline"><rect x="19" y="7" width="36" height="46" style="fill:#0071bc"/><rect x="15" y="11" width="36" height="46" style="fill:#e6e6e6"/><polygon points="58 28 48 28 44 31 44 28 39 28 39 16 58 16 58 28" style="fill:#29abe2"/><rect x="7" y="57" width="16" height="4" style="fill:#fed856"/><rect x="7" y="53" width="16" height="4" style="fill:#eeb83b"/><rect x="9" y="49" width="16" height="4" style="fill:#fed856"/><rect x="7" y="45" width="16" height="4" style="fill:#eeb83b"/><circle cx="15" cy="36" r="9" style="fill:#fed856"/><path d="M34,31a5,5,0,0,0-3.536,8.536L34,36Z" style="fill:#29abe2"/><path d="M34,31v5l-3.536,3.536A5,5,0,1,0,34,31Z" style="fill:#0071bc"/><path d="M14,40.855V42h2V40.855a2.844,2.844,0,0,0,.422-5.262l-1.949-.974A.854.854,0,0,1,14.854,33h.292a.855.855,0,0,1,.854.854V34h2v-.146a2.849,2.849,0,0,0-2-2.709V30H14v1.145a2.844,2.844,0,0,0-.422,5.262l1.949.974A.854.854,0,0,1,15.146,39h-.292A.855.855,0,0,1,14,38.146V38H12v.146A2.849,2.849,0,0,0,14,40.855Z"/><path d="M9.025,44H7a1,1,0,0,0-1,1v4a1,1,0,0,0,1,1H8v2H7a1,1,0,0,0-1,1v8a1,1,0,0,0,1,1H23a1,1,0,0,0,1-1V58H51a1,1,0,0,0,1-1V53h3a1,1,0,0,0,1-1V29h2a1,1,0,0,0,1-1V16a1,1,0,0,0-1-1H56V7a1,1,0,0,0-1-1H19a1,1,0,0,0-1,1v3H15a1,1,0,0,0-1,1V26.051A9.986,9.986,0,0,0,9.025,44ZM8,46H22v2H8Zm2,4H24v2H10ZM8,54H22v2H8Zm14,6H8V58H22Zm32-9H52V29h2Zm3-24H48a1,1,0,0,0-.6.2L45,29V28a1,1,0,0,0-1-1H40V17H57ZM20,8H54v7H52V11a1,1,0,0,0-1-1H20Zm30,4v3H39a1,1,0,0,0-1,1V28a1,1,0,0,0,1,1h4v2a1,1,0,0,0,1.6.8L48.333,29H50V56H24V54h1a1,1,0,0,0,1-1V49a1,1,0,0,0-1-1H24V45a1,1,0,0,0-1-1H20.975A9.962,9.962,0,0,0,21,28.019V27h3V25H21V23h7V21H21V19H32V17H21V15H19V26.841a9.893,9.893,0,0,0-3-.79V12ZM15,28a8,8,0,1,1-8,8A8.009,8.009,0,0,1,15,28Z"/><polygon points="39 43 39 51 37 51 37 45 35 45 35 51 33 51 33 47 31 47 31 51 29 51 29 53 47 53 47 51 45 51 45 41 43 41 43 51 41 51 41 43 39 43"/><rect x="42" y="23" width="13" height="2"/><rect x="42" y="19" width="2" height="2"/><rect x="46" y="19" width="9" height="2"/><rect x="30" y="21" width="2" height="2"/><rect x="26" y="25" width="2" height="2"/><rect x="34" y="17" width="2" height="2"/><path d="M28,36a6,6,0,1,0,6-6A6.006,6.006,0,0,0,28,36Zm10,0a4,4,0,0,1-4,4,3.947,3.947,0,0,1-2.019-.567l2.726-2.726A1,1,0,0,0,35,36V32.142A4,4,0,0,1,38,36Zm-5-3.858v3.444l-2.433,2.433A3.947,3.947,0,0,1,30,36,4,4,0,0,1,33,32.142Z"/><rect x="23" y="2" width="26" height="2"/><rect x="29" y="60" width="20" height="2"/></g></svg>
