<?xml version="1.0" encoding="utf-8"?>
<!-- Generator: Adobe Illustrator 23.0.5, SVG Export Plug-In . SVG Version: 6.00 Build 0)  -->
<svg version="1.1" id="Layer_1" xmlns="http://www.w3.org/2000/svg" xmlns:xlink="http://www.w3.org/1999/xlink" x="0px" y="0px"
	 viewBox="0 0 864 394.99" style="enable-background:new 0 0 864 394.99;" xml:space="preserve">
<style type="text/css">
	.st0{fill:#239707;}
	.st1{fill:#6D2C2A;}
	.st2{fill:#FED5B5;}
	.st3{fill:#6E2D2B;}
	.st4{fill:#FEC6A3;}
	.st5{fill:#6E2E2C;}
	.st6{fill:#6C2C2B;}
	.st7{fill:#245F7B;}
	.st8{fill:#255E7A;}
	.st9{fill:#25607D;}
	.st10{fill:#70302E;}
	.st11{fill:#24607D;}
	.st12{fill:#255F7C;}
	.st13{fill:#22627F;}
	.st14{fill:#6A2F2F;}
	.st15{fill:#6B2E2D;}
	.st16{fill:#70312F;}
	.st17{fill:#1F6685;}
	.st18{fill:#02BEF6;}
	.st19{fill:#00BFF7;}
	.st20{fill:#7394B1;}
	.st21{fill:#F8CAAC;}
	.st22{fill:#F2C3A6;}
	.st23{fill:#A66E63;}
	.st24{fill:#A96B5E;}
	.st25{fill:#9D5F54;}
	.st26{fill:#A4675A;}
	.st27{fill:#B27566;}
	.st28{fill:#FDD4B4;}
	.st29{fill:#FCD2B3;}
	.st30{fill:#FDD3B4;}
	.st31{fill:#FBD0B1;}
	.st32{fill:#06BCF4;}
	.st33{fill:#97635D;}
	.st34{fill:#7499B9;}
	.st35{fill:#A46C60;}
	.st36{fill:#00BEF7;}
	.st37{fill:#6D2B29;}
	.st38{fill:#72312E;}
	.st39{fill:#A5BAC9;}
	.st40{fill:#E85E64;}
	.st41{fill:#FE7475;}
	.st42{fill:#FD6062;}
	.st43{fill:#FDADBA;}
	.st44{fill:#FD6B6D;}
</style>
<g>
	<path class="st0" d="M619.8,166.47c-7.97-46.9-30.36-85.55-67.36-115.25c-42.12-33.8-90.28-46.57-143.6-37.29
		c-52.04,9.05-92.27,36.97-121.02,80.71c-28.22,42.96-37.08,90.33-27.07,140.85c10.2,51.51,37.44,91.94,81.21,120.83
		c40.15,26.5,84.37,35.03,131.5,26.16c39.87-7.5,73.28-27.09,100.47-57.28c32.42-35.99,47.84-78.5,48.88-125.2
		C622.62,187.83,621.61,177.13,619.8,166.47z M558.8,279.97c-2.34,1.06-3.4-0.69-4.33-2.2c-0.81-1.3-1.72-2.46-2.86-3.42
		c-4.19-3.53-9.24-2.02-10.19,3.32c-0.46,2.57-1.28,3.86-3.64,5.2c-3.3,1.86-5.36,5.39-9.02,7.25c-2.62,1.33-1.86,5.69,0.68,8.85
		c2.2,2.74,5.41,4.87,5.62,8.88c-13.08,13.31-28.88,22.33-46.12,28.99c-4.57,1.76-9.05,4.03-14.14,4.02
		c-2.84-5.1-1.66-10.4-0.8-15.68c4.87-3.74,10.84-5.42,16.04-8.67c24.91-15.57,40.82-37.24,46.32-66.32c0.44-2.35,0.3-5,1.98-7.05
		c6.72-6.59,6.16-18.29-0.39-23.62c-1.07-5.09-2.68-10.07-3.09-15.29c0.62-1.4,1.82-1.9,3.21-1.71c3.04,0.4,5.41-0.85,7.54-2.79
		c2.91-4.1,2.92-7.25,0.05-10.68c-2.39-2.85-6.87-3.35-10.89-1.19c-1.79,0.96-3.26,3.1-5.72,1.5c-1.38-3.17-4.95-5.41-4.09-9.55
		c0.59-1.16,1.84-1.28,2.84-1.82c4.59-2.53,6.53-7.48,4.42-11.18c-2.44-4.27-8.04-5.59-12.59-2.77c-1.98,1.23-3.68,2.88-6.28,2.07
		c-11.52-12.08-24.95-21.26-40.68-27.03c-4.37-1.6-8.88-2.63-13.39-3.66c-1.57-0.36-2.92-0.63-3.39-2.38
		c0.35-5.12,1.11-10.25-0.63-15.28c-2.46-7.11-9.77-12.2-16.31-11.36c-7.99,1.02-14.19,7.72-14.69,15.81
		c-0.25,3.96,0.62,7.98-0.6,11.89c-2.75,2.09-6.21,1.8-9.32,2.68c-18.05,5.11-33.64,14.18-46.46,27.94
		c-0.78,0.84-1.49,1.79-2.61,2.25c-2.28,0.77-3.71-0.82-5.31-1.94c-5-3.52-9.29-3.17-12.07,0.98c-2.95,4.4-1.54,8.7,3.89,11.84
		c0.98,0.57,2.22,0.77,2.8,1.93c-0.36,5.35-3.31,9.54-6.16,13.77c-2.08,0.92-3.27-0.32-4.68-1.64c-2.98-2.78-6.46-3.29-9.99-1.06
		c-3.04,1.92-4.64,4.8-3.91,8.43c0.84,4.26,4.19,5.66,8,6.21c2.03,0.3,4.39-0.81,5.91,1.49c0.41,4.6-0.93,8.87-2.44,13.1
		c-6.89,7.16-6.24,16.65-0.19,23.32c2.91,8.08,3.73,16.74,7.11,24.73c10.64,25.12,27.93,43.68,53.22,54.36
		c3.61,1.52,5.48,3.56,4.79,7.5c-0.63,3.63,1.5,7.65-1.51,10.95c-13.08-2.12-24.55-8.27-35.93-14.53
		c-6.19-3.4-12.02-7.47-17.33-12.2c-1.08-2.81,1.7-3.25,2.93-4.48c4.97-4.97,5.01-6.48-0.33-10.95c-0.95-0.8-1.5-1.73-1.78-2.89
		c-0.72-2.97-2.57-4.53-5.67-4.55c-1.68-0.01-2.61-0.91-3.38-2.43c-3.31-6.57-6.15-7.15-12.26-2.68c-1.55,1.13-2.8,3.13-5.13,1.5
		c-12.04-17.02-20.9-35.46-25.36-55.93c-4.03-18.5-4.93-37.01-1.98-55.83c3.02-19.25,9.04-37.28,19.03-53.97
		c20.56-34.34,49.9-57.46,88.88-66.96c44.06-10.73,84.43-1.63,120.14,26.29c29.28,22.9,47.12,53.24,53.75,89.64
		C587.39,209.9,580.25,246.46,558.8,279.97z"/>
	<path class="st1" d="M339.55,219.66c2.17-4.03,2.21-8.59,3.22-12.91c-0.96-1.21-0.85-2.45-0.08-3.71c0.53-0.68,1.22-1.1,2.07-1.27
		c0.57-0.06,1.12,0.02,1.66,0.21c0.79,0.37,1.35,0.96,1.71,1.74c1.33,2.69-0.04,5.24-0.6,7.76c-6.39,28.95-0.19,55.16,17.65,78.53
		c14.05,18.41,32.99,29.54,55.42,34.8c5.56,1.3,11.06,3.94,16.99,1.62c0.52-0.19,1.05-0.27,1.6-0.29c3.69,0.71,7.33,0.13,10.98-0.43
		c19.03-1.67,35.63-9.28,50.17-21.32c20.35-16.85,31.26-38.87,33.85-65c1.16-11.7-0.43-23.23-3.82-34.49
		c-0.47-1.58-1.39-3.05-1.25-4.79c0.18-0.8,0.42-1.57,0.98-2.21c2.56-1.58,3.92,0.82,5.73,1.74c0.58,0.61,0.93,1.33,0.99,2.18
		c-0.04,0.84-0.44,1.54-0.91,2.2c1.6,4.82,1.47,10.09,3.88,14.7c0.56,0.88,0.84,1.84,0.97,2.86c0.2,2.24-0.23,4.52,0.42,6.73
		c0.07,2.3,0.07,4.61,0,6.91c-0.42,2.67-1.23,5.28-1.39,8c0.02,0.24,0.03,0.49,0.05,0.73c-2.66,7.13-3.33,14.78-6.03,21.93
		c-10.37,27.37-29.05,46.7-55.78,58.39c-0.74,0.32-1.59,0.39-2.38,0.57c-1.72,1.31-2.9,3.31-5.09,4.04
		c-7.32,3.62-15.33,4.35-23.22,5.08c-9.63,0.88-19.27,0.18-28.68-2.34c-0.81-0.15-1.64-0.2-2.46-0.32c-5.82-0.84-5.83-0.84-6.2,4.85
		c-0.14,2.14,0.06,4.42-2.35,5.61c-0.98-0.28-1.96-0.55-2.93-0.83c1.88-10.67-2-16.27-12.36-21.58
		c-28.01-14.34-44.77-38.21-50.78-69.31c-0.41-2.13-0.98-4.19-2.17-6.02c0.25-1.21-0.21-2.36-0.33-3.54
		c-0.13-1.71-0.46-3.39-0.78-5.08c-0.07-2.04-0.08-4.07,0-6.11c0.77-2.91,0.88-5.92,1.28-8.89
		C339.56,220.16,339.55,219.91,339.55,219.66z"/>
	<path class="st2" d="M417.79,329.67c16.7,3.03,33.29,3.09,49.71-1.79c1.11-0.33,2.18-0.79,3.26-1.19c1.14,0.03,2.11,0.73,2.14,1.69
		c0.15,4.5,1.51,9.12-1.05,13.41c-17.91,4.6-35.95,5.66-54.16,1.98C414.55,339.47,414.59,333.5,417.79,329.67z"/>
	<path class="st1" d="M535.05,307.86c-2.48-2.9-5.07-5.71-7.41-8.71c-3.56-4.58-2.1-8.89,2.36-12.23c4.01-3,9.18-5.02,10.4-11.27
		c1.01-5.19,7.45-6.54,11.62-2.88c2.47,2.17,4.53,4.79,6.78,7.21c3.56,6.82,3.02,8.56-3.96,12.98c-0.39,0.25-1.13,0.6-1.09,0.79
		c1.39,7.42-6.25,8.4-9.2,12.71C542.28,309.77,538.52,309.35,535.05,307.86z"/>
	<path class="st3" d="M325.84,287.74c2.19-1.47,4.33-3.01,6.57-4.39c5.23-3.23,9.57-1.83,12.06,3.79c0.37,0.84,0.04,2.53,1.24,2.4
		c7.88-0.88,7.91,7.3,12.16,10.62c3.01,2.35,2.07,6.42-0.78,9.24c-1.75,1.74-3.75,3.22-5.63,4.82c-2.86,1.51-5.39,3.96-9.09,3
		c-1.48-0.38-3.45-0.92-3.69-2.19c-0.93-4.78-6.59-6.39-7.2-11.23c-0.15-1.18-0.81-1.48-1.92-1.77
		C320.52,299.66,319.27,294.77,325.84,287.74z"/>
	<path class="st4" d="M417.79,329.67c-0.03,4.7-0.06,9.4-0.1,14.09c-3.45-0.13-6.81-0.76-10.04-1.99c0.03-3.97,0.15-7.94,0.05-11.91
		c-0.06-2.39,0.43-3.4,3.04-2.35C413.02,328.42,415.44,328.97,417.79,329.67z"/>
	<path class="st5" d="M471.85,341.79c-0.76-5,1.02-10.19-1.09-15.1c1.63-0.61,3.26-1.22,4.89-1.83c-1.89,5.25-0.5,10.68-0.86,16.01
		C473.94,341.6,472.94,341.84,471.85,341.79z"/>
	<path class="st0" d="M235.7,264.38c-0.27-8.82-0.24-17.67-0.01-26.49c0.09-3.41-1.12-4.14-4.28-4.1
		c-11.83,0.17-23.67-0.12-35.49,0.17c-4.06,0.1-5.29-0.84-5.27-5.11c0.19-34.33,0.11-68.66,0.11-102.99c0-9.83,0-19.66,0-29.5
		c0-24.5-0.12-48.99,0.11-73.49c0.04-4.27-1.18-5.38-5.27-5.1c-5.47,0.37-11.01,0.38-16.49,0.01c-3.62-0.24-5.65,1.09-7.66,3.96
		c-46.8,67-93.5,134.06-140.76,200.74c-7.18,10.13-11.76,20.02-10.02,32.46c0.37,2.62,0.32,5.36-0.01,7.98
		c-0.55,4.5,0.97,5.82,5.64,5.8c42.99-0.19,85.99-0.05,128.98-0.21c4.22-0.02,5.61,0.79,5.56,5.38
		c-0.26,25.33,0.06,50.66-0.28,75.99c-0.07,5.31,1.55,6.26,6.35,6.08c9.65-0.37,19.33-0.31,28.99-0.01
		c3.95,0.12,4.95-1.01,4.92-4.93c-0.18-26-0.03-51.99-0.17-77.99c-0.02-3.44,0.82-4.56,4.39-4.5c11.99,0.22,24-0.02,35.99,0.15
		C234.34,268.73,235.81,268.12,235.7,264.38z M145.46,233.98c-36.63-0.22-73.26-0.12-110.95-0.12
		c38.73-54.75,77.02-108.88,115.31-163.01c0.3,0.13,0.6,0.27,0.91,0.4c0,1.45,0,2.9,0,4.34c0,50.96-0.05,101.92,0.1,152.88
		C150.84,232.73,150,234,145.46,233.98z"/>
	<path class="st0" d="M855.71,264.08c-0.31-8.49-0.26-17-0.02-25.49c0.1-3.57-0.64-4.93-4.58-4.83
		c-11.83,0.28-23.66-0.06-35.49,0.19c-3.88,0.08-4.98-0.93-4.96-4.9c0.17-34.33,0.1-68.66,0.1-102.99s-0.06-68.66,0.09-102.99
		c0.02-3.94-0.61-5.66-5.05-5.32c-5.63,0.44-11.33,0.32-16.99,0.05c-3.37-0.16-5.34,1.04-7.25,3.77
		C736.29,86.4,690.93,151.16,645.6,215.95c-4.95,7.08-11.74,13.6-14.21,21.47c-2.48,7.9-0.36,17.17-0.76,25.82
		c-0.21,4.44,1.08,5.51,5.49,5.5c43.16-0.18,86.32-0.05,129.48-0.2c4.11-0.01,5.28,0.95,5.25,5.18
		c-0.21,25.83-0.03,51.66-0.19,77.49c-0.02,3.59,0.66,4.89,4.58,4.77c10.16-0.31,20.34-0.33,30.49,0.01
		c4.26,0.14,5.16-1.16,5.13-5.24c-0.2-25.83-0.02-51.66-0.19-77.49c-0.02-3.75,0.96-4.78,4.7-4.71c11.83,0.25,23.66-0.04,35.49,0.17
		C854.44,268.76,855.85,268.01,855.71,264.08z M765.49,233.98c-36.63-0.23-73.27-0.13-110.98-0.13
		c38.72-54.74,77.01-108.87,115.3-163.01c0.3,0.13,0.61,0.25,0.91,0.38c0,1.44,0,2.88,0,4.32c0,50.96-0.05,101.92,0.1,152.88
		C770.84,232.63,770.1,234.01,765.49,233.98z"/>
	<path class="st3" d="M364.42,166.14c14.38-16.13,32.01-26.82,53.12-31.66c1.6-0.37,3.25-0.5,4.87-0.75
		c1.24-0.69,1.87-2.28,3.5-2.39c9.39-2.91,18.78-2.41,28.17,0.02c1.08,0.32,2.29,0.4,2.9,1.58c11.92,3.18,23.71,6.64,34.33,13.28
		c8.48,5.31,16.22,11.45,22.88,18.92c1.18,0.3,2.35,0.61,2.32,2.2c-0.06,0.52-0.25,0.97-0.56,1.38c-0.96,1.02-2.14,1.43-3.52,1.3
		c-4.47-2.08-7-6.37-10.62-9.45c-15.19-12.94-32.4-20.99-52.43-22.62c-27.82-4.54-50.8,6.08-71.85,22.84
		c-4.28,3.41-7.25,8.21-11.92,11.21c-1.03,0.43-2.07,0.76-3.15,0.15c-0.95-0.78-1.14-1.84-1.11-2.98
		C361.35,167.13,362.61,166.36,364.42,166.14z"/>
	<path class="st6" d="M425.83,132.82c-1.14,0.3-2.28,0.61-3.42,0.91c0.11-3.66,0.18-7.32,0.33-10.97
		c0.42-10.33,8.09-18.02,17.76-17.84c9.75,0.18,17.14,7.91,17.17,18.3c0.01,3.23,0.98,6.59-0.69,9.72
		c-0.79,0.29-1.58,0.58-2.36,0.87c-2.77-3.23-2-7.18-2.28-10.94c-0.73-9.97-9.54-15.39-17.91-10.97c-4.84,2.56-6.13,7.06-6.39,12.12
		C427.89,127.08,428.76,130.45,425.83,132.82z"/>
	<path class="st7" d="M349.58,152.83c-5.05-0.13-9.09-3.41-10.21-7.67c-1.08-4.09,1.01-8.8,4.89-11.04
		c3.77-2.18,8.85-1.53,11.81,2.01c2.11,2.53,3.66,5.53,5.4,8.35c0.52,0.85,1,1.93-0.17,2.62
		C357.34,149.46,353.66,152.48,349.58,152.83z"/>
	<path class="st8" d="M530.98,148.92c-3.61-0.12-13.04-6.66-12.86-8.92c0.28-3.6,9.76-10.83,13.89-10.59
		c5.27,0.3,9.34,4.59,9.28,9.78C541.22,144.96,536.82,149.12,530.98,148.92z"/>
	<path class="st9" d="M343.56,203.76c-0.26,1-0.53,2-0.79,3c-2.44,0.22-4.78,1.24-7.34,0.4c-4.37-1.42-7.21-4.24-7.56-8.82
		c-0.33-4.35,1.84-7.72,5.73-9.63c3.97-1.95,7.71-1.2,11.01,1.75c0.97,0.87,1.95,1.74,2.92,2.6c0.29,3.42,4.43,7.6-1.92,9.71
		c-0.24-0.06-0.45-0.17-0.64-0.32c-1.91-0.84-1.65-2.52-1.79-4.18c-0.33-3.96-2.59-6.16-5.87-5.78c-3.01,0.35-4.86,2.05-4.79,5.21
		c0.07,3.27,3,5.4,7,5.14C341,202.74,342.47,202.28,343.56,203.76z"/>
	<path class="st10" d="M345.61,202.78c1.61-1.54,2.78-3.11,1.44-5.51c-0.78-1.39,0.02-2.83,0.48-4.21
		c2.03-4.38,4.06-8.77,6.09-13.16c0.1-1.53,0.9-2.55,2.3-3.14c1.16-0.29,2.23-0.14,3.16,0.66c0.57,0.64,0.86,1.4,0.91,2.26
		c-0.42,3.24-2.89,5.45-4.18,8.26c-1.71,3.72-3.59,7.27-3.62,11.62c-0.02,3.08-1.62,5.4-5.43,4.38
		C346.38,203.55,346,203.16,345.61,202.78z"/>
	<path class="st11" d="M516.06,166.72c-0.63-0.53-1.26-1.06-1.88-1.58c2.6-0.41,4.2-2.6,6.5-3.58c4.07-1.72,7.79-1.26,11.15,1.62
		c3.13,2.68,4.01,6.17,2.72,9.93c-1.36,3.99-3.82,7.03-8.66,6.81c-1.72,0.56-2.21-0.46-2.4-1.86c0.46-1.68,1.94-2.06,3.3-2.67
		c3.33-1.47,4.3-4.15,2.92-7.31c-1.41-3.23-4.32-3.14-7.22-2.28C520.39,166.44,518.5,168.48,516.06,166.72z"/>
	<path class="st12" d="M355.7,178.27c-0.69,0.55-1.39,1.09-2.08,1.64c-5.03-0.16-8.01-2.93-8.93-7.66
		c-0.87-4.51,0.86-8.29,4.9-10.48c4.25-2.31,8.29-1.4,11.82,1.9c0.95,0.89,2.01,1.65,3.02,2.47c-0.67,0.84-1.33,1.67-2,2.5
		c-0.33,0.39-0.74,0.56-1.24,0.47c-1.4-0.31-2.04-1.59-3.07-2.38c-2.92-2.24-6.51-1.75-8.17,1.04c-1.59,2.68-0.62,5.78,2.4,7.48
		c0.99,0.56,2.22,0.68,2.98,1.67C355.57,177.34,355.7,177.79,355.7,178.27z"/>
	<path class="st13" d="M529.95,189.01c1.44-0.12,2.29-1.22,3.34-1.99c4.62-3.37,9.98-3.12,13.45,0.6c3.74,4.02,3.77,8.58,0.1,13.32
		c-0.82,0.36-1.37-0.05-1.85-0.65c-0.89-1.4-0.25-2.85-0.16-4.3c0.35-5.39-3.32-7.96-8.24-5.77c-1.62,0.72-3,2.1-5.01,1.63
		C530.36,191.3,529.33,190.63,529.95,189.01z"/>
	<path class="st14" d="M340.67,240.68c0.01,1.28-0.28,2.45-1.27,3.35c-6.18-7.62-6.13-17.13,0.15-24.36
		c0.12,0.12,0.22,0.26,0.31,0.4c0.7,1.45,0.28,2.98,0.34,4.47c-1.02,4-2.53,7.98-0.68,12.14C339.93,238,339.95,239.44,340.67,240.68
		z"/>
	<path class="st15" d="M539.69,222.03c0.03-1.1,0.07-2.2,0.1-3.29c6.57,7.64,6.59,16.99,0.05,25.23l-0.14-0.17
		c-0.95-2.05-0.41-4.09,0.02-6.14c1.61-4,1.22-7.99,0.01-11.99C539.86,224.44,538.76,223.25,539.69,222.03z"/>
	<path class="st16" d="M529.95,189.01c0.23,0.96,0.94,1.47,1.76,1.88c0.37,0.37,0.52,0.82,0.48,1.34c-0.43,1.34-1.31,2.15-2.74,2.3
		c-1.42-0.05-2.28-1.08-3.26-1.9c-1.83-4.79-6.3-8.39-6.33-14.01c0.63-1.38,1.69-1.89,3.16-1.53c0.51,0.21,0.84,0.57,1,1.1
		c0.62,0.58,1.25,1.16,1.87,1.75C526.37,183.35,529.05,185.78,529.95,189.01z"/>
	<path class="st17" d="M545.72,199.81c0.38,0.38,0.75,0.75,1.13,1.13c-2.86,3.8-6.86,3.55-10.93,3.09c-0.02-0.75-0.05-1.5-0.07-2.25
		C538.66,198.71,542.13,198.94,545.72,199.81z"/>
	<path class="st2" d="M520.68,178.9c2.98,3.98,5.32,8.32,7.24,12.89c0.16,2.95,1.07,5.63,2.89,7.98c5.55,13.03,7.18,26.78,5.51,40.6
		c-5,41.35-27.26,69.4-66.52,83.63c-6.07,2.2-12.38,3.88-18.96,3.91c-3.97,1.21-8.1-0.23-12.08,0.79c-0.34-0.01-0.68-0.02-1.01-0.03
		c-6.62-1.5-13.46-2.18-19.8-4.73c-27.48-11.07-46.73-30.49-56.5-58.4c-12.08-34.54-6.52-66.79,15.95-95.58
		c10.55-13.52,23.69-24.44,40.33-30.01c10.41-3.49,21.18-5.57,32.31-4.19c23.46,2.11,43.01,12.29,59.46,28.84
		c1.25,1.26,2.12,2.9,3.17,4.37C516.95,170.96,519.51,174.37,520.68,178.9z"/>
	<path class="st4" d="M450.02,135.75c-20.62,0.01-38.97,6.91-54.82,19.65c-20.07,16.12-32.73,36.96-36.36,62.77
		c-3.78,26.87,2.7,51.19,19.01,72.76c13.52,17.88,31.52,29.21,53.1,35.01c2.34,0.63,5.06,0.49,6.78,2.72
		c-27.03-0.46-50.02-10.59-68.29-30.25c-25.14-27.06-31.97-58.93-22.67-94.47c4.2-1.47,2.22-5.23,3.14-7.96
		c1.97-5.88,4.64-11.54,8.65-16.42c3.06-2.19,5.75-4.63,6.11-8.71c21.88-26.26,50.03-37.71,83.94-35.54
		C449.09,135.33,449.55,135.59,450.02,135.75z"/>
	<path class="st18" d="M343.56,203.76c-1.08,0.4-2.16,0.81-3.25,1.19c-4.11,1.44-7.19-0.22-9.31-3.59c-1.99-3.17-1.44-6.4,1.15-9.08
		c2.74-2.84,6.13-3.4,9.48-1.41c3.15,1.88,5.16,4.64,3.9,8.7c-0.29,0.93-0.38,1.92-0.56,2.88
		C344.5,202.89,344.03,203.32,343.56,203.76z"/>
	<path class="st19" d="M545.72,199.81c-2.91,2.56-6.35,2.49-9.87,1.96c-0.38-0.37-0.75-0.75-1.13-1.12
		c-1.88-2.63-4.39-5.03-3.16-8.78c0.05-0.33,0.1-0.66,0.15-0.99c0.41-0.26,0.89-0.46,1.22-0.8c3.38-3.53,7.33-4.82,11.43-1.72
		C548.49,191.48,548.18,195.64,545.72,199.81z"/>
	<path class="st20" d="M531.56,191.88c1.05,2.93,2.11,5.85,3.16,8.78c-1.32-0.96-2.63-1.91-3.95-2.87c-2.08-0.76-2.4-2.08-1.24-3.88
		C530.21,193.23,530.89,192.55,531.56,191.88z"/>
	<path class="st21" d="M540.65,224.99c1.36,4.24,1.54,8.48,0,12.71c-1.81,0.21-1.44-0.86-1.12-1.9c0.01-2.63,0.01-5.26,0.02-7.89
		C539.56,226.81,538.15,225.17,540.65,224.99z"/>
	<path class="st22" d="M338.76,237.83c-1.2-4.39-1.99-8.74,0.96-12.82c0.85,1.27,0.59,2.6,0.2,3.93c0.01,2.27,0.02,4.54,0.03,6.81
		C340.21,236.82,340.64,237.98,338.76,237.83z"/>
	<path class="st23" d="M529.54,193.91c0.01,1.42,0.45,2.7,1.24,3.88c0.01,0.66,0.02,1.32,0.03,1.99c-3.43-1.76-5.71-3.95-2.89-7.98
		C528.45,192.5,528.99,193.2,529.54,193.91z"/>
	<path class="st4" d="M438.74,328.69c3.94-1.56,8.05-0.69,12.08-0.79C446.87,329.28,442.8,328.8,438.74,328.69z"/>
	<path class="st24" d="M339.92,228.94c-0.07-1.31-0.13-2.62-0.2-3.93c0.05-1.65,0.09-3.3,0.14-4.94
		C341.2,223.01,341,225.97,339.92,228.94z"/>
	<path class="st25" d="M539.54,235.81c0.37,0.63,0.74,1.27,1.12,1.9c-0.62,1.98-1.2,3.96-0.95,6.08
		C538.2,241.16,538.46,238.49,539.54,235.81z"/>
	<path class="st26" d="M540.65,224.99c-1.35,0.61-0.62,1.99-1.09,2.93c-0.8-1.98-1.5-3.97,0.13-5.9
		C540.01,223.01,540.33,224,540.65,224.99z"/>
	<path class="st27" d="M338.76,237.83c1.03-0.33,0.84-1.36,1.19-2.08c0.85,1.55,0.77,3.24,0.72,4.93
		C339.64,239.99,338.96,239.07,338.76,237.83z"/>
	<path class="st28" d="M546.23,300.01c-1.22,0.07-2.32-0.24-3.13-1.18c-2.26-2.62-4.61-5.18-6.67-7.96
		c-1.54-2.09-1.47-4.48,0.66-6.2c2.12-1.72,4.46-1.3,6.21,0.63c2.32,2.55,4.64,5.19,6.49,8.09
		C551.83,296.58,549.84,299.96,546.23,300.01z"/>
	<path class="st28" d="M547.24,273.74c3.05,0.14,10.77,9.12,10.57,12.25c-0.11,1.64-0.85,2.96-2.3,3.6c-1.79,0.8-3.65,0.7-5.05-0.87
		c-2.33-2.6-4.64-5.23-6.83-7.94c-1.26-1.57-1.31-3.38-0.19-5.11C544.32,274.31,545.58,273.61,547.24,273.74z"/>
	<path class="st29" d="M531.31,289.85c1.34-0.2,1.59,0.97,2.1,1.74c2.28,3.48,5.01,6.56,7.88,9.55c0.76,0.79,2.8,1.1,1.54,2.98
		c-0.79,1.18-1.89,1.76-3.34,1.79c-3.38,0.07-11.44-9.4-10.86-12.8C528.9,291.58,530.25,289.94,531.31,289.85z"/>
	<path class="st30" d="M351.15,296.72c0.05,1.8-0.79,3.16-2.2,4.19c-2.4,1.75-4.77,3.53-7.24,5.18c-2.37,1.58-4.83,1.58-6.55-0.84
		c-1.55-2.18-0.99-4.52,1.06-6.16c2.57-2.06,5.19-4.11,8.04-5.74C347.62,291.43,350.98,293.23,351.15,296.72z"/>
	<path class="st28" d="M341.69,288.96c0.04,1.71-1.04,2.77-2.24,3.7c-2.36,1.84-4.73,3.67-7.18,5.39c-2.35,1.65-4.74,1.72-6.59-0.73
		c-1.73-2.29-1-4.51,1.05-6.15c2.59-2.09,5.22-4.19,8.09-5.83C338.15,283.45,341.74,285.51,341.69,288.96z"/>
	<path class="st31" d="M356.56,304.22c-0.08,1.33-0.59,2.42-1.52,3.14c-2.88,2.22-5.75,4.48-8.81,6.44
		c-2.32,1.49-4.68,0.8-5.99-1.53c-1.64-2.91,1.62-2.51,2.79-3.43c2.85-2.26,5.82-4.39,8.74-6.56c0.95-0.7,1.42-2.59,3.14-1.4
		C356.07,301.67,356.46,302.95,356.56,304.22z"/>
	<path class="st2" d="M425.83,132.82c-0.02-3.66-0.22-7.33-0.02-10.98c0.43-8.05,6.84-14.03,14.71-13.94
		c7.79,0.09,13.98,6.32,14.18,14.43c0.1,3.82-0.05,7.65-0.08,11.47c-7.32-2.62-14.88-1.91-22.4-1.53
		C430.09,132.38,427.96,132.64,425.83,132.82z"/>
	<path class="st32" d="M516.06,166.72c1.14-0.66,2.33-1.25,3.41-2c3.47-2.39,7.03-3.07,10.6-0.41c2.88,2.14,3.48,5.26,2.5,8.51
		c-1.24,4.14-4.55,5.41-8.56,5.35c0,0-0.43-0.17-0.43-0.17c-3.92-2.56-8-5-7.95-10.56C515.83,167.24,515.97,166.99,516.06,166.72z"
		/>
	<path class="st33" d="M515.65,167.45c2.65,3.52,5.3,7.04,7.95,10.56c-1.05,0.05-2.18-0.19-2.92,0.88
		c-3.85-2.37-6.17-5.97-8.03-9.94C513.65,168.46,514.65,167.96,515.65,167.45z"/>
	<path class="st34" d="M361.78,168.74c0.22,0,0.44-0.03,0.65-0.1c0.22,1.08,0.43,2.16,0.65,3.24c0.27,0.38,0.47,0.79,0.6,1.24
		c0.01,1.78-1.26,2.9-2.16,4.21c-0.83,0.57-1.73,0.52-2.65,0.32c-1.05,0.21-2.11,0.42-3.16,0.62c-0.07-0.17-0.16-0.32-0.27-0.46
		C354.97,173.06,357.06,170.07,361.78,168.74z"/>
	<path class="st35" d="M358.87,177.65c0.62-0.29,1.23-0.59,1.85-0.88c1.23-1.01,2.48-2,2.23-3.86c0.04-0.34,0.09-0.69,0.13-1.03
		c0.53-0.34,1.06-0.69,1.6-1.03c2.16,7.65,3.02,6.36-6.11,8.71C358.67,178.92,358.77,178.28,358.87,177.65z"/>
	<path class="st36" d="M348.97,134.97c3.7-0.03,10.57,6.73,10.33,10.17c-0.12,1.69-7.6,5.63-10.55,5.55
		c-3.94-0.1-7.59-3.77-7.69-7.71C340.96,138.89,344.79,135,348.97,134.97z"/>
	<path class="st36" d="M539.35,139.27c-0.09,4.36-3.7,7.77-8.09,7.64c-3.01-0.09-10.17-4.87-10.29-6.88
		c-0.16-2.65,7.2-8.79,10.49-8.75C535.73,131.32,539.43,135.08,539.35,139.27z"/>
	<path class="st19" d="M361.78,168.74c-2.11,3.02-4.23,6.05-6.34,9.07c-5.46,0.09-8.29-1.94-8.75-6.44
		c-0.42-4.15,1.35-7.13,5.33-8.4C356.42,161.56,359.93,163.75,361.78,168.74z"/>
	<path class="st37" d="M365.32,230.81c0.29-41.23,33.66-74.3,74.62-73.95c40.75,0.35,73.89,33.9,73.61,74.52
		c-0.27,40.79-33.7,73.83-74.49,73.61C398.06,304.78,365.03,271.55,365.32,230.81z"/>
	<path class="st38" d="M437.73,123.48c-0.41,2.02-1.52,3.41-3.68,3.25c-2.1-0.16-3.37-1.55-3.12-3.67c0.21-1.75,1.4-3.19,3.31-3.07
		C436.19,120.13,437.62,121.25,437.73,123.48z"/>
	<path class="st1" d="M449.98,122.55c0.01,2.07-0.94,3.36-2.86,3.53c-2.17,0.2-3.39-0.86-3.39-3.2c0-2.06,0.87-3.01,2.97-3.04
		C448.72,119.82,449.79,120.68,449.98,122.55z"/>
	<path class="st39" d="M362.95,172.9c1.6,2.64,0.64,3.8-2.23,3.86C360.86,175.13,361.99,174.07,362.95,172.9z"/>
	<path class="st40" d="M465.85,296.95c-1.27,0.76-1.86,0.26-1.83-1.08c0.11-4.53-1.17-8.52-4.43-11.78
		c-1.38-1.38-0.88-3.09-0.88-4.72c0.03-12.34-8.84-21.1-20.69-20.44c-11.42,0.63-19.37,10.43-18,22.42
		c0.24,2.12,0.27,3.92-1.22,5.53c-2.9,3.14-1.13,7.59-3.08,11c-2.22-4.29-6.13-6.77-9.86-9.57c-31.46-23.7-27.27-73.53,7.66-91.9
		c5.25-2.76,6.89-2.37,9.07,2.13c0,2.95-0.38,5.92,0.44,8.84c3.14,8.94,10.28,13.37,19.32,11.98c8.51-1.31,14.01-8.08,14.06-17.33
		c0-0.67-0.03-1.33-0.03-2c0.01-5.08,2.26-6.58,6.99-4.38c8.18,3.81,14.85,9.66,20.14,16.8c16.07,21.72,13.91,51.67-4.96,70.92
		c-2.77,2.83-5.91,5.36-9.17,7.68c-1.32,0.94-2.89,1.78-3.08,3.7C466.18,295.49,465.99,296.21,465.85,296.95z"/>
	<path class="st41" d="M465.85,296.95c-0.3-0.33-0.61-0.67-0.91-1c1.31-3.13,4.24-4.61,6.73-6.48c33.54-25.14,29.25-75.1-8.1-94.02
		c-0.74-0.38-1.47-0.82-2.27-1.03c-2.19-0.6-4.64-2.66-6.56-1.09c-1.98,1.62,0.31,3.95,0.77,5.94c1.93,8.34-3.26,16.81-11.88,19.21
		c-8.43,2.35-17.22-2.41-19.82-10.73c-1.07-3.42-1.23-6.8-0.14-10.29c0.4-1.3,1.92-2.83,0.43-4.13c-1.48-1.28-3.22-0.19-4.71,0.38
		c-8.69,3.37-16.29,8.43-22.13,15.73c-20.72,25.91-16.35,60.19,10.1,80.25c1.58,1.2,3.48,2.11,4.32,4.03
		c0.4,0.91,1.16,2.35-1.02,2.24c-23.64-10.54-37.71-28.88-41.61-54.13c-5.81-37.62,17.6-71.43,54.49-80.31
		c39.79-9.57,80.58,18.28,86.26,58.91C514.46,253.76,495.88,286.1,465.85,296.95z"/>
	<path class="st42" d="M410.65,295.96c-0.71-2.99-3.69-3.6-5.68-5.11c-29.22-22.3-30.95-64.82-3.34-89.24
		c5.88-5.2,12.72-9.08,20.35-11.35c1.98-0.59,3.81-1.16,5.44,0.82c1.56,1.9,0.47,3.39-0.46,4.98c-3.21,5.46-2.08,10.8,1.37,15.42
		c3.3,4.41,8.18,6.2,13.77,5.01c5.93-1.26,9.63-4.9,11.19-10.8c0.93-3.49-0.12-6.57-1.5-9.64c-0.71-1.57-2.43-2.89-0.77-4.92
		c1.81-2.21,3.81-1.43,5.89-0.71c22.12,7.72,35.43,23.27,39.12,46.22c3.89,24.19-7.3,45.02-27.42,57.74
		c-1.11,0.7-2.44,1.05-3.66,1.57c-0.75-3.43,0.82-5.46,3.62-7.4c24.98-17.29,30.8-49.5,13.35-74.3
		c-5.15-7.31-12.01-12.85-20.07-16.87c-2.89-1.44-3.55-1.1-3.29,2.37c1.06,14.36-7.49,22.96-21.56,22.08
		c-7.64-0.48-14.34-6.23-16.25-13.96c-0.79-3.01-0.78-6.03-0.01-9.04c-0.3-3.74-2.44-2.26-4.15-1.36
		c-15.1,7.94-25.39,19.92-28.56,36.83c-4.35,23.27,3.9,41.7,23.45,54.91c3.39,2.29,4.69,4.86,4.23,8.66
		C413.79,297.87,412.15,297.08,410.65,295.96z"/>
	<path class="st43" d="M434.76,301.92c-2.95,0.22-6.35-0.59-9.77-1.17c-5.78-0.98-6.38-1.92-5.4-7.9c0.91-5.55,5.45-9.58,10.93-9.7
		c5.24-0.11,10,3.56,11.28,8.73c0.24,0.96,0.35,1.96,0.42,2.94C442.8,302.22,442.79,302.22,434.76,301.92z"/>
	<path class="st43" d="M461.47,296.52c-0.04,0.23,0.03,1.15-0.35,1.81c-0.82,1.41-14.04,4.11-15.32,3.23
		c-1.19-0.81-0.77-2.09-0.79-3.19c-0.07-3.66,0.12-7.33-1.77-10.69c-1.31-2.33,0.69-2.92,2.13-3.56
		C453.27,280.6,461.57,286.71,461.47,296.52z"/>
	<path class="st44" d="M420.73,198.83c0,3.01,0,6.03,0.01,9.04C419.23,204.86,419.24,201.84,420.73,198.83z"/>
</g>
</svg>
