<svg height="512" viewBox="0 0 512 512" width="512" xmlns="http://www.w3.org/2000/svg"><g><g><g><path d="m496 384v28a19.994 19.994 0 0 1 -20 20h-440a19.994 19.994 0 0 1 -20-20v-28z" fill="#e0e0e2"/><path d="m496 116v268h-480v-268a19.994 19.994 0 0 1 20-20h440a19.994 19.994 0 0 1 20 20z" fill="#83d8f4"/><path d="m312 472h-112l8-40h96z" fill="#787680"/><path d="m160 472h192v24h-192z" fill="#e0e0e2"/></g><path d="m368 36v120a20 20 0 0 1 -20 20h-68l-24 48-24-48h-68a20 20 0 0 1 -20-20v-120a20 20 0 0 1 20-20h184a20 20 0 0 1 20 20z" fill="#ff9811"/><path d="m216 256h80v80h-80z" fill="#ffda44"/></g><g><path d="m476 88h-100v-52a28.031 28.031 0 0 0 -28-28h-184a28.031 28.031 0 0 0 -28 28v52h-100a28.031 28.031 0 0 0 -28 28v296a28.031 28.031 0 0 0 28 28h162.24l-4.8 24h-33.44a8 8 0 0 0 -8 8v24a8 8 0 0 0 8 8h192a8 8 0 0 0 8-8v-24a8 8 0 0 0 -8-8h-33.44l-4.8-24h162.24a28.031 28.031 0 0 0 28-28v-296a28.031 28.031 0 0 0 -28-28zm-324-52a12.01 12.01 0 0 1 12-12h184a12.01 12.01 0 0 1 12 12v120a12.01 12.01 0 0 1 -12 12h-68a8.011 8.011 0 0 0 -7.16 4.42l-16.84 33.69-16.84-33.69a8.011 8.011 0 0 0 -7.16-4.42h-68a12.01 12.01 0 0 1 -12-12zm192 444v8h-176v-8zm-134.24-16 4.8-24h82.88l4.8 24zm278.24-52a12.01 12.01 0 0 1 -12 12h-440a12.01 12.01 0 0 1 -12-12v-20h464zm0-36h-464v-260a12.01 12.01 0 0 1 12-12h100v52a28.031 28.031 0 0 0 28 28h63.06l21.78 43.58a8.009 8.009 0 0 0 14.32 0l21.78-43.58h63.06a28.031 28.031 0 0 0 28-28v-52h100a12.01 12.01 0 0 1 12 12z"/><path d="m165.191 135.491a8 8 0 0 0 10.3-4.682l4.053-10.809h24.912l4.054 10.809a8 8 0 1 0 14.98-5.618l-24-64a8 8 0 0 0 -14.98 0l-24 64a8 8 0 0 0 4.681 10.3zm26.809-48.707 6.456 17.216h-12.912z"/><path d="m240 136h20a28.032 28.032 0 0 0 28-28v-24a28.032 28.032 0 0 0 -28-28h-20a8 8 0 0 0 -8 8v64a8 8 0 0 0 8 8zm8-64h12a12.013 12.013 0 0 1 12 12v24a12.013 12.013 0 0 1 -12 12h-12z"/><path d="m328 120h-24a8 8 0 0 0 0 16h24a24 24 0 0 0 0-48h-8a8 8 0 0 1 0-16h24a8 8 0 0 0 0-16h-24a24 24 0 0 0 0 48h8a8 8 0 0 1 0 16z"/><path d="m216 344h80a8 8 0 0 0 8-8v-80a8 8 0 0 0 -8-8h-80a8 8 0 0 0 -8 8v80a8 8 0 0 0 8 8zm8-80h64v64h-64z"/></g></g></svg>