<?xml version="1.0" encoding="utf-8"?>
<!-- Generator: Adobe Illustrator 24.1.2, SVG Export Plug-In . SVG Version: 6.00 Build 0)  -->
<svg version="1.1" id="Layer_1" xmlns="http://www.w3.org/2000/svg" xmlns:xlink="http://www.w3.org/1999/xlink" x="0px" y="0px"
	 viewBox="0 0 50 50" style="enable-background:new 0 0 50 50;" xml:space="preserve">
<style type="text/css">
	.st0{fill:#FFFFFF;}
</style>
<g>
	<g>
		<path class="st0" d="M39.6,31c-1-1.1-2.2-1.6-3.6-1.6c-1.3,0-2.5,0.6-3.6,1.6l-3.3,3.3c-0.3-0.1-0.5-0.3-0.8-0.4
			c-0.4-0.2-0.7-0.4-1-0.6c-3.1-2-5.9-4.6-8.6-7.9c-1.3-1.7-2.2-3.1-2.8-4.5c0.9-0.8,1.7-1.6,2.4-2.4c0.3-0.3,0.6-0.6,0.9-0.9
			c2.2-2.2,2.2-5.1,0-7.3l-2.9-2.9c-0.3-0.3-0.7-0.7-1-1c-0.6-0.7-1.3-1.3-2-2c-1-1-2.2-1.5-3.5-1.5S7.3,3.6,6.2,4.6c0,0,0,0,0,0
			L2.6,8.2c-1.3,1.3-2.1,3-2.3,4.9c-0.3,3.1,0.7,5.9,1.3,7.8c1.7,4.6,4.2,8.9,8,13.4c4.6,5.5,10.1,9.8,16.5,12.9
			c2.4,1.1,5.6,2.5,9.2,2.7c0.2,0,0.5,0,0.7,0c2.4,0,4.5-0.9,6.1-2.6c0,0,0,0,0-0.1c0.5-0.7,1.2-1.3,1.8-1.9
			c0.5-0.4,0.9-0.9,1.4-1.4c1-1.1,1.6-2.3,1.6-3.6c0-1.3-0.6-2.6-1.6-3.6L39.6,31z M43.4,42.1c-0.4,0.4-0.8,0.8-1.3,1.3
			c-0.7,0.7-1.4,1.3-2,2.1c-1.1,1.1-2.3,1.7-4,1.7c-0.2,0-0.3,0-0.5,0c-3.1-0.2-6-1.4-8.2-2.5c-5.9-2.9-11.2-7-15.5-12.2
			c-3.6-4.3-6-8.3-7.6-12.6c-1-2.6-1.3-4.7-1.2-6.6c0.1-1.2,0.6-2.2,1.5-3.1l3.6-3.6c0.5-0.5,1.1-0.7,1.6-0.7c0.7,0,1.2,0.4,1.5,0.7
			c0,0,0,0,0,0c0.6,0.6,1.3,1.2,1.9,1.9c0.3,0.3,0.7,0.7,1,1l2.9,2.9c1.1,1.1,1.1,2.1,0,3.3c-0.3,0.3-0.6,0.6-0.9,0.9
			c-0.9,0.9-1.7,1.7-2.6,2.6c0,0,0,0-0.1,0.1c-0.9,0.9-0.7,1.8-0.5,2.4c0,0,0,0.1,0,0.1c0.7,1.8,1.8,3.5,3.4,5.5l0,0
			c2.9,3.6,6,6.4,9.3,8.5c0.4,0.3,0.9,0.5,1.3,0.7c0.4,0.2,0.7,0.4,1,0.6c0,0,0.1,0.1,0.1,0.1c0.4,0.2,0.7,0.3,1,0.3
			c0.9,0,1.4-0.5,1.6-0.7l3.6-3.6c0.4-0.4,0.9-0.8,1.6-0.8c0.7,0,1.2,0.4,1.5,0.8c0,0,0,0,0,0l5.8,5.8C44.4,39.9,44.4,41,43.4,42.1z
			 M27.2,12c2.8,0.5,5.3,1.8,7.3,3.8c2,2,3.3,4.5,3.8,7.3c0.1,0.7,0.7,1.2,1.4,1.2c0.1,0,0.2,0,0.2,0c0.8-0.1,1.3-0.9,1.2-1.6
			c-0.6-3.3-2.1-6.4-4.6-8.8c-2.4-2.4-5.4-4-8.8-4.6c-0.8-0.1-1.5,0.4-1.6,1.2C25.9,11.2,26.4,11.9,27.2,12z M50,22.2
			c-0.9-5.5-3.5-10.5-7.5-14.5c-4-4-9-6.6-14.4-7.5c-0.8-0.1-1.5,0.4-1.6,1.2c-0.1,0.8,0.4,1.5,1.2,1.6c4.9,0.8,9.4,3.2,12.9,6.7
			c3.6,3.6,5.9,8,6.7,12.9c0.1,0.7,0.7,1.2,1.4,1.2c0.1,0,0.2,0,0.2,0C49.6,23.7,50.1,22.9,50,22.2z"/>
	</g>
</g>
</svg>
