<svg fill="#3676a9" height="512" viewBox="0 0 64 64" width="512" xmlns="http://www.w3.org/2000/svg"><g id="Marketing"><path d="m35.13 44h-7.59l-2.67 4h7.59z"/><path d="m52.46 44h-13.59l2.67 4h13.59z"/><path d="m53 50h-12a1 1 0 0 1 -.83-.45l-2.17-3.25v13.7h15z"/><path d="m33 50h-6v10h9v-13.7l-2.17 3.25a1 1 0 0 1 -.83.45z"/><path d="m53 40a1 1 0 0 1 -1-1v-6a1 1 0 0 1 2 0v6a1 1 0 0 1 -1 1z"/><path d="m59.94 10.08a7.015 7.015 0 0 0 -6.12-6.03 7 7 0 0 0 -7.82 6.95 7.02 7.02 0 0 0 3.48 6.05 3.041 3.041 0 0 1 1.52 2.6v.35h1v-7a1 1 0 0 1 2 0v7h1v-.35a3.024 3.024 0 0 1 1.5-2.59 7.018 7.018 0 0 0 3.44-6.98zm-5.94-1.08a1 1 0 0 1 -2 0v-1a1 1 0 0 1 2 0z"/><path d="m54 26h-2v1a1 1 0 0 0 2 0z"/><path d="m50 22h6v2h-6z"/><path d="m9 15c-.21 0-.4.04-.61.06l2.73 8.16.84-5.06-1.58-3.16z"/><path d="m14.38 17 1-2h-2.76l1 2z"/><path d="m4 20v11h7.61l-5.11-15.3a4.964 4.964 0 0 0 -2.5 4.3z"/><path d="m13.85 19-1.37 8.28 1.24 3.72h.56l1.24-3.72-1.37-8.28z"/><path d="m21.5 15.7-5.11 15.3h7.61v-11a4.964 4.964 0 0 0 -2.5-4.3z"/><path d="m19.61 15.06c-.21-.02-.4-.06-.61-.06h-1.38l-1.58 3.16.84 5.06z"/><circle cx="14" cy="8" r="4"/><path d="m42 7h-19a1 1 0 0 0 0 2h19a1 1 0 0 0 0-2z"/><path d="m22 56h-8a1 1 0 0 1 -1-1v-19a1 1 0 0 1 2 0v18h7a1 1 0 0 1 0 2z"/></g></svg>