<svg id="Layer_3" fill="#3676a9" enable-background="new 0 0 64 64" height="512" viewBox="0 0 64 64" width="512" xmlns="http://www.w3.org/2000/svg"><g><g><path d="m17.312 46.102 5.102-5.102h1.172l1.414 1.414v1.172l-1.414 1.414h-2.586c-.265 0-.52.105-.707.293l-1.795 1.795c-.409-.313-.804-.642-1.186-.986zm2.868 2.132 1.234-1.234h2.586c.265 0 .52-.105.707-.293l2-2c.188-.187.293-.442.293-.707v-2c0-.265-.105-.52-.293-.707l-2-2c-.187-.188-.442-.293-.707-.293h-2c-.265 0-.52.105-.707.293l-5.395 5.395c-3.034-3.368-4.898-7.809-4.898-12.688 0-3.596 1.023-6.95 2.766-9.82l.527.527c.187.188.442.293.707.293h3c.265 0 .52-.105.707-.293l2.707-2.707h3.586c.265 0 .52-.105.707-.293l1.707-1.707h1.586v32.949c-3.217-.168-6.219-1.135-8.82-2.715zm8.82-35.183v2.949h-2c-.265 0-.52.105-.707.293l-1.707 1.707h-3.586c-.265 0-.52.105-.707.293l-2.707 2.707h-2.172l-.502-.502c3.284-4.297 8.348-7.146 14.088-7.447z"/><path d="m9.198 14.08-1.571-1.237c-.425.539-.837 1.101-1.226 1.669l1.65 1.13c.364-.532.749-1.058 1.147-1.562z"/><path d="m7.01 17.276-1.723-1.016c-.352.596-.686 1.208-.993 1.818l1.786.899c.292-.578.602-1.145.93-1.701z"/><path d="m5.267 20.738-1.843-.776c-.268.635-.517 1.286-.741 1.937l1.891.651c.21-.609.443-1.218.693-1.812z"/><path d="m14.74 8.693-1.191-1.606c-.554.411-1.099.844-1.621 1.288l1.296 1.523c.488-.415.998-.82 1.516-1.205z"/><path d="m17.994 6.601-.967-1.751c-.602.332-1.2.689-1.777 1.061l1.083 1.682c.54-.348 1.099-.682 1.661-.992z"/><path d="m25.19 3.804-.467-1.944c-.668.16-1.34.346-1.997.552l.598 1.908c.614-.193 1.242-.366 1.866-.516z"/><path d="m11.791 11.2-1.396-1.433c-.495.483-.978.985-1.435 1.491l1.486 1.339c.433-.48.882-.946 1.345-1.397z"/><path d="m21.497 4.96-.724-1.864c-.639.248-1.278.521-1.902.813l.849 1.812c.582-.273 1.18-.529 1.777-.761z"/><path d="m57.84 18.823 1.782-.908c-.311-.609-.648-1.218-1.003-1.811l-1.716 1.027c.332.554.647 1.123.937 1.692z"/><path d="m55.854 15.504 1.644-1.14c-.392-.565-.808-1.125-1.234-1.661l-1.564 1.246c.401.505.786 1.024 1.154 1.555z"/><path d="m59.365 22.376 1.887-.663c-.227-.645-.479-1.292-.751-1.926l-1.838.788c.254.592.49 1.198.702 1.801z"/><path d="m60.4 26.105 1.959-.404c-.139-.673-.303-1.35-.487-2.013l-1.927.535c.173.62.326 1.254.455 1.882z"/><path d="m60.928 29.942 1.995-.141c-.049-.69-.121-1.383-.213-2.059l-1.981.272c.087.636.153 1.279.199 1.928z"/><path d="m29.006 3.153-.204-1.989c-.686.07-1.376.164-2.051.279l.337 1.972c.631-.108 1.276-.196 1.918-.262z"/><path d="m41.085 2.353c-.661-.202-1.333-.383-1.999-.539l-.455 1.947c.623.146 1.251.315 1.87.504z"/><path d="m37.056 1.411c-.679-.111-1.37-.201-2.053-.267l-.191 1.991c.646.062 1.287.146 1.921.25z"/><path d="m51.937 8.261c-.527-.442-1.075-.873-1.629-1.279l-1.183 1.613c.522.382 1.03.782 1.524 1.197z"/><path d="m54.921 11.128c-.464-.509-.95-1.008-1.444-1.483l-1.386 1.442c.463.444.917.912 1.352 1.388z"/><path d="m44.958 3.83c-.629-.289-1.272-.56-1.91-.803l-.713 1.868c.606.231 1.203.483 1.788.752z"/><path d="m48.597 5.812c-.581-.369-1.182-.723-1.786-1.052l-.956 1.757c.565.308 1.127.639 1.67.983z"/><path d="m44.227 58.304.843 1.813c.617-.287 1.238-.602 1.846-.935l-.964-1.753c-.568.313-1.148.607-1.725.875z"/><path d="m28.933 62.85c.682.067 1.376.112 2.065.134l.063-1.999c-.65-.021-1.294-.063-1.934-.125z"/><path d="m47.616 56.441 1.079 1.684c.579-.371 1.152-.766 1.704-1.173l-1.188-1.608c-.52.383-1.051.749-1.595 1.097z"/><path d="m50.73 54.141 1.292 1.526c.524-.444 1.041-.911 1.535-1.389l-1.391-1.438c-.464.45-.943.883-1.436 1.301z"/><path d="m36.854 60.596.33 1.973c.676-.113 1.359-.252 2.03-.412l-.464-1.945c-.627.149-1.266.278-1.896.384z"/><path d="m30.867 1.02.072 1.999c.34-.013.682-.019 1.025-.019.315.001.609.004.912.013l.062-1.999c-.312-.01-.625-.014-.937-.014-.378 0-.757.007-1.134.02z"/><path d="m33 60.983.066 1.999c.687-.023 1.382-.069 2.066-.138l-.2-1.99c-.639.064-1.289.107-1.932.129z"/><path d="m40.618 59.698.595 1.909c.657-.204 1.314-.433 1.955-.68l-.721-1.866c-.599.231-1.215.446-1.829.637z"/><path d="m53.513 51.448 1.483 1.342c.461-.51.911-1.042 1.337-1.581l-1.569-1.24c-.401.506-.818 1-1.251 1.479z"/><path d="m60.425 37.774 1.961.396c.135-.671.25-1.358.341-2.042l-1.982-.265c-.086.644-.192 1.282-.32 1.911z"/><path d="m61 31.874v.126c0 .65-.021 1.296-.063 1.936l1.996.133c.044-.681.067-1.377.067-2.069v-.126z"/><path d="m59.406 41.507 1.89.656c.225-.647.431-1.313.613-1.978l-1.93-.527c-.17.621-.363 1.243-.573 1.849z"/><path d="m55.915 48.409 1.648 1.132c.39-.567.765-1.154 1.116-1.745l-1.72-1.021c-.33.557-.679 1.102-1.044 1.634z"/><path d="m57.892 45.077 1.785.902c.312-.618.606-1.25.873-1.88l-1.841-.781c-.251.59-.525 1.181-.817 1.759z"/><path d="m10.477 54.31c.493.477 1.01.943 1.537 1.388l1.29-1.528c-.493-.416-.977-.853-1.438-1.298z"/><path d="m4.039 39.718-1.929.53c.181.659.389 1.324.616 1.977l1.889-.659c-.213-.61-.407-1.232-.576-1.848z"/><path d="m5.314 43.37-1.841.783c.268.628.562 1.259.875 1.875l1.782-.907c-.292-.575-.567-1.164-.816-1.751z"/><path d="m7.065 46.816-1.718 1.024c.351.589.727 1.175 1.117 1.741l1.646-1.136c-.364-.529-.714-1.073-1.045-1.629z"/><path d="m9.264 50.003-1.567 1.242c.427.539.877 1.069 1.339 1.578l1.481-1.344c-.434-.478-.852-.97-1.253-1.476z"/><path d="m3.264 35.926-1.982.268c.092.681.208 1.368.346 2.041l1.96-.399c-.13-.631-.238-1.274-.324-1.91z"/><path d="m3.248 28.197-1.983-.261c-.089.679-.157 1.373-.201 2.061l1.996.128c.041-.645.105-1.293.188-1.928z"/><path d="m3 32.06-2 .006c.002.691.026 1.387.073 2.068l1.995-.136c-.044-.641-.067-1.287-.068-1.938z"/><path d="m4.005 24.401-1.931-.523c-.179.662-.338 1.34-.473 2.016l1.961.392c.127-.633.276-1.267.443-1.885z"/><path d="m20.892 60.95c.643.247 1.303.475 1.961.678l.589-1.911c-.615-.189-1.231-.403-1.833-.634z"/><path d="m17.132 59.208c.607.332 1.23.646 1.85.933l.841-1.814c-.58-.269-1.163-.562-1.731-.874z"/><path d="m13.639 56.98c.556.409 1.13.803 1.709 1.172l1.075-1.687c-.541-.345-1.079-.713-1.598-1.096z"/><path d="m24.85 62.171c.671.158 1.354.295 2.03.407l.327-1.973c-.632-.105-1.271-.233-1.898-.381z"/><path d="m35 50.949v-1.535l1.414-1.414h2.586c.265 0 .52-.105.707-.293l2-2c.188-.187.293-.442.293-.707v-2h3c.265 0 .52-.105.707-.293l1.707-1.707h2.172l.713.713c-3.158 5.28-8.795 8.895-15.299 9.236zm15.299-28.662-1.713 1.713h-2.172l-1.414-1.414v-2.586c0-.265-.105-.52-.293-.707l-1.707-1.707v-2.313c3.023 1.633 5.539 4.072 7.299 7.014zm-9.299-7.934v3.647c0 .265.105.52.293.707l1.707 1.707v2.586c0 .265.105.52.293.707l2 2c.187.188.442.293.707.293h3c.265 0 .52-.105.707-.293l1.569-1.569c1.097 2.399 1.724 5.056 1.724 7.862s-.627 5.463-1.724 7.862l-.569-.569c-.187-.188-.442-.293-.707-.293h-3c-.265 0-.52.105-.707.293l-1.707 1.707h-3.586c-.552 0-1 .448-1 1v2.586l-1.414 1.414h-2.586c-.265 0-.52.105-.707.293l-.293.293v-33.535c2.109.11 4.127.556 6 1.302z"/></g><g><path d="m32 59c-14.888 0-27-12.112-27-27h2c0 13.785 11.215 25 25 25z"/></g><g><path d="m59 32h-2c0-13.785-11.215-25-25-25v-2c14.888 0 27 12.112 27 27z"/></g></g></svg>