<svg id="Layer_1" enable-background="new 0 0 50 50" viewBox="0 0 50 50" xmlns="http://www.w3.org/2000/svg"><path d="m45 1h-40c-2.2 0-4 1.8-4 4v40c0 2.2 1.8 4 4 4h40c2.2 0 4-1.8 4-4v-40c0-2.2-1.8-4-4-4z" fill="#c9151c"/><path id="P_2_" d="m26 10c-8.2 0-13 6.1-13 11 0 3 2 6 3 6s2 0 2-1-2-2-2-5c0-4.4 4.8-8 10-8 4.6 0 7 3.2 7 7 0 5-2.7 9-6 9-1.8 0-3.4-1.2-3-3 .5-2.2 1-2 2-6 .3-1.4-.4-3-2-3-1.8 0-4 1.4-4 4 0 1.6 1 3 1 3s-2.2 7.9-2.6 9.3c-.6 2.7-1.5 6.7-.5 6.7s2.1-2 4.1-7c.3-.7 1-3 1-3 .6 1.1 3.1 2 5 2 5.5 0 9-5.2 9-12 0-5.1-4.4-10-11-10z" fill="#fff"/></svg>