<svg height="512" viewBox="0 0 512 512" width="512" xmlns="http://www.w3.org/2000/svg"><g><g><path d="m72 16h368v192h-368z" fill="#d8d7da"/><path d="m96 40h320v144h-320z" fill="#ff9811"/><path d="m16 16h32v384h-32z" fill="#acabb1"/><path d="m464 16h32v384h-32z" fill="#acabb1"/><path d="m472 496h-433l97-256h239z" fill="#3e3d42"/><g fill="#d8d7da"><path d="m240 416h32v80h-32z"/><path d="m240 312h32v80h-32z"/><path d="m240 240h32v48h-32z"/></g></g><g><path d="m416 32h-320a8 8 0 0 0 -8 8v144a8 8 0 0 0 8 8h320a8 8 0 0 0 8-8v-144a8 8 0 0 0 -8-8zm-8 144h-304v-128h304z"/><path d="m496 8h-32a8 8 0 0 0 -8 8v88h-8v-88a8 8 0 0 0 -8-8h-368a8 8 0 0 0 -8 8v88h-8v-88a8 8 0 0 0 -8-8h-32a8 8 0 0 0 -8 8v384a8 8 0 0 0 8 8h32a8 8 0 0 0 8-8v-280h8v88a8 8 0 0 0 8 8h368a8 8 0 0 0 8-8v-88h8v280a8 8 0 0 0 8 8h32a8 8 0 0 0 8-8v-384a8 8 0 0 0 -8-8zm-456 384h-16v-368h16zm392-192h-352v-176h352zm56 192h-16v-368h16z"/><path d="m479.48 493.17-97-256a8 8 0 0 0 -7.48-5.17h-239a8 8 0 0 0 -7.48 5.17l-97 256a8 8 0 0 0 7.48 10.83h433a8 8 0 0 0 7.48-10.83zm-231.48-245.17h16v32h-16zm16 240h-16v-64h16zm16 0v-72a8 8 0 0 0 -8-8h-32a8 8 0 0 0 -8 8v72h-181.41l90.93-240h90.48v40a8 8 0 0 0 8 8h32a8 8 0 0 0 8-8v-40h89.48l90.93 240z"/><path d="m272 304h-32a8 8 0 0 0 -8 8v80a8 8 0 0 0 8 8h32a8 8 0 0 0 8-8v-80a8 8 0 0 0 -8-8zm-8 80h-16v-64h16z"/><path d="m165.191 151.49a8 8 0 0 0 10.3-4.681l4.052-10.809h24.914l4.053 10.809a8 8 0 0 0 14.98-5.618l-24-64a8 8 0 0 0 -14.98 0l-24 64a8 8 0 0 0 4.681 10.299zm26.809-48.706 6.456 17.216h-12.912z"/><path d="m240 152h20a28.032 28.032 0 0 0 28-28v-24a28.032 28.032 0 0 0 -28-28h-20a8 8 0 0 0 -8 8v64a8 8 0 0 0 8 8zm8-64h12a12.013 12.013 0 0 1 12 12v24a12.013 12.013 0 0 1 -12 12h-12z"/><path d="m328 136h-24a8 8 0 0 0 0 16h24a24 24 0 0 0 0-48h-8a8 8 0 0 1 0-16h24a8 8 0 0 0 0-16h-24a24 24 0 0 0 0 48h8a8 8 0 0 1 0 16z"/></g></g></svg>