<?xml version="1.0" encoding="utf-8"?>
<!-- Generator: Adobe Illustrator 26.0.1, SVG Export Plug-In . SVG Version: 6.00 Build 0)  -->
<svg version="1.1" id="Layer_1" xmlns="http://www.w3.org/2000/svg" xmlns:xlink="http://www.w3.org/1999/xlink" x="0px" y="0px"
	 viewBox="0 0 1754.1 1225.6" style="enable-background:new 0 0 1754.1 1225.6;" xml:space="preserve">
<style type="text/css">
	.st0{fill:#45A334;}
	.st1{fill:#B22828;}
	.st2{fill:#A50E0E;}
	.st3{fill:#048FFF;}
	.st4{fill:none;stroke:#282626;stroke-width:3;stroke-linecap:round;stroke-miterlimit:10;}
	.st5{fill:#FFA519;}
	.st6{fill:#FFF9F0;}
	.st7{fill:#EBEBEB;}
	.st8{fill:#CECECE;}
	.st9{clip-path:url(#SVGID_00000135656883621577296690000011243313266139082918_);fill:#E69C24;}
	.st10{clip-path:url(#SVGID_00000084499644204859927390000000187301633806508204_);fill:#E69C24;}
	.st11{clip-path:url(#SVGID_00000093165155172904694710000012517635249457715125_);fill:#E69C24;}
	
		.st12{clip-path:url(#SVGID_00000157309973860766159210000013451497206789360551_);fill:none;stroke:#282626;stroke-width:3;stroke-linecap:round;stroke-miterlimit:10;}
	.st13{fill:#FFFFFF;}
	.st14{fill:#E2F0FB;}
	.st15{fill:none;stroke:#FFA519;stroke-width:5;stroke-linecap:round;stroke-miterlimit:10;stroke-dasharray:12;}
	.st16{fill:#E69C24;}
	.st17{fill:none;stroke:#282626;stroke-width:3.0484;stroke-linecap:round;stroke-miterlimit:10;}
</style>
<g id="background">
</g>
<g id="illustrations">
	<g id="plant">
		<path class="st0" d="M281.6,1000.3l67.3-256.7c5.5-21.2,22.5-37.4,43.9-42l0,0c18.8-4,38.4,1.6,52.3,15l47.2,45.5l-36.6-9.6
			c-26.6-7-54.4,5.7-66.6,30.3L281.6,1000.3z"/>
		<path class="st0" d="M281.6,1003.2l-64.4-227.9c-7.7-27.3-25.3-50.7-49.2-65.8l0,0c-32.6-20.5-73.2-23.2-108.2-7.2L0,729.5
			l89.8,8.5c39.4,3.8,74.1,27.6,91.7,63.1L281.6,1003.2z"/>
		<path class="st0" d="M143,536.9l52.5,119.9c14.7,33.7,26.1,68.7,33.9,104.7l52.3,241.7V902.8C281.6,768,232.3,637.9,143,536.9
			L143,536.9z"/>
		<path class="st0" d="M281.6,1003.2l-36.4-113C220.9,814.5,133.9,779.5,63.9,817l0,0h31.7c44.1,0,85.1,22.8,108.3,60.3
			L281.6,1003.2z"/>
		<path class="st0" d="M287.3,627.7l-2.2,11.5c-11.5,59.2-15.8,119.5-12.8,179.8l9.3,184.2l46.6-210.6
			c9.1-40.9,14.6-82.6,16.7-124.5l0,0c2.4-49.5,48.1-85.5,96.8-76.2l24.3,4.6l-66.6-28.4C351.6,547.8,297.2,576.7,287.3,627.7z"/>
		<path class="st0" d="M335.8,903.5l-54.2,99.7l74.3-95.7c6.9-8.9,17.8-13.8,29-13l3.6,0.2l0,0C372.2,879.8,346.3,884.2,335.8,903.5
			z"/>
		<path class="st0" d="M164.5,903.7L164.5,903.7c22-2.2,43.6,6.9,57.3,24.2l59.7,75.2l-75.1-75.4c-5.4-5.4-11.6-9.8-18.5-13
			L164.5,903.7z"/>
		<polygon class="st1" points="357.1,1221.9 206.1,1221.9 185.7,1012.6 377.5,1012.6 		"/>
		<rect x="174.8" y="987.9" class="st2" width="213.7" height="24.7"/>
	</g>
	<g id="ornament">
		<polygon class="st3" points="1724.7,1087.2 1749.1,1080.8 1742.7,1105.2 		"/>
		<g>
			<line class="st4" x1="1688" y1="793" x2="1669.6" y2="793"/>
			<line class="st4" x1="1688" y1="793" x2="1669.6" y2="793"/>
			<line class="st4" x1="1678.8" y1="783.7" x2="1678.8" y2="802.2"/>
			<line class="st4" x1="1678.8" y1="783.7" x2="1678.8" y2="802.2"/>
		</g>
		<path class="st4" d="M1754.1,845.9c0.5,40.3-13,80.5-37.7,112.4c-24.7,31.8-60.3,55-99.4,64.5c-20.7,5.1-43.3,6.2-62.4-3.2
			c-19.1-9.4-32.8-31.8-26.9-52.2c7-24.5,40.5-34.7,62.5-22s30.9,42,24.6,66.7c-6.3,24.6-25.2,44.6-47,57.7s-62.2,18.8-77.6,13.8"/>
		<circle class="st5" cx="1522.6" cy="845.9" r="15"/>
	</g>
	<g id="envelope">
		<g>
			<path class="st6" d="M900.5,159.1L415.6,549.7c-9.4,7.6-14.9,19-14.9,31.2v604.3c0,22.1,17.9,40,40,40h969.9
				c22.1,0,40-17.9,40-40V580.9c0-12.1-5.5-23.6-14.9-31.2l-485-390.6C936,147.3,915.1,147.3,900.5,159.1z"/>
			<g>
				<path class="st7" d="M1355,1225.1H496.2c-6.6,0-12-5.4-12-12V255.2c0-6.6,5.4-12,12-12H1355c6.6,0,12,5.4,12,12v957.9
					C1367,1219.7,1361.6,1225.1,1355,1225.1z"/>
				<path class="st6" d="M1247.9,477.2H603.2c-4.4,0-8-3.6-8-8V363.1c0-4.4,3.6-8,8-8h644.7c4.4,0,8,3.6,8,8v106.1
					C1255.9,473.7,1252.3,477.2,1247.9,477.2z"/>
				<path class="st8" d="M1247.9,591.8H603.2c-4.4,0-8-3.6-8-8v-33c0-4.4,3.6-8,8-8h644.7c4.4,0,8,3.6,8,8v33
					C1255.9,588.2,1252.3,591.8,1247.9,591.8z"/>
				<path class="st8" d="M1247.9,706.3H603.2c-4.4,0-8-3.6-8-8v-33c0-4.4,3.6-8,8-8h644.7c4.4,0,8,3.6,8,8v33
					C1255.9,702.7,1252.3,706.3,1247.9,706.3z"/>
				<path class="st8" d="M1247.9,820.8H603.2c-4.4,0-8-3.6-8-8v-33c0-4.4,3.6-8,8-8h644.7c4.4,0,8,3.6,8,8v33
					C1255.9,817.3,1252.3,820.8,1247.9,820.8z"/>
			</g>
			<g>
				<g>
					<g>
						<defs>
							<rect id="SVGID_1_" x="400.6" y="620.6" width="1049.9" height="605"/>
						</defs>
						<clipPath id="SVGID_00000090993352860214370160000010727591074028291476_">
							<use xlink:href="#SVGID_1_"  style="overflow:visible;"/>
						</clipPath>
						<polygon style="clip-path:url(#SVGID_00000090993352860214370160000010727591074028291476_);fill:#E69C24;" points="
							933,923.1 400.6,621.1 400.6,1225.1 						"/>
					</g>
				</g>
				<g>
					<g>
						<defs>
							<rect id="SVGID_00000166649748652791994850000007427577727610538118_" x="400.6" y="620.6" width="1049.9" height="605"/>
						</defs>
						<clipPath id="SVGID_00000091721871071300112910000005115683279838124462_">
							<use xlink:href="#SVGID_00000166649748652791994850000007427577727610538118_"  style="overflow:visible;"/>
						</clipPath>
						<polygon style="clip-path:url(#SVGID_00000091721871071300112910000005115683279838124462_);fill:#E69C24;" points="
							918.2,923.1 1450.5,621.1 1450.5,1225.1 						"/>
					</g>
				</g>
				<g>
					<g>
						<defs>
							<rect id="SVGID_00000075874265389803681820000009978860321677650059_" x="400.6" y="620.6" width="1049.9" height="605"/>
						</defs>
						<clipPath id="SVGID_00000019677334829513124900000003746025888978990266_">
							<use xlink:href="#SVGID_00000075874265389803681820000009978860321677650059_"  style="overflow:visible;"/>
						</clipPath>
						<path style="clip-path:url(#SVGID_00000019677334829513124900000003746025888978990266_);fill:#E69C24;" d="M913,812.4
							l-512.4,412.7h1049.9L938.1,812.4C930.8,806.5,920.4,806.5,913,812.4z"/>
					</g>
				</g>
				<g>
					<g>
						<defs>
							<rect id="SVGID_00000173869414806608408380000003378325303286523829_" x="400.6" y="620.6" width="1049.9" height="605"/>
						</defs>
						<clipPath id="SVGID_00000023986069882498237760000004660691183874858884_">
							<use xlink:href="#SVGID_00000173869414806608408380000003378325303286523829_"  style="overflow:visible;"/>
						</clipPath>
						
							<path style="clip-path:url(#SVGID_00000023986069882498237760000004660691183874858884_);fill:none;stroke:#282626;stroke-width:3;stroke-linecap:round;stroke-miterlimit:10;" d="
							M1450.5,1225.1L938.1,812.4c-7.3-5.9-17.8-5.9-25.1,0l-512.4,412.7"/>
					</g>
				</g>
			</g>
		</g>
		<g>
			<path class="st5" d="M517.1,909.2H279.3c-19.9,0-36-16.1-36-36v-92.9c0-19.9,16.1-36,36-36h237.8c19.9,0,36,16.1,36,36v92.9
				C553.1,893.1,537,909.2,517.1,909.2z"/>
			<polygon class="st5" points="507.9,949.3 502,909.2 433.3,909.2 			"/>
			<g>
				<circle class="st13" cx="333.7" cy="826.8" r="15.2"/>
				<circle class="st13" cx="398" cy="826.8" r="15.2"/>
				<circle class="st13" cx="462.7" cy="826.8" r="15.2"/>
			</g>
		</g>
		<g>
			<polygon class="st5" points="433.2,7.9 475.6,203.5 485.9,3.3 			"/>
			<polygon class="st5" points="313.2,131.5 451.4,214.2 340.1,86.8 			"/>
			<polygon class="st5" points="264.9,269.6 447.5,238 267.2,207.8 			"/>
		</g>
		<g>
			<polygon class="st14" points="1553.1,92.6 1530.2,159.2 1581.9,114.4 			"/>
			<path class="st15" d="M1202.9,573.4c-35.9-26.6-53.4-74.2-48.2-118.6c5.2-44.4,31.4-84.9,66.6-112.4
				c35.3-27.5,79-42.7,123.3-48.5c24.7-3.3,52.4-2.8,70.9,13.8c23.5,21.1,19.3,64.1-6.4,82.4s-65.4,10.2-84.2-15.2
				c-13.7-18.5-16.8-42.6-17.2-65.5c-0.4-25.9,2.4-52.5,13.7-75.7c12.7-25.9,35-45.9,59.1-61.8c40.7-27,87.8-44.2,136.3-50"/>
		</g>
		<g>
			<path d="M518.1,909.2H280.3c-19.9,0-36-16.1-36-36v-92.9c0-19.9,16.1-36,36-36h237.8c19.9,0,36,16.1,36,36v92.9
				C554.1,893.1,538,909.2,518.1,909.2z"/>
			<polygon points="508.9,949.3 503,909.2 434.3,909.2 			"/>
			<g>
				<circle class="st13" cx="334.7" cy="826.8" r="15.2"/>
				<circle class="st13" cx="399" cy="826.8" r="15.2"/>
				<circle class="st13" cx="463.7" cy="826.8" r="15.2"/>
			</g>
		</g>
		<g>
			<polygon class="st6" points="1531.2,75.9 1531.2,159.2 1715,0 			"/>
			<polygon class="st6" points="1554.1,92.6 1531.2,159.2 1582.9,114.4 			"/>
			<polygon class="st16" points="1469.1,30.4 1531.2,75.9 1715,0 			"/>
			<polygon class="st16" points="1554.1,92.6 1612.2,136.7 1715,0 			"/>
			<path class="st15" d="M1203.9,573.4c-35.9-26.6-53.4-74.2-48.2-118.6c5.2-44.4,31.4-84.9,66.6-112.4
				c35.3-27.5,79-42.7,123.3-48.5c24.7-3.3,52.4-2.8,70.9,13.8c23.5,21.1,19.3,64.1-6.4,82.4s-65.4,10.2-84.2-15.2
				c-13.7-18.5-16.8-42.6-17.2-65.5c-0.4-25.9,2.4-52.5,13.7-75.7c12.7-25.9,35-45.9,59.1-61.8c40.7-27,87.8-44.2,136.3-50"/>
		</g>
	</g>
	<line id="line" class="st17" x1="125.6" y1="1225.6" x2="1725.6" y2="1225.6"/>
</g>
</svg>
