<?xml version="1.0" encoding="utf-8"?>
<!-- Generator: Adobe Illustrator 22.0.0, SVG Export Plug-In . SVG Version: 6.00 Build 0)  -->
<svg version="1.1" id="Layer_1" xmlns="http://www.w3.org/2000/svg" xmlns:xlink="http://www.w3.org/1999/xlink" x="0px" y="0px"
	 viewBox="0 0 50 50" style="enable-background:new 0 0 50 50;" xml:space="preserve">
<style type="text/css">
	.st0{fill:#FFFFFF;}
</style>
<path class="st0" d="M48.7,36.9l-6.2-6.2c-1.7-1.7-4.5-1.7-6.2,0l-2.8,2.8c-1.3,1.3-3.4,1.3-4.7,0L16.5,21.3c-1.3-1.3-1.3-3.4,0-4.7
	c0.5-0.5,1.8-1.8,2.8-2.8c1.7-1.7,1.7-4.5,0-6.2l-6.2-6.2c-1.7-1.7-4.5-1.7-6.2,0C5.6,2.6,5.2,3,4.7,3.6c-6.2,6.2-6.2,16.2,0,22.4
	L24,45.4c6.2,6.2,16.2,6.2,22.4,0l2.3-2.3C50.4,41.4,50.4,38.6,48.7,36.9z M9,3.4c0.6-0.6,1.5-0.6,2.1,0l6.2,6.2
	c0.6,0.6,0.6,1.5,0,2.1l-1,1L8,4.4L9,3.4z M26.1,43.3L6.7,23.9c-4.8-4.8-5-12.3-0.8-17.4l8.3,8.3c-2.2,2.5-2.1,6.2,0.3,8.6
	l12.2,12.2c0,0,0,0,0,0c2.3,2.3,6.1,2.4,8.6,0.3l8.3,8.3C38.4,48.3,30.9,48.1,26.1,43.3z M46.6,41l-1,1l-8.3-8.3l1-1
	c0.6-0.6,1.5-0.6,2.1,0l6.2,6.2C47.2,39.5,47.2,40.5,46.6,41z"/>
</svg>
