<?xml version="1.0" encoding="utf-8"?>
<!-- Generator: Adobe Illustrator 22.0.0, SVG Export Plug-In . SVG Version: 6.00 Build 0)  -->
<svg version="1.1" id="Layer_1" xmlns="http://www.w3.org/2000/svg" xmlns:xlink="http://www.w3.org/1999/xlink" x="0px" y="0px"
	 viewBox="0 0 50 50" style="enable-background:new 0 0 50 50;" xml:space="preserve">
<style type="text/css">
	.st0{fill:#FFFFFF;}
</style>
<path class="st0" d="M45.6,7.9H4.4C2,7.9,0,9.7,0,11.8v26.3c0,2.2,2,3.9,4.4,3.9h41.2c2.4,0,4.4-1.8,4.4-3.9V11.8
	C50,9.7,48,7.9,45.6,7.9z M45,10.5L25.1,28.4L5,10.5H45z M2.9,37.6V12.4L17,24.9L2.9,37.6z M5,39.5l14.1-12.7l4.9,4.4
	c0.6,0.5,1.5,0.5,2.1,0l4.8-4.3l14,12.6H5z M47.1,37.6L33,25l14-12.6V37.6z"/>
</svg>
