<svg id="Capa_1" enable-background="new 0 0 512.27 512.27" height="512" viewBox="0 0 512.27 512.27" width="512" xmlns="http://www.w3.org/2000/svg"><g><g><path d="m234.597 351.532h43.075v153.238h-43.075z" fill="#838383"/></g><g><path d="m257.672 351.532h20v153.238h-20z" fill="#6b6b6b"/></g><g><circle cx="256.134" cy="186.979" fill="#ee6161" r="179.479"/></g><g><path d="m435.614 186.983c0 99.12-80.36 179.48-179.48 179.48-28.35 0-55.16-6.57-79-18.28 19.33 7.12 40.23 11.01 62.04 11.01 99.12 0 179.48-80.36 179.48-179.48 0-70.78-40.97-131.98-100.48-161.2 68.551 25.25 117.44 91.15 117.44 168.47z" fill="#e94444"/></g><g><circle cx="256.134" cy="186.979" fill="#8ac9fe" r="144.774"/></g><g><path d="m400.905 186.983c0 79.95-64.81 144.77-144.77 144.77-24.2 0-47.01-5.93-67.05-16.43 15.21 5.44 31.61 8.4 48.69 8.4 79.96 0 144.77-64.82 144.77-144.78 0-55.76-31.52-104.15-77.72-128.34 56.009 19.99 96.08 73.5 96.08 136.38z" fill="#60b7ff"/></g><g><path d="m234.992 35.204h35.234v313.221h-35.234z" fill="#ee6161" transform="matrix(.707 -.707 .707 .707 -61.646 234.803)"/></g><g><path d="m256.135 0c-44.357 0-87.366 15.808-121.103 44.512-3.154 2.685-3.536 7.418-.852 10.573s7.418 3.536 10.572.852c31.027-26.399 70.583-40.937 111.383-40.937 94.83 0 171.979 77.15 171.979 171.979s-77.149 171.979-171.979 171.979-171.98-77.149-171.98-171.979c0-39.238 12.865-76.184 37.206-106.844 2.575-3.244 2.033-7.961-1.211-10.537s-7.962-2.034-10.537 1.211c-26.468 33.339-40.458 73.511-40.458 116.17 0 93.226 68.583 170.728 157.942 184.721v133.07c0 4.142 3.357 7.5 7.5 7.5h43.074c4.143 0 7.5-3.358 7.5-7.5v-133.07c89.36-13.993 157.942-91.495 157.942-184.721.001-103.1-83.878-186.979-186.978-186.979zm14.037 497.27h-28.074v-123.837c4.635.346 9.315.525 14.037.525s9.402-.18 14.037-.525z"/><path d="m366.442 288.233c.1 0 .201-.002.302-.006 2.092-.084 4.054-1.04 5.41-2.634 23.38-27.479 36.255-62.501 36.255-98.614 0-83.964-68.31-152.274-152.274-152.274-36.112 0-71.134 12.875-98.614 36.254-1.595 1.357-2.55 3.318-2.634 5.411s.71 4.125 2.19 5.605l204.062 204.062c1.41 1.409 3.318 2.196 5.303 2.196zm-110.307-238.528c75.693 0 137.274 61.581 137.274 137.274 0 29.828-9.742 58.828-27.584 82.53l-192.221-192.22c23.703-17.842 52.703-27.584 82.531-27.584z"/><path d="m137.876 95.129c-2.193.178-4.198 1.312-5.482 3.099-18.667 25.981-28.533 56.671-28.533 88.751 0 83.964 68.31 152.274 152.274 152.274 32.079 0 62.77-9.867 88.751-28.533 1.788-1.284 2.921-3.289 3.1-5.482s-.616-4.355-2.172-5.912l-40.609-40.609c-2.93-2.929-7.678-2.929-10.607 0s-2.929 7.678 0 10.606l34.164 34.164c-21.759 13.613-46.688 20.767-72.626 20.767-75.693 0-137.274-61.581-137.274-137.274 0-25.939 7.153-50.868 20.767-72.626l130.465 130.466c2.93 2.929 7.678 2.929 10.607 0s2.929-7.678 0-10.606l-136.913-136.913c-1.556-1.556-3.718-2.352-5.912-2.172z"/></g></g></svg>