<?xml version="1.0" encoding="iso-8859-1"?>
<!-- Generator: Adobe Illustrator 19.0.0, SVG Export Plug-In . SVG Version: 6.00 Build 0)  -->
<svg version="1.1" id="Capa_1" xmlns="http://www.w3.org/2000/svg" xmlns:xlink="http://www.w3.org/1999/xlink" x="0px" y="0px"
	 viewBox="0 0 490.667 490.667" style="enable-background:new 0 0 490.667 490.667;" xml:space="preserve">
<g>
	<path style="fill:#2196F3;" d="M234.411,142.127l-28.544-16.533c-10.288-6.004-23.495-2.531-29.499,7.757
		c-0.059,0.102-0.118,0.204-0.176,0.307L57.131,345.156c-5.922,10.388-2.372,23.608,7.957,29.632l28.587,16.619
		c3.237,1.895,6.916,2.903,10.667,2.923c7.808-0.014,15.011-4.205,18.88-10.987l119.083-211.605
		C248.186,161.366,244.675,148.194,234.411,142.127z"/>
	<path style="fill:#2196F3;" d="M81.749,407.257L81.749,407.257L53.141,390.66c-5.178-3.267-11.672-3.646-17.195-1.003
		c-5.443,2.891-9.031,8.363-9.515,14.507l-4.949,43.541c-1.283,6.339,1.463,12.815,6.912,16.299c2.204,1.32,4.727,2.013,7.296,2.005
		c3.7-0.099,7.28-1.327,10.261-3.52l36.885-25.408c8.082-4.851,10.701-15.334,5.85-23.416c-1.658-2.762-4.063-4.998-6.938-6.45
		V407.257z"/>
	<path style="fill:#2196F3;" d="M403.477,389.636c9.63-3.955,17.301-11.565,21.333-21.163c2.396-6.771,1.742-14.248-1.792-20.501
		c-0.96-1.771-3.947-7.488-8.533-16.171C241.664,0.047,231.317,5.572,218.261,12.207c-4.895,2.66-7.738,7.977-7.232,13.525
		c0,36.992,138.987,353.557,160,364.203c4.911,2.673,10.389,4.135,15.979,4.267c4.971-0.167,9.844-1.427,14.272-3.691
		L403.477,389.636z"/>
	<path style="fill:#2196F3;" d="M449.579,397.06c-12.059-6.792-26.997-5.787-38.037,2.56c-0.887,0.564-1.716,1.214-2.475,1.941
		c-13.016,10.865-14.76,30.223-3.895,43.239c0.254,0.305,0.515,0.605,0.781,0.899c8.009,9.872,18.654,17.269,30.699,21.333
		c3.937,1.472,7.706,3.36,11.243,5.632c1.385,4.468,5.519,7.513,10.197,7.509h1.088c5.054-0.515,9.044-4.522,9.536-9.579
		C469.653,461.06,473.109,412.292,449.579,397.06z"/>
	<path style="fill:#2196F3;" d="M254.869,208.815c-3.144-5.272-9.966-6.998-15.238-3.855c-1.585,0.945-2.91,2.27-3.855,3.855
		l-42.667,85.333c-2.639,5.267-0.509,11.676,4.758,14.315c1.49,0.746,3.133,1.134,4.8,1.13H288c5.891,0,10.667-4.776,10.666-10.667
		c0-1.659-0.387-3.295-1.13-4.778L254.869,208.815z"/>
	<path style="fill:#2196F3;" d="M51.712,304.58l53.333-85.333c3.122-4.996,1.604-11.576-3.392-14.699
		c-1.695-1.06-3.654-1.621-5.653-1.621H10.667C4.776,202.927,0,207.702,0,213.593v85.333c0,5.891,4.776,10.667,10.667,10.667h32
		C46.344,309.593,49.763,307.699,51.712,304.58z"/>
	<path style="fill:#2196F3;" d="M480,202.927h-85.333c-5.891,0-10.667,4.776-10.666,10.667c0,1.659,0.387,3.295,1.13,4.778
		l42.667,85.333c1.808,3.609,5.499,5.888,9.536,5.888H480c5.891,0,10.667-4.776,10.667-10.667v-85.333
		C490.667,207.702,485.891,202.927,480,202.927z"/>
</g>
<path d="M104.533,394.329c-3.751-0.02-7.43-1.028-10.667-2.923L65.28,374.788c-10.33-6.024-13.88-19.244-7.957-29.632
	l118.891-211.499c5.834-10.385,18.983-14.074,29.368-8.24c0.103,0.058,0.205,0.116,0.307,0.176l28.544,16.533
	c10.295,6.039,13.846,19.217,7.979,29.611L123.307,383.343c-3.869,6.781-11.072,10.973-18.88,10.987H104.533z M195.115,144.025
	L75.648,355.695l28.715,17.28l119.467-211.691l0,0c0.126-0.215,0.071-0.49-0.128-0.64L195.115,144.025z"/>
<path d="M35.691,466.009c-2.569,0.008-5.092-0.686-7.296-2.005c-5.449-3.484-8.195-9.96-6.912-16.299l4.949-43.541
	c0.483-6.144,4.072-11.616,9.515-14.507c5.525-2.631,12.013-2.253,17.195,1.003l28.587,16.555l0,0
	c8.413,4.25,11.788,14.515,7.538,22.928c-1.452,2.875-3.689,5.281-6.45,6.938l-36.864,25.408
	C42.971,464.682,39.39,465.911,35.691,466.009z M47.04,411.78l-2.965,26.091l21.909-15.104L47.04,411.78z M71.019,425.689
	L71.019,425.689l5.312-9.259L71.019,425.689z"/>
<path d="M387.008,394.287c-5.59-0.131-11.068-1.594-15.979-4.267c-20.992-10.667-160-327.211-160-364.203
	c-0.506-5.548,2.337-10.865,7.232-13.525c13.056-6.656,23.467-12.16,196.267,319.595c4.523,8.683,7.509,14.379,8.533,16.171l0,0
	c3.534,6.253,4.188,13.73,1.792,20.501c-4.033,9.598-11.703,17.207-21.333,21.163l-2.133,0.96
	C396.919,392.93,392.008,394.162,387.008,394.287z M382.101,371.609c4.523,2.133,5.675,1.664,10.667-0.555l2.517-1.088
	c4.055-1.654,7.405-4.672,9.472-8.533c0.405-1.096,0.254-2.321-0.405-3.285l0,0c-0.981-1.813-4.011-7.616-8.533-16.469
	C309.845,176.751,265.493,98.841,242.581,62.212c30.784,86.421,123.008,288.384,139.499,309.397H382.101z"/>
<path d="M458.112,480.26c-4.678,0.004-8.813-3.041-10.197-7.509c-3.536-2.272-7.305-4.16-11.243-5.632
	c-12.045-4.064-22.689-11.462-30.699-21.333c-11.361-12.585-10.369-31.997,2.215-43.358c0.295-0.266,0.595-0.526,0.899-0.781
	c0.759-0.727,1.588-1.377,2.475-1.941c11.038-8.352,25.98-9.358,38.037-2.56c23.467,15.211,20.053,64,19.2,73.536
	c-0.492,5.056-4.482,9.064-9.536,9.579H458.112z M423.253,417.561c-3.84,3.733-6.229,6.827,0.171,15.893
	c5.86,6.554,13.365,11.422,21.739,14.101l2.773,1.195c-0.661-14.763-3.563-29.653-9.92-33.771
	C434.347,412.633,428.16,414.916,423.253,417.561z"/>
<path d="M288,309.593h-85.333c-5.891,0-10.667-4.776-10.666-10.667c0-1.659,0.387-3.295,1.13-4.778l42.667-85.333
	c3.144-5.272,9.966-6.998,15.239-3.855c1.585,0.945,2.91,2.27,3.855,3.855l42.667,85.333c2.639,5.267,0.509,11.676-4.758,14.315
	C291.31,309.21,289.666,309.597,288,309.593z M219.925,288.26h50.837l-25.429-50.816L219.925,288.26z"/>
<path d="M42.667,309.593h-32C4.776,309.593,0,304.818,0,298.927v-85.333c0-5.891,4.776-10.667,10.667-10.667H96
	c5.891,0,10.667,4.776,10.667,10.667c0,1.999-0.562,3.958-1.621,5.653L51.712,304.58C49.763,307.699,46.344,309.593,42.667,309.593z
	 M21.333,288.26h15.424l40.043-64H21.333V288.26z"/>
<path d="M480,309.593h-42.667c-4.037,0-7.728-2.279-9.536-5.888l-42.667-85.333c-2.639-5.267-0.509-11.676,4.758-14.315
	c1.483-0.743,3.119-1.13,4.778-1.13H480c5.891,0,10.667,4.776,10.667,10.667v85.333C490.667,304.818,485.891,309.593,480,309.593z
	 M443.925,288.26h25.408v-64h-57.408L443.925,288.26z"/>
<g>
</g>
<g>
</g>
<g>
</g>
<g>
</g>
<g>
</g>
<g>
</g>
<g>
</g>
<g>
</g>
<g>
</g>
<g>
</g>
<g>
</g>
<g>
</g>
<g>
</g>
<g>
</g>
<g>
</g>
</svg>
