<svg height="512" viewBox="0 0 60 60" width="512" xmlns="http://www.w3.org/2000/svg"><g id="Page-1" fill="none" fill-rule="evenodd"><g id="016---World-Map-Pin" fill-rule="nonzero" transform="translate(-1)"><path id="Shape" d="m59.77 36.92v.02c-.6176128 4.5720903-2.4746891 8.887977-5.37 12.48-.02-.26-.05-.52-.07-.78-.0464972-1.723839.0370731-3.44873.25-5.16.2082879-1.7188216-.0329019-3.4622793-.7-5.06-.6900441-1.4086874-2.0071707-2.4067355-3.55-2.69-2.62-.57-5.34.21-7.77 1.17-2.12.83-5.11 1.73-6.65 3.5-.9307712 1.1120353-1.1694359 2.6479576-.62 3.99.68 1.55 2.27 2.46 3.77 3.22s3.13 1.57 3.95 3.04c.6 1.06.71 2.36 1.36 3.4.5823249.871466 1.4651567 1.4979918 2.48 1.76-8.3964218 4.6479955-18.6914415 4.1881204-26.64-1.19-.61-1.91-1.35-3.77-1.96-5.76-.6-1.97-1.62-6.36 1.78-6.16 1.24.07 3.18.85 3.72-.81.29-.91-.34-1.78-.84-2.48-.99-1.38-3.46-3.47-2.05-5.32 1.67-2.2 5.99-2.18 8.46-2.49.8881007-.0989233 1.7651619-.2796916 2.62-.54 1.97-.63 3.5-1.87 2.97-4.46-.63-3.05-6.42-5.41-8.65-5.58l-.06-.06-6.2-6.2c.4577474-.9104707.7618463-1.8903451.9-2.9 1.21-.62 2.16-1.16 3.11-1.6l.13.16c2.54 3.18 6.44 4.35 10.4 4.46 4.42.13 9.81-.2 13.46-3.01 2.0772498 1.3008556 3.9565068 2.8938459 5.58 4.73-3.58 2.75-7.53 6.43-4.64 10.21.9573131 1.111736 2.1446857 2.0022655 3.48 2.61 2.2249251 1.0846311 4.1870306 2.6406661 5.75 4.56.6735113.8969494 1.2125239 1.8873852 1.6 2.94z" fill="#02a9f4"/><g fill="#0377bc"><path id="Shape" d="m20.14 42.709-.11-.009c-.4374439-.0396531-.8775514.038013-1.275.225.4728955.0738629.957054-.0016449 1.385-.216z"/><path id="Shape" d="m31.54 14.88c.95.028 1.946.032 2.959 0-3.946-.117-7.828-1.288-10.359-4.457l-.13-.16c-.654.3-1.314.656-2.052 1.047 2.518 2.501 6.021 3.471 9.582 3.57z"/><path id="Shape" d="m58.17 33.98c-1.5629694-1.9193339-3.5250749-3.4753689-5.75-4.56-1.3353143-.6077345-2.5226869-1.498264-3.48-2.61-2.89-3.78 1.06-7.46 4.64-10.21-1.6234932-1.8361541-3.5027502-3.4291444-5.58-4.73-.4852347.3709937-.9999439.7017587-1.539.989 1.5047598 1.0937437 2.8859052 2.3481416 4.119 3.741-3.58 2.75-7.53 6.43-4.64 10.21.9573131 1.111736 2.1446857 2.0022655 3.48 2.61 2.2249251 1.0846311 4.1870306 2.6406661 5.75 4.56.6735113.8969494 1.2125239 1.8873852 1.6 2.94v.02c-.3570495 2.6206663-1.1251509 5.1686302-2.276 7.55-.1738801 1.3760454-.2287501 2.7645244-.164 4.15.02.26.05.52.07.78 2.8953109-3.592023 4.7523872-7.9079097 5.37-12.48v-.02c-.3874761-1.0526148-.9264887-2.0430506-1.6-2.94z"/><path id="Shape" d="m44.37 54.05c-.65-1.04-.76-2.34-1.36-3.4-.82-1.47-2.45-2.28-3.95-3.04s-3.09-1.67-3.77-3.22c-.5494359-1.3420424-.3107712-2.8779647.62-3.99 1.54-1.77 4.53-2.67 6.65-3.5 1.3942322-.5777843 2.8505563-.9925346 4.34-1.236-2.5130577-.2483715-5.0468742.1783038-7.34 1.236-2.12.83-5.11 1.73-6.65 3.5-.9307712 1.1120353-1.1694359 2.6479576-.62 3.99.68 1.55 2.27 2.46 3.77 3.22s3.13 1.57 3.95 3.04c.6 1.06.71 2.36 1.36 3.4.5823249.871466 1.4651567 1.4979918 2.48 1.76-3.2972609 1.8303066-6.9611713 2.9023206-10.725 3.138.457.024.912.052 1.375.052 4.3210684.0050722 8.5719166-1.0929202 12.35-3.19-1.0148433-.2620082-1.8976751-.888534-2.48-1.76z"/></g><path id="Shape" d="m48 11.87c-3.65 2.81-9.04 3.14-13.46 3.01-3.96-.11-7.86-1.28-10.4-4.46l-.13-.16c.32-.15.64-.29.97-.42 7.5573576-3.03736828 16.1108363-2.28308671 23.02 2.03z" fill="#f5f5f5"/><path id="Shape" d="m34.5 8c-.52 0-1.036.021-1.549.052 4.2745353.23350204 8.4200589 1.54710557 12.049 3.818-2.865 2.206-6.8 2.881-10.5 3.007h.041c4.42.13 9.81-.2 13.46-3.01-4.0463049-2.53484484-8.7262798-3.87529838-13.501-3.867z" fill="#cfd8dc"/><path id="Shape" d="m60 33.5c-.000577 1.1438446-.0774141 2.2863782-.23 3.42-.3874761-1.0526148-.9264887-2.0430506-1.6-2.94-1.5629694-1.9193339-3.5250749-3.4753689-5.75-4.56-1.3353143-.6077345-2.5226869-1.498264-3.48-2.61-2.89-3.78 1.06-7.46 4.64-10.21 4.1401735 4.6553588 6.4250108 10.6699618 6.42 16.9z" fill="#60a917"/><path id="Shape" d="m53.58 16.6c-.6.463-1.213.953-1.8 1.465 3.2088906 4.1967203 5.0268667 9.2908992 5.2 14.571.4280006.4192475.8256688.8683786 1.19 1.344.6735113.8969494 1.2125239 1.8873852 1.6 2.94.1525859-1.1336218.229423-2.2761554.23-3.42.0050108-6.2300382-2.2798265-12.2446412-6.42-16.9z" fill="#549414"/><path id="Shape" d="m54.58 43.48c-.2129269 1.71127-.2964972 3.436161-.25 5.16.02.26.05.52.07.78v.01c-2.0713399 2.6037164-4.6372504 4.7719957-7.55 6.38-1.0148433-.2620082-1.8976751-.888534-2.48-1.76-.65-1.04-.76-2.34-1.36-3.4-.82-1.47-2.45-2.28-3.95-3.04s-3.09-1.67-3.77-3.22c-.5494359-1.3420424-.3107712-2.8779647.62-3.99 1.54-1.77 4.53-2.67 6.65-3.5 2.43-.96 5.15-1.74 7.77-1.17 1.5428293.2832645 2.8599559 1.2813126 3.55 2.69.6670981 1.5977207.9082879 3.3411784.7 5.06z" fill="#60a917"/><path id="Shape" d="m53.88 38.42c-.6900441-1.4086874-2.0071707-2.4067355-3.55-2.69-1.1294174-.2278094-2.2906508-.2501669-3.428-.066.143.023.286.035.428.066 1.5428293.2832645 2.8599559 1.2813126 3.55 2.69.6670981 1.5977207.9082879 3.3411784.7 5.06-.2129269 1.71127-.2964972 3.436161-.25 5.16.02.26.05.52.07.78v.01c-1.7414274 2.1739367-3.831066 4.0442714-6.184 5.535.4844287.385408 1.0394937.6724521 1.634.845 2.9127496-1.6080043 5.4786601-3.7762836 7.55-6.38v-.01c-.02-.26-.05-.52-.07-.78-.0464972-1.723839.0370731-3.44873.25-5.16.2082879-1.7188216-.0329019-3.4622793-.7-5.06z" fill="#549414"/><path id="Shape" d="m31.94 31.06c-.8548381.2603084-1.7318993.4410767-2.62.54-2.47.31-6.79.29-8.46 2.49-1.41 1.85 1.06 3.94 2.05 5.32.5.7 1.13 1.57.84 2.48-.54 1.66-2.48.88-3.72.81-3.4-.2-2.38 4.19-1.78 6.16.61 1.99 1.35 3.85 1.96 5.76-7.0143047-4.7396016-11.21536022-12.6545251-11.21-21.12-.01289771-4.8211901 1.3580294-9.544815 3.95-13.61h.01c.9736684-.1503991 1.918186-.4506208 2.8-.89l8.12 8.12 4.12-.12.12-4.12-1.86-1.86c2.23.17 8.02 2.53 8.65 5.58.53 2.59-1 3.83-2.97 4.46z" fill="#60a917"/><path id="Shape" d="m20.88 27.12 2.915-.085-8.035-8.035c-.7062467.3487898-1.4524329.6100557-2.222.778z" fill="#549414"/><path id="Shape" d="m18.755 42.925c-.6-.051-1.219-.2-1.725-.225-3.4-.2-2.38 4.19-1.78 6.16.225.733.475 1.437.722 2.143 1.276635 1.3565051 2.6977438 2.569377 4.238 3.617-.61-1.91-1.35-3.77-1.96-5.76-.506-1.66-1.302-5.04.505-5.935z" fill="#549414"/><path id="Shape" d="m34.91 26.6c-.63-3.05-6.42-5.41-8.65-5.58l1.478 1.48c1.98 1.009 3.831 2.453 4.172 4.1.53 2.59-1 3.83-2.97 4.46-.8548381.2603084-1.7318993.4410767-2.62.54-2.47.31-6.79.29-8.46 2.49-1.41 1.85 1.06 3.94 2.05 5.32.5.7 1.13 1.57.84 2.48-.0945615.3392843-.312008.6312329-.61.819 1.241.1 3.085.794 3.61-.819.29-.91-.34-1.78-.84-2.48-.99-1.38-3.46-3.47-2.05-5.32 1.67-2.2 5.99-2.18 8.46-2.49.8881007-.0989233 1.7651619-.2796916 2.62-.54 1.97-.63 3.5-1.87 2.97-4.46z" fill="#549414"/><path id="Shape" d="m28.12 22.88-.12 4.12-4.12.12-8.12-8.12c1.831721-.9217028 3.3182972-2.408279 4.24-4.24l6.2 6.2.06.06z" fill="#9e9e9e"/><path id="Shape" d="m21 10.5c.0018946.4552375-.0315391.9099357-.1 1.36-.1381537 1.0096549-.4422526 1.9895293-.9 2.9-1.374939 2.7512833-3.9997931 4.6639966-7.04 5.13h-.01c-.4800233.071807-.9646376.1085708-1.45.11-5.24670512 0-9.5-4.2532949-9.5-9.5 0-5.24670512 4.25329488-9.5 9.5-9.5 5.2467051 0 9.5 4.25329488 9.5 9.5z" fill="#ef314c"/><path id="Shape" d="m11.5 1c-.5026507.00360625-1.0042235.0470759-1.5.13 4.6076839.73167558 7.9997088 4.7045847 8 9.37.0018946.4552375-.0315391.9099357-.1 1.36-.1381537 1.0096549-.4422526 1.9895293-.9 2.9-1.3616188 2.7284799-3.9551016 4.6331968-6.966 5.116.4847603.078894.9748752.1203499 1.466.124.4853624-.0014292.9699767-.038193 1.45-.11h.01c3.0402069-.4660034 5.665061-2.3787167 7.04-5.13.4577474-.9104707.7618463-1.8903451.9-2.9.0684609-.4500643.1018946-.9047625.1-1.36 0-5.24670512-4.2532949-9.5-9.5-9.5z" fill="#bb193b"/><path id="Shape" d="m6 11.5c-.55228475 0-1-.4477153-1-1 .0044079-3.58802348 2.91197652-6.4955921 6.5-6.5.5522847 0 1 .44771525 1 1s-.4477153 1-1 1c-2.48413909.00275556-4.49724444 2.01586091-4.5 4.5 0 .5522847-.44771525 1-1 1z" fill="#f5f5f5"/><path id="Shape" d="m48.489 11c-7.5050667-4.67054003-16.8460216-5.28726814-24.9-1.644-.482.225-.839.887-.228 1.69 2.418 3.028 6.276 4.7 11.153 4.835.51.016 1.048.025 1.606.025 3.723 0 8.367-.468 11.878-2.834 1.4917776.9812282 2.8728384 2.1212153 4.119 3.4-2.828 2.242-7.4 6.458-3.968 10.945 1.0446645 1.2295915 2.3457695 2.2156597 3.812 2.889 2.097351 1.0149343 3.9470066 2.4768415 5.419 4.283.5657521.754041 1.0241241 1.5829471 1.362 2.463-.4825875 3.3027967-1.6399419 6.4708843-3.4 9.307.032-.462.072-.928.116-1.407s.087-.935.12-1.409c.2183068-1.891979-.0573155-3.8082434-.8-5.562-.8233747-1.6844534-2.3935847-2.8813865-4.236-3.229-3.013-.656-6.045.306-8.348 1.216-.32.125-.66.252-1.012.383-2.03.758-4.556 1.7-6.028 3.392-1.1829315 1.404634-1.4841499 3.3515615-.781 5.048.814 1.857 2.612 2.889 4.3 3.745 1.378.7 2.8 1.42 3.464 2.606.2320048.4561442.4163145.9350143.55 1.429.1884528.7035857.4685153 1.3793669.833 2.01.3006216.4656422.6803383.8751405 1.122 1.21-7.657256 3.4966754-16.5752563 2.8052111-23.602-1.83-.249-.76-.51-1.515-.778-2.273-.359-1.012-.73-2.059-1.055-3.119-.673-2.21-.771-3.915-.264-4.559.077-.1.286-.352 1.031-.311.233.013.494.056.764.1 1.147.182 3.273.521 3.965-1.6.44-1.38-.407-2.564-.98-3.367-.2-.285-.468-.6-.75-.935-1.334-1.586-1.871-2.469-1.316-3.2 1.121-1.477 4.155-1.755 6.369-1.957.512-.047.993-.091 1.419-.145.9494956-.1043218 1.8870008-.2981845 2.8-.579 3.915-1.252 3.964-4.055 3.645-5.616-.4919936-1.705464-1.6747272-3.1275-3.262-3.922-.4715727-.273973-1.0757047-.1195647-1.3579843.3470831-.2822797.4666478-.1385923 1.0734191.3229843 1.3639169 1.1099381.5054027 1.9577465 1.4522067 2.338 2.611.244 1.194.163 2.521-2.3 3.308-.7948663.2413416-1.6103329.4087198-2.436.5-.406.051-.863.093-1.351.137-2.585.236-6.125.56-7.779 2.739-1.623 2.129.255 4.362 1.377 5.7.246.292.477.564.667.829.368.513.824 1.153.69 1.572-.117.359-.3.472-1.746.242-.343-.054-.672-.1-.964-.121-1.0292754-.1332129-2.0549569.2707176-2.717 1.07-.967 1.228-.993 3.374-.078 6.381.274.891.573 1.752.871 2.6-7.68601-6.8748173-10.24451768-17.8264292-6.4-27.395.2026584-.5109123-.0450087-1.089615-.5545348-1.295734-.5095261-.2061189-1.0898952.0376176-1.2994652.545734-3.28032884 8.1669418-2.29328377 17.4294763 2.6344274 24.7217434 4.9277112 7.292267 13.1534655 11.6632817 21.9545726 11.6662566 11.8225784-.0026303 22.2133483-7.8364369 25.4693203-19.2018236 3.255972-11.3653866-1.4105426-23.5128253-11.4383203-29.7751764zm-13.922 2.88c-3.825-.106-6.8-1.193-8.872-3.232 6.6587774-2.57990479 14.1132826-2.11509447 20.4 1.272-3.503 1.934-8.163 2.058-11.528 1.96zm18.317 14.654c-1.2070507-.5386291-2.2820491-1.3341279-3.15-2.331-1.748-2.288-.67-4.7 3.723-8.232 3.5798034 4.3526545 5.5388324 9.8123477 5.543 15.448-.01-.015-.02-.031-.031-.045-1.6493289-2.0395699-3.7266333-3.6918547-6.085-4.84zm-6.145 26.176c-.6207742-.2245973-1.1536401-.6415009-1.521-1.19-.2697789-.4867874-.4774012-1.0055071-.618-1.544-.1729209-.6284213-.4133195-1.2362911-.717-1.813-.955-1.714-2.734-2.616-4.371-3.445-1.372-.7-2.757-1.478-3.3-2.718-.4004731-.9902804-.2261994-2.1203722.454-2.944 1.137-1.307 3.4-2.151 5.218-2.83.362-.135.712-.266 1.044-.4 2.044-.806 4.708-1.661 7.187-1.123 1.2452946.21716 2.3112368 1.0176391 2.867 2.153.5816221 1.4415058.7880605 3.0069976.6 4.55-.031.453-.073.905-.115 1.358-.1594803 1.3092573-.2043173 2.6299411-.134 3.947l.038.393c-1.8621169 2.2457955-4.1075039 4.1438111-6.632 5.606z" fill="#000"/><path id="Shape" d="m23.042 6.3c.095273.24763631.2850558.44725771.527565.55491452.2425092.10765682.5178619.11452251.765435.01908548 8.2264814-3.13592884 17.4401284-2.29704962 24.965 2.273.1560337.09603618.3357813.14660103.519.146.4478893.0000399.8411798-.29773845.9626257-.72884829.121446-.43110983-.0585761-.89039341-.4406257-1.12415171-8.0535713-4.89664104-17.917846-5.79725209-26.725-2.44-.2493468.09520493-.4502874.28613859-.5580946.53030129-.1078073.2441627-.113534.52129081-.0159054.76969871z" fill="#000"/><path id="Shape" d="m8.059 22.855c.13683698-.3317703.0853969-.7114266-.13478982-.9948234-.22018671-.2833967-.57535196-.427072-.93064898-.3764761-.35529703.0505959-.65623706.2877036-.7885612.6212995-1.4641763 3.6202371-2.21297753 7.4898924-2.205 11.395.00521067 7.0652954 2.45755871 13.9106681 6.94 19.372.3512531.42664.98186.4877531 1.4085.1365s.4877531-.98186.1365-1.4085c-4.18870979-5.1024416-6.48032604-11.4984715-6.485-18.1-.0081466-3.6480622.6910891-7.2631006 2.059-10.645z" fill="#000"/><path id="Shape" d="m11.5 21c1.385709.0010397 2.7577422-.2739788 4.036-.809l7.637 7.636c.1874927.1875494.4418052.2929434.707.293h.029l4.12-.12c.5298639-.0151556.9558444-.4411361.971-.971l.12-4.12c.0078146-.275207-.0981806-.5414611-.293-.736l-7.636-7.637c1.7785209-4.2715055.5513422-9.20373864-3.0214712-12.14378977-3.5728134-2.94005114-8.64902926-3.19485149-12.49829385-.6273511-3.84926458 2.56750039-5.56417687 7.35205541-4.22233377 11.78018747 1.3418431 4.428132 5.4241241 7.4559815 10.05109882 7.4549534zm15.608 2.282-.08 2.746-2.746.08-6.909-6.908c1.1134015-.7541447 2.0728553-1.7135985 2.827-2.827zm-15.608-21.282c4.6944204 0 8.5 3.80557963 8.5 8.5 0 4.6944204-3.8055796 8.5-8.5 8.5-4.69442037 0-8.5-3.8055796-8.5-8.5.00551044-4.69213598 3.80786402-8.49448956 8.5-8.5z" fill="#000"/></g></g></svg>