<svg width="60" height="60" clip-rule="evenodd" fill-rule="evenodd" stroke-linejoin="round" stroke-miterlimit="2" viewBox="0 0 64 64" xmlns="http://www.w3.org/2000/svg"><g transform="translate(-2348 -88)"><path d="m2395 138.662c-1.47.851-3.18 1.338-5 1.338h-20c-1.82 0-3.53-.487-5-1.338v5.338c0 4.418 3.58 8 8 8h14c4.42 0 8-3.582 8-8zm-30-37.324c1.47-.851 3.18-1.338 5-1.338h20c1.82 0 3.53.487 5 1.338v-5.338c0-4.418-3.58-8-8-8-4.2 0-9.8 0-14 0-4.42 0-8 3.582-8 8z" fill="#2f2f2f"/><path d="m2402 110c0-6.627-5.37-12-12-12h-20c-6.63 0-12 5.373-12 12v20c0 6.627 5.37 12 12 12h20c6.63 0 12-5.373 12-12zm-24-3v13c0 1.105.89 2 2 2h9c1.1 0 2-.896 2-2s-.9-2-2-2h-7v-11c0-1.104-.9-2-2-2s-2 .896-2 2z" fill="#4be79a"/></g></svg>