<svg width="60" height="60" id="Icons" viewBox="0 0 60 60" xmlns="http://www.w3.org/2000/svg"><path d="m19 1v58h-8a10 10 0 0 1 -10-10v-38a10 10 0 0 1 10-10z" fill="#84dd4a"/><path d="m59 11v20.16l-40-8.52v-21.64h30a10 10 0 0 1 10 10z" fill="#348ee8"/><path d="m59 31.16v17.84a10 10 0 0 1 -10 10h-30v-36.36z" fill="#f7c331"/><path d="m59 28v6l-37-8v33h-6v-58h6v19z" fill="#dcf0ff"/><circle cx="19" cy="40" fill="#348ee8" r="10"/><path d="m18.048 36.6-2.914 5.69a1.156 1.156 0 0 0 .952 1.71h5.828a1.156 1.156 0 0 0 .952-1.708l-2.914-5.692a1.054 1.054 0 0 0 -1.904 0z" fill="#fff"/></svg>