<?xml version="1.0" encoding="utf-8"?>
<!-- Generator: Adobe Illustrator 24.3.0, SVG Export Plug-In . SVG Version: 6.00 Build 0)  -->
<svg width="60" height="60" version="1.1" id="Layer_1" xmlns="http://www.w3.org/2000/svg" xmlns:xlink="http://www.w3.org/1999/xlink" x="0px" y="0px"
	 viewBox="0 0 60 60" style="enable-background:new 0 0 60 60;" xml:space="preserve">
<style type="text/css">
	.st0{fill:#435E88;}
	.st1{fill:#33527D;}
	.st2{fill:#FFFFFF;}
	.st3{fill:#4CC66E;}
	.st4{fill:#CDD4DF;}
</style>
<g>
	<g>
		<g>
			<g>
				<g>
					<g>
						<g>
							<g>
								<path class="st0" d="M45.5,4v52c0,2.2-1.8,4-4,4H8c-2.2,0-4-1.8-4-4V4c0-2.2,1.8-4,4-4h33.4C43.7,0,45.5,1.8,45.5,4z"/>
							</g>
						</g>
						<g>
							<g>
								<path class="st1" d="M45.5,4v52c0,2.2-1.8,4-4,4H8.7L41.5,0.1C43.7,0,45.5,1.8,45.5,4z"/>
							</g>
						</g>
					</g>
					<g>
						<g>
							<path class="st2" d="M41.5,49.8H8c-0.6,0-0.9-0.4-0.9-0.9V7.4c0-0.6,0.4-0.9,0.9-0.9h33.4c0.6,0,0.9,0.4,0.9,0.9v41.5
								C42.4,49.4,42,49.8,41.5,49.8z"/>
						</g>
					</g>
				</g>
				<g>
					<g>
						<path class="st0" d="M27.8,55.3c0,0.9-0.7,1.7-1.7,1.7h-2.7c-0.9,0-1.7-0.7-1.7-1.7s0.7-1.7,1.7-1.7h2.7
							C27.1,53.6,27.8,54.4,27.8,55.3z"/>
					</g>
				</g>
			</g>
			<g>
				<g>
					<g>
						<path class="st1" d="M31.8,3.5c0,0.5-0.4,0.9-0.9,0.9h-8.8c-0.5,0-0.9-0.4-0.9-0.9c0-0.5,0.4-0.9,0.9-0.9h8.8
							C31.5,2.5,31.8,3,31.8,3.5z"/>
					</g>
				</g>
				<g>
					<g>
						<path class="st1" d="M19.5,3.5c0,0.5-0.4,0.9-0.9,0.9l0,0c-0.5,0-0.9-0.4-0.9-0.9c0-0.5,0.4-0.9,0.9-0.9l0,0
							C19.1,2.5,19.5,3,19.5,3.5z"/>
					</g>
				</g>
			</g>
		</g>
		<g>
			<g>
				<g>
					<g>
						<path class="st3" d="M33.2,40.6l-3.6,2.4c-0.7,0.5-1.6,0-1.6-0.8v-3.7c-2.9-2-4.7-5.3-4.7-9.1v-3.3c0-6.1,5-11.1,11.1-11.1
							h10.4c6.1,0,11,5,11,11v3.3c0,6.1-5,11.1-11.1,11.1L33.2,40.6L33.2,40.6z"/>
					</g>
				</g>
			</g>
		</g>
		<g>
			<g>
				<g>
					<g>
						<path class="st2" d="M28.3,28.3l4.4-2.5c0.5-0.3,1.1-0.1,1.4,0.4c0.3,0.5,0.1,1.1-0.4,1.4L29.3,30c-0.5,0.3-1.1,0.1-1.4-0.4
							C27.6,29.2,27.8,28.5,28.3,28.3z"/>
					</g>
				</g>
				<g>
					<g>
						<path class="st2" d="M32.7,30l-4.4-2.5c-0.5-0.3-0.7-0.9-0.4-1.4c0.3-0.5,0.9-0.7,1.4-0.4l4.4,2.5c0.5,0.3,0.7,0.9,0.4,1.4
							C33.8,30.1,33.1,30.3,32.7,30z"/>
					</g>
				</g>
				<g>
					<g>
						<path class="st2" d="M32,25.4v5.1c0,0.6-0.5,1-1,1c-0.6,0-1-0.5-1-1v-5.1c0-0.6,0.5-1,1-1S32,24.7,32,25.4z"/>
					</g>
				</g>
			</g>
			<g>
				<g>
					<g>
						<path class="st2" d="M36.9,28.3l4.4-2.5c0.5-0.3,1.1-0.1,1.4,0.4c0.3,0.5,0.1,1.1-0.4,1.4L37.9,30c-0.5,0.3-1.1,0.1-1.4-0.4
							C36.2,29.2,36.4,28.5,36.9,28.3z"/>
					</g>
				</g>
				<g>
					<g>
						<path class="st2" d="M41.3,30l-4.4-2.5c-0.5-0.3-0.7-0.9-0.4-1.4c0.3-0.5,0.9-0.7,1.4-0.4l4.4,2.5c0.5,0.3,0.7,0.9,0.4,1.4
							C42.4,30.1,41.7,30.3,41.3,30z"/>
					</g>
				</g>
				<g>
					<g>
						<path class="st2" d="M40.6,25.4v5.1c0,0.6-0.5,1-1,1c-0.6,0-1-0.5-1-1v-5.1c0-0.6,0.5-1,1-1C40.2,24.3,40.6,24.7,40.6,25.4z"
							/>
					</g>
				</g>
			</g>
			<g>
				<g>
					<g>
						<path class="st2" d="M45.5,28.3l4.4-2.5c0.5-0.3,1.1-0.1,1.4,0.4c0.3,0.5,0.1,1.1-0.4,1.4L46.5,30c-0.5,0.3-1.1,0.1-1.4-0.4
							C44.8,29.2,45,28.5,45.5,28.3z"/>
					</g>
				</g>
				<g>
					<g>
						<path class="st2" d="M49.9,30l-4.4-2.5c-0.5-0.3-0.7-0.9-0.4-1.4c0.3-0.5,0.9-0.7,1.4-0.4l4.4,2.5c0.5,0.3,0.7,0.9,0.4,1.4
							C51,30.1,50.5,30.3,49.9,30z"/>
					</g>
				</g>
				<g>
					<g>
						<path class="st2" d="M49.2,25.4v5.1c0,0.6-0.5,1-1,1c-0.6,0-1-0.5-1-1v-5.1c0-0.6,0.5-1,1-1C48.8,24.2,49.2,24.7,49.2,25.4z"
							/>
					</g>
				</g>
			</g>
		</g>
	</g>
	<g>
		<g>
			<g>
				<g>
					<path class="st4" d="M14.5,11.7c0,0.3-0.1,0.5-0.3,0.7c-0.2,0.2-0.4,0.3-0.7,0.3h-1.5c-0.5,0-0.9-0.4-0.9-0.9
						c0-0.3,0.1-0.5,0.3-0.7s0.4-0.3,0.7-0.3h1.5C14.1,10.9,14.5,11.2,14.5,11.7z"/>
				</g>
			</g>
			<g>
				<g>
					<path class="st4" d="M26.5,11.7c0,0.3-0.1,0.5-0.3,0.7c-0.2,0.2-0.4,0.3-0.7,0.3h-8.3c-0.5,0-0.9-0.4-0.9-0.9
						c0-0.3,0.1-0.5,0.3-0.7c0.2-0.2,0.4-0.3,0.7-0.3h8.3C26.1,10.9,26.5,11.2,26.5,11.7z"/>
				</g>
			</g>
		</g>
		<g>
			<g>
				<g>
					<path class="st4" d="M21.4,15.9c0,0.3-0.1,0.5-0.3,0.7c-0.2,0.2-0.4,0.3-0.7,0.3h-8.3c-0.5,0-0.9-0.4-0.9-0.9
						c0-0.3,0.1-0.5,0.3-0.7s0.4-0.3,0.7-0.3h8.3C21.1,15,21.4,15.4,21.4,15.9z"/>
				</g>
			</g>
		</g>
	</g>
</g>
</svg>
