<?xml version="1.0" encoding="utf-8"?>
<!-- Generator: Adobe Illustrator 24.3.0, SVG Export Plug-In . SVG Version: 6.00 Build 0)  -->
<svg width="60" height="60" version="1.1" id="Layer_1" xmlns="http://www.w3.org/2000/svg" xmlns:xlink="http://www.w3.org/1999/xlink" x="0px" y="0px"
	 viewBox="0 0 60 60" style="enable-background:new 0 0 60 60;" xml:space="preserve">
<style type="text/css">
	.st0{fill-rule:evenodd;clip-rule:evenodd;fill:#FD4755;}
	.st1{fill-rule:evenodd;clip-rule:evenodd;fill:#D2D2D7;}
	.st2{fill-rule:evenodd;clip-rule:evenodd;fill:#615260;}
	.st3{fill-rule:evenodd;clip-rule:evenodd;fill:#E4404D;}
</style>
<g>
	<path class="st0" d="M46.3,32l5.2-1c0.4-0.1,0.7-0.1,0.9-0.1c1.4,0,2.6,0.7,3.6,1.6c0.8,0.8,1.5,2.1,1.8,3.3
		c0.1,0.4,0.1,0.8,0.1,1.2v10.2c0,0.4,0,0.7-0.1,1.2c-0.3,1.2-0.8,2.4-1.8,3.3c-0.9,0.9-2.2,1.6-3.6,1.6c-0.3,0-0.6,0-0.9-0.1
		l-5.2-1c-0.3,2.1-1.3,3.8-2.6,5.2c-1.7,1.7-4.1,2.8-6.6,2.8H12.5c-2.6,0-4.9-1-6.6-2.8C4.2,55.6,3,53.1,3,50.6V33.5
		c0-2.6,1-4.9,2.8-6.6c1.7-1.7,4.1-2.8,6.6-2.8H37c2.6,0,4.9,1,6.6,2.8C45.1,28.1,46,30,46.3,32L46.3,32z"/>
	<path class="st1" d="M36.3,2c4.8,0,8.7,3.9,8.7,8.7s-3.9,8.7-8.7,8.7s-8.7-3.9-8.7-8.7S31.6,2,36.3,2z M12.6,2
		c4.8,0,8.7,3.9,8.7,8.7s-3.9,8.7-8.7,8.7S4,15.4,4,10.7S7.9,2,12.6,2z"/>
	<path class="st2" d="M36.3,0.1c3,0,5.6,1.2,7.6,3.1c2,2,3.1,4.6,3.1,7.6s-1.2,5.6-3.1,7.6c-2,2-4.6,3.1-7.6,3.1H12.6
		c-3,0-5.6-1.2-7.6-3.1c-1.9-2-3.1-4.7-3.1-7.6s1.2-5.6,3.1-7.6c2-2,4.6-3.1,7.6-3.1s5.6,1.2,7.6,3.1s3.1,4.6,3.1,7.6
		c0,2.5-0.8,4.9-2.3,6.6H28c-1.5-1.9-2.3-4.1-2.3-6.6c0-3,1.2-5.6,3.1-7.6C30.7,1.2,33.5,0.1,36.3,0.1L36.3,0.1z M41.1,5.9
		c-1.2-1.2-2.9-2-4.8-2c-1.9,0-3.5,0.7-4.8,2c-1.2,1.2-2,2.9-2,4.8s0.7,3.5,2,4.8c1.2,1.2,2.9,2,4.8,2c1.9,0,3.5-0.7,4.8-2
		c1.2-1.3,2-2.9,2-4.8S42.3,7.1,41.1,5.9z M17.4,5.9c-1.2-1.2-2.9-2-4.8-2S9.2,4.7,8,5.9s-2,2.9-2,4.8s0.7,3.5,2,4.8
		c1.2,1.2,2.9,2,4.8,2s3.5-0.7,4.8-2s2-2.9,2-4.8C19.4,8.8,18.6,7.1,17.4,5.9L17.4,5.9z"/>
	<path class="st3" d="M12.5,24H37c2.6,0,4.9,1,6.6,2.8c1.4,1.4,2.3,3.2,2.6,5.2l5.2-1c0.4-0.1,0.7-0.1,0.9-0.1
		c1.4,0,2.6,0.7,3.6,1.6c0.8,0.8,1.5,2.1,1.8,3.3c0.2,0.3,0.2,0.7,0.2,1.1v10.2c0,0.4,0,0.7-0.1,1.2c-0.3,1.2-0.8,2.4-1.8,3.3
		c-0.4,0.4-0.8,0.7-1.3,0.9c0.4-0.7,0.7-1.3,0.7-2c0.1-0.5,0.1-0.8,0.1-1.2V39.1c0-0.4,0-0.7-0.1-1.2c-0.3-1.2-0.8-2.4-1.8-3.3
		c-0.9-0.9-2.2-1.6-3.6-1.6c-0.3,0-0.6,0-0.9,0.1l-2.8,0.6v16.8c0,2.6-1,4.9-2.8,6.6c-0.7,0.7-1.4,1.2-2.2,1.7
		c1.3-1.6,2.1-3.7,2.1-6V35.8c0-2.6-1-4.9-2.8-6.6c-1.7-1.7-4.1-2.8-6.6-2.8H9.6c-1.6,0-3.1,0.4-4.5,1.1c0.2-0.3,0.4-0.5,0.7-0.7
		C7.5,25.1,9.8,24,12.5,24L12.5,24z"/>
</g>
</svg>
