<svg height="512" viewBox="0 0 60 60" width="512" xmlns="http://www.w3.org/2000/svg"><g id="Page-1" fill="none" fill-rule="evenodd"><g id="034---Give-Rental-Car" fill-rule="nonzero"><path id="Shape" d="m45 30.5c-.0002751.1671245.0097438.3341073.03.5h-13.06c.0202562-.1658927.0302751-.3328755.03-.5.0052705-1.3623201-.6137748-2.6519978-1.68-3.5h16.36c-1.0662252.8480022-1.6852705 2.1376799-1.68 3.5z" fill="#7f8e94"/><path id="Shape" d="m59 29c-.0081672 1.1011688-.8988312 1.9918328-2 2h-3.03c.0202562-.1658927.0302751-.3328755.03-.5.0052705-1.3623201-.6137748-2.6519978-1.68-3.5h4.68c1.1032019.0032948 1.9967052.8967981 2 2z" fill="#7f8e94"/><path id="Shape" d="m23 30.5c-.0002751.1671245.0097438.3341073.03.5h-4.03c-1.1032019-.0032948-1.9967052-.8967981-2-2 .0081672-1.1011688.8988312-1.9918328 2-2h5.68c-1.0662252.8480022-1.6852705 2.1376799-1.68 3.5z" fill="#7f8e94"/><path id="Shape" d="m32 30.5c.0002751.1671245-.0097438.3341073-.03.5-.2633618 2.2693607-2.1854087 3.9812515-4.47 3.9812515s-4.2066382-1.7118908-4.47-3.9812515c-.0202562-.1658927-.0302751-.3328755-.03-.5 0-2.4852814 2.0147186-4.5 4.5-4.5s4.5 2.0147186 4.5 4.5z" fill="#3f51b5"/><path id="Shape" d="m30.32 27c-1.2125037-.9828135-2.8490469-1.263905-4.32-.742.4795733.1691933.9261857.4202436 1.32.742 1.0662252.8480022 1.6852705 2.1376799 1.68 3.5.0002751.1671245-.0097438.3341073-.03.5-.1932726 1.7102592-1.3467822 3.1597197-2.97 3.732 1.2922928.4689414 2.7284887.3171552 3.8942052-.411564 1.1657165-.7287193 1.9312766-1.9533072 2.0757948-3.320436.0202562-.1658927.0302751-.3328755.03-.5.0052705-1.3623201-.6137748-2.6519978-1.68-3.5z" fill="#283593"/><path id="Shape" d="m54 30.5c.0002751.1671245-.0097438.3341073-.03.5-.2633618 2.2693607-2.1854087 3.9812515-4.47 3.9812515s-4.2066382-1.7118908-4.47-3.9812515c-.0202562-.1658927-.0302751-.3328755-.03-.5 0-2.4852814 2.0147186-4.5 4.5-4.5s4.5 2.0147186 4.5 4.5z" fill="#3f51b5"/><path id="Shape" d="m52.32 27c-1.2125037-.9828135-2.8490469-1.263905-4.32-.742.4795733.1691933.9261857.4202436 1.32.742 1.0662252.8480022 1.6852705 2.1376799 1.68 3.5.0002751.1671245-.0097438.3341073-.03.5-.1932726 1.7102592-1.3467822 3.1597197-2.97 3.732 1.2922928.4689414 2.7284887.3171552 3.8942052-.411564 1.1657165-.7287193 1.9312766-1.9533072 2.0757948-3.320436.0202562-.1658927.0302751-.3328755.03-.5.0052705-1.3623201-.6137748-2.6519978-1.68-3.5z" fill="#283593"/><path id="Shape" d="m57 21v6h-4.68c-1.6435662-1.3334101-3.9964338-1.3334101-5.64 0h-16.36c-1.6435662-1.3334101-3.9964338-1.3334101-5.64 0h-5.68v-4h3c1.1032019-.0032948 1.9967052-.8967981 2-2v-2h31c1.1032019.0032948 1.9967052.8967981 2 2z" fill="#f44335"/><path id="Shape" d="m55 19h-3c1.1032019.0032948 1.9967052.8967981 2 2v6h3v-6c-.0032948-1.1032019-.8967981-1.9967052-2-2z" fill="#c81e1e"/><path id="Shape" d="m24 19v2c-.0032948 1.1032019-.8967981 1.9967052-2 2h-3v-2c.0032948-1.1032019.8967981-1.9967052 2-2z" fill="#ffdc00"/><path id="Shape" d="m40 11v8h-13l3.45-6.89c.33773-.6796577 1.031056-1.1095973 1.79-1.11z" fill="#02a9f4"/><path id="Shape" d="m53 19h-13v-8h7.76c.758944.0004027 1.45227.4303423 1.79 1.11z" fill="#02a9f4"/><path id="Shape" d="m49.55 12.11c-.33773-.6796577-1.031056-1.1095973-1.79-1.11h-3c.758944.0004027 1.45227.4303423 1.79 1.11l3.45 6.89h3z" fill="#0377bc"/><path id="Shape" d="m10 36v21c0 1.1045695-.8954305 2-2 2h-5c-1.10320187-.0032948-1.9967052-.8967981-2-2v-21c.0032948-1.1032019.89679813-1.9967052 2-2h5c1.10320187.0032948 1.9967052.8967981 2 2z" fill="#9d27b0"/><path id="Shape" d="m8 34h-3c1.10320187.0032948 1.9967052.8967981 2 2v21c0 1.1045695-.8954305 2-2 2h3c1.1045695 0 2-.8954305 2-2v-21c-.0032948-1.1032019-.89679813-1.9967052-2-2z" fill="#6a1b9a"/><path id="Shape" d="m57.68 45.57-18.74 11.41c-1.0968305.667384-2.3560847 1.020252-3.64 1.02l-25.57.0000001c.17625351-.3038397.26937666-.6487403.27-1.0000001v-21h2.8c2.0715011.0028959 4.0808416.7079276 5.7 2s3.6284989 1.9971041 5.7 2h5.23c1.7582968-.0025667 3.3881205.9206201 4.29 2.43l.09.15c.852769 1.4249594.6259838 3.2474872-.55 4.42h2.35c.4319935.0002223.8610725-.0707278 1.27-.21l18.51-6.17c1.120338-.3678364 2.3505552.0181141 3.06.96v.01c.4649441.6171961.6465512 1.4025179.4997758 2.1611752s-.608183 1.4195768-1.2697758 1.8188248z" fill="#ffe0b2"/><path id="Shape" d="m58.45 41.59v-.01c-.7094448-.9418859-1.939662-1.3278364-3.06-.96l-.749.25c.3140349.1807419.5890261.4220816.809.71v.01c.4649441.6171961.6465512 1.4025179.4997758 2.1611752s-.608183 1.4195768-1.2697758 1.8188248l-18.74 11.41c-1.0968305.667384-2.3560847 1.020252-3.64 1.0200001l3-.0000001c1.2839153.000252 2.5431695-.352616 3.64-1.02l18.74-11.41c.6615928-.399248 1.1230004-1.0601675 1.2697758-1.8188248s-.0348317-1.5439791-.4997758-2.1611752z" fill="#dfc49c"/><path id="Shape" d="m17 3v3c-.0045581 1.98856592-1.1804604 3.78769644-3 4.59-.6322676.2699128-1.3125301.4093666-2 .41h-2c-.68746986-.0006334-1.36773241-.1400872-2-.41-1.81953956-.80230356-2.99544186-2.60143408-3-4.59v-3c.0032948-1.10320187.89679813-1.9967052 2-2h8c1.1032019.0032948 1.9967052.89679813 2 2z" fill="#3f51b5"/><path id="Shape" d="m12.35 15.65c-.1905714.1944218-.1905714.5055782 0 .7l1.3 1.3c.1905714.1944218.1905714.5055782 0 .7l-1.3 1.3c-.1905714.1944218-.1905714.5055782 0 .7l1.5 1.5c.0975574.0941446.151846.2244373.15.36v2.12c.0011748.2165592-.0691246.4274575-.2.6l-2 2.67c-.1888544.2518058-.4852427.4-.8.4s-.6111456-.1481942-.8-.4l-2-2.67c-.13087541-.1725425-.20117484-.3834408-.2-.6l-.00001449-13.74c.63228208.2699128 1.31254463.4093666 2.00001449.41h2c.6874699-.0006334 1.3677324-.1400872 2.0000456-.41l-.0000456 3.2c.001846.1355627-.0524426.2658554-.15.36z" fill="#ffdc00"/><path id="Shape" d="m12 6h-2c-.55228475 0-1-.44771525-1-1s.44771525-1 1-1h2c.5522847 0 1 .44771525 1 1s-.4477153 1-1 1z" fill="#283593"/><g fill="#000"><path id="Shape" d="m58 26.184v-5.184c0-1.6568542-1.3431458-3-3-3h-1.382l-3.171-6.342c-.5051529-1.0189304-1.5457301-1.66197063-2.683-1.658h-15.528c-1.1372699-.00397063-2.1778471.6390696-2.683 1.658l-3.171 6.342h-5.382c-1.6568542 0-3 1.3431458-3 3v5.181c-.4178057.1425216-.7970105.3796957-1.108.693-.5739985.5579289-.8960613 1.3255361-.892 2.126 0 1.6568542 1.3431458 3 3 3h3.213c.668605 2.3662697 2.8280846 4.0001235 5.287 4.0001235s4.618395-1.6338538 5.287-4.0001235h11.426c.668605 2.3662697 2.8280846 4.0001235 5.287 4.0001235s4.618395-1.6338538 5.287-4.0001235h2.213c1.6534434-.0082058 2.9917942-1.3465566 3-3-.0052514-1.2667854-.8056491-2.3937454-2-2.816zm-2-5.184v5h-3.348c-1.8889987-1.3313193-4.4110013-1.3313193-6.3 0h-5.352v-3c0-.5522847-.4477153-1-1-1s-1 .4477153-1 1v3h-8.348c-1.8889987-1.3313193-4.4110013-1.3313193-6.3 0h-4.352v-2h2c1.6568542 0 3-1.3431458 3-3v-1h30c.5522847 0 1 .4477153 1 1zm-23.607 7h12.214c-.3206155.623114-.5182145 1.3021485-.582 2h-11.05c-.0637855-.6978515-.2613845-1.376886-.582-2zm16.265-15.447 2.724 5.447h-10.382v-6.0000051l6.764.0000051c.379067-.0012129.7258235.2132797.894.553zm-17.316 0c.1681765-.3397203.514933-.5542129.894-.553l6.764-.0000051v6.0000051h-10.382zm-10.342 7.447h2v1c0 .5522847-.4477153 1-1 1h-2v-1c0-.5522847.4477153-1 1-1zm-3 9c-.0008733-.2694422.1099083-.5272084.306-.712.1823963-.1865985.4330776-.2906276.694-.288h3.607c-.3206155.623114-.5182145 1.3021485-.582 2h-3.025c-.5522847 0-1-.4477153-1-1zm9.5 5c-1.4156179 0-2.6918449-.8527476-3.2335784-2.160608s-.2422883-2.8132727.7587047-3.8142657 2.5064053-1.3004382 3.8142657-.7587047 2.160608 1.8179605 2.160608 3.2335784c0 1.9329966-1.5670034 3.5-3.5 3.5zm22 0c-1.9329966 0-3.5-1.5670034-3.5-3.5s1.5670034-3.5 3.5-3.5 3.5 1.5670034 3.5 3.5-1.5670034 3.5-3.5 3.5zm8.194-4.288c-.1823963.1865985-.4330776.2906276-.694.288h-2.025c-.0637855-.6978515-.2613845-1.376886-.582-2h2.607c.5522847 0 1 .4477153 1 1 .0008733.2694422-.1099083.5272084-.306.712z"/><path id="Shape" d="m33 24h2c.5522847 0 1-.4477153 1-1s-.4477153-1-1-1h-2c-.5522847 0-1 .4477153-1 1s.4477153 1 1 1z"/><path id="Shape" d="m44 24h2c.5522847 0 1-.4477153 1-1s-.4477153-1-1-1h-2c-.5522847 0-1 .4477153-1 1s.4477153 1 1 1z"/><path id="Shape" d="m55.073 39.676-18.511 6.17c-.3056498.10203-.6257704.1540327-.948.154h-.575c.4755431-1.3021295.3385067-2.7492771-.373-3.939l-.089-.147c-1.0881016-1.8035179-3.038674-2.9082736-5.145-2.914h-5.232c-1.845108-.0020745-3.634951-.6299473-5.077-1.781-1.7963064-1.4330224-4.0251194-2.2152043-6.323-2.219h-1.984c-.4222546-1.1943509-1.54921457-1.9947486-2.816-2h-5c-1.65685425 0-3 1.3431458-3 3v21c0 1.6568542 1.34314575 3 3 3h5c.84849384-.0026614 1.6557601-.3662948 2.22-1h25.08c1.467221.00049 2.906212-.4032856 4.159-1.167l18.741-11.409c1.6276173-.9901832 2.2517913-3.0449436 1.4499321-4.7731283-.8018593-1.7281847-2.7738821-2.5783375-4.5809321-1.9748717zm-47.073 18.324h-5c-.55228475 0-1-.4477153-1-1v-21c0-.5522847.44771525-1 1-1h5c.55228475 0 1 .4477153 1 1v21c0 .5522847-.44771525 1-1 1zm49.968-14.441c-.0895889.4817962-.3806653.9024017-.8 1.156l-18.749 11.41c-.9395909.5725464-2.018709.8752808-3.119.875l-24.3.0000002v-20.0000002h1.8c1.845108.0020745 3.634951.6299473 5.077 1.781 1.7963064 1.4330224 4.0251194 2.2152043 6.323 2.219h5.23c1.4042669.0039537 2.7046337.7405754 3.43 1.943l.089.147c.5459744.910232.4870881 2.0602928-.149 2.91h-6.075c-1.9743155-.002054-3.9047017.5827006-5.546 1.68l-.733.488c-.3042178.195156-.4794522.5392835-.4583434.9001003s.2352753.6821632.5601743.8405141.7099611.1290596 1.0071691-.0766144l.733-.488c1.3131213-.8778224 2.8574884-1.3456226 4.437-1.344h8.889c.5373321.0001732 1.0711793-.0862688 1.581-.256l18.511-6.171c.7127634-.2378448 1.497674.0090028 1.946.612.2965895.3919166.4115763.891891.316 1.374z"/><path id="Shape" d="m15 13.793v-2.6c1.8554315-1.0712335 2.9988742-3.0505328 3-5.193v-3c0-1.65685425-1.3431458-3-3-3h-8c-1.65685425 0-3 1.34314575-3 3v3c.00290977 2.14068039 1.14611355 4.1176608 3 5.188v13.145c.00057444.432647.14087134.8535377.4 1.2l2 2.667c.37770876.5036117.9704854.8 1.6.8s1.2222912-.2963883 1.6-.8l2-2.666c.2591929-.3464287.3994971-.7673413.4-1.2v-2.127c-.0012342-.3976117-.158937-.7787567-.439-1.061l-1.147-1.146.94-.939c.2815125-.2813322.4396798-.6630087.4396798-1.061s-.1581673-.7796678-.4396798-1.061l-.94-.939 1.147-1.146c.280063-.2822433.4377658-.6633883.439-1.061zm-9-10.793c0-.55228475.44771525-1 1-1h8c.5522847 0 1 .44771525 1 1v3c0 2.209139-1.790861 4-4 4h-2c-2.209139 0-4-1.790861-4-4zm5.646 14.061.94.939-.94.939c-.2815125.2813322-.4396798.6630087-.4396798 1.061s.1581673.7796678.4396798 1.061l1.354 1.353v1.919l-2 2.667-2-2.667v-12.423c.33023338.0578863.6647376.0879917 1 .09h2c.3352624-.0020083.6697666-.0321137 1-.09v1.676l-1.354 1.353c-.2815125.2813322-.4396798.6630087-.4396798 1.061s.1581673.7796678.4396798 1.061z"/></g></g></g></svg>