<svg height="512" viewBox="0 0 512 512" width="512" xmlns="http://www.w3.org/2000/svg"><g><g><path d="m344 360v72h-320v-72a24.006 24.006 0 0 1 24-24h272a24.006 24.006 0 0 1 24 24z" fill="#ffda44"/><path d="m284.36 272h-200.72l.78-4.29a23.987 23.987 0 0 1 23.61-19.71h151.94a23.987 23.987 0 0 1 23.61 19.71z" fill="#ffda44"/><path d="m296 336h-224l11.64-64h200.72z" fill="#3d9ae2"/><path d="m16 432h336v24h-336z" fill="#e0e0e2"/><path d="m64 496h-16a16 16 0 0 1 -16-16v-24h48v24a16 16 0 0 1 -16 16z" fill="#57565c"/><path d="m320 496h-16a16 16 0 0 1 -16-16v-24h48v24a16 16 0 0 1 -16 16z" fill="#57565c"/><path d="m248 408h-128l16-48h96z" fill="#e0e0e2"/><circle cx="72" cy="384" fill="#ff9811" r="24"/><circle cx="296" cy="384" fill="#ff9811" r="24"/><path d="m144 216h80v32h-80z" fill="#e0e0e2"/><path d="m384 72c0 30.928-56 88-56 88s-56-57.072-56-88a56 56 0 0 1 112 0z" fill="#ab2300"/><circle cx="328" cy="72" fill="#e0e0e2" r="16"/></g><g><path d="m239.589 357.47a8 8 0 0 0 -7.589-5.47h-96a8 8 0 0 0 -7.589 5.47l-16 48a8 8 0 0 0 7.589 10.53h128a8 8 0 0 0 7.589-10.53zm-108.489 42.53 10.666-32h84.468l10.666 32z"/><path d="m72 352a32 32 0 1 0 32 32 32.036 32.036 0 0 0 -32-32zm0 48a16 16 0 1 1 16-16 16.019 16.019 0 0 1 -16 16z"/><path d="m296 352a32 32 0 1 0 32 32 32.036 32.036 0 0 0 -32-32zm0 48a16 16 0 1 1 16-16 16.019 16.019 0 0 1 -16 16z"/><path d="m472 200h-120a16.021 16.021 0 0 1 -16-16v-20.77c11.75-12.3 56-60.66 56-91.23a64 64 0 0 0 -128 0c0 30.57 44.25 78.93 56 91.23v20.77a32.036 32.036 0 0 0 32 32h120a16.021 16.021 0 0 1 16 16v88a8.011 8.011 0 0 1 -8 8h-88a24 24 0 0 0 0 48h56a8.011 8.011 0 0 1 8 8v40a16.021 16.021 0 0 1 -16 16h-80v-8a8 8 0 0 0 -8-8v-64a32.036 32.036 0 0 0 -32-32h-17.32l-10.45-57.43v-.01l-.78-4.28a31.969 31.969 0 0 0 -31.48-26.28h-27.97v-24a8 8 0 0 0 -8-8h-80a8 8 0 0 0 -8 8v24h-27.97a31.969 31.969 0 0 0 -31.48 26.28l-.78 4.28v.01l-10.45 57.43h-17.32a32.036 32.036 0 0 0 -32 32v64a8 8 0 0 0 -8 8v24a8 8 0 0 0 8 8h8v16a24.032 24.032 0 0 0 24 24h16a24.032 24.032 0 0 0 24-24v-16h192v16a24.032 24.032 0 0 0 24 24h16a24.032 24.032 0 0 0 24-24v-16h8a8 8 0 0 0 8-8h80a32.036 32.036 0 0 0 32-32v-40a24.032 24.032 0 0 0 -24-24h-56a8 8 0 0 1 0-16h88a24.032 24.032 0 0 0 24-24v-88a32.036 32.036 0 0 0 -32-32zm-144-51.67c-5.27-5.74-13.49-15.03-21.67-25.62-16.98-22-26.33-40-26.33-50.71a48 48 0 0 1 96 0c0 10.68-9.32 28.65-26.24 50.59-8.19 10.62-16.47 19.97-21.76 25.74zm-176 75.67h64v16h-64zm-43.97 32h151.94a15.979 15.979 0 0 1 13.86 8h-179.66a15.979 15.979 0 0 1 13.86-8zm-17.71 24h187.36l8.73 48h-204.82zm-58.32 80a16.021 16.021 0 0 1 16-16h272a16.021 16.021 0 0 1 16 16v64h-304zm40 120a8.011 8.011 0 0 1 -8 8h-16a8.011 8.011 0 0 1 -8-8v-16h32zm256 0a8.011 8.011 0 0 1 -8 8h-16a8.011 8.011 0 0 1 -8-8v-16h32zm16-32h-320v-8h320z"/><path d="m352 72a24 24 0 1 0 -24 24 24.027 24.027 0 0 0 24-24zm-32 0a8 8 0 1 1 8 8 8.009 8.009 0 0 1 -8-8z"/></g></g></svg>