<?xml version="1.0" encoding="UTF-8" standalone="no"?>
<!-- Created with Inkscape (http://www.inkscape.org/) -->

<svg
   version="1.1"
   id="svg4335"
   xml:space="preserve"
   width="682.66669"
   height="682.66669"
   viewBox="0 0 682.66669 682.66669"
   xmlns="http://www.w3.org/2000/svg"
   xmlns:svg="http://www.w3.org/2000/svg"><defs
     id="defs4339"><clipPath
       clipPathUnits="userSpaceOnUse"
       id="clipPath4349"><path
         d="M 0,512 H 512 V 0 H 0 Z"
         id="path4347" /></clipPath></defs><g
     id="g4341"
     transform="matrix(1.3333333,0,0,-1.3333333,0,682.66667)"><g
       id="g4343"><g
         id="g4345"
         clip-path="url(#clipPath4349)"><g
           id="g4351"
           transform="translate(449.9971,177.9717)"><path
             d="m 0,0 c -24.936,0 -45.15,-20.215 -45.15,-45.151 0,-24.936 20.214,-45.151 45.15,-45.151 24.937,0 45.151,20.215 45.151,45.151 C 45.151,-20.215 24.937,0 0,0"
             style="fill:#655e67;fill-opacity:1;fill-rule:nonzero;stroke:none"
             id="path4353" /></g><g
           id="g4355"
           transform="translate(449.9971,177.9717)"><path
             d="m 0,0 c -24.936,0 -45.15,-20.215 -45.15,-45.151 0,-24.936 20.214,-45.151 45.15,-45.151 24.937,0 45.151,20.215 45.151,45.151 C 45.151,-20.215 24.937,0 0,0 Z"
             style="fill:none;stroke:#000000;stroke-width:15;stroke-linecap:round;stroke-linejoin:round;stroke-miterlimit:10;stroke-dasharray:none;stroke-opacity:1"
             id="path4357" /></g><g
           id="g4359"
           transform="translate(449.9971,148.8838)"><path
             d="m 0,0 c -8.871,0 -16.062,-7.192 -16.062,-16.063 0,-8.871 7.191,-16.063 16.062,-16.063 8.871,0 16.063,7.192 16.063,16.063 C 16.063,-7.192 8.871,0 0,0"
             style="fill:#f0e9e6;fill-opacity:1;fill-rule:nonzero;stroke:none"
             id="path4361" /></g><g
           id="g4363"
           transform="translate(449.9971,148.8838)"><path
             d="m 0,0 c -8.871,0 -16.062,-7.192 -16.062,-16.063 0,-8.871 7.191,-16.063 16.062,-16.063 8.871,0 16.063,7.192 16.063,16.063 C 16.063,-7.192 8.871,0 0,0 Z"
             style="fill:none;stroke:#000000;stroke-width:15;stroke-linecap:round;stroke-linejoin:round;stroke-miterlimit:10;stroke-dasharray:none;stroke-opacity:1"
             id="path4365" /></g><g
           id="g4367"
           transform="translate(457.0811,211.3662)"><path
             d="M 0,0 H -85.747 V -54.743 H 40.096 c 4.044,0 7.323,3.279 7.323,7.324 C 47.419,-21.23 26.188,0 0,0"
             style="fill:#77d1b3;fill-opacity:1;fill-rule:nonzero;stroke:none"
             id="path4369" /></g><g
           id="g4371"
           transform="translate(457.0811,211.3662)"><path
             d="m 0,0 h -21.064 c 26.188,0 47.418,-21.23 47.418,-47.419 0,-4.045 -3.279,-7.324 -7.324,-7.324 h 21.066 c 4.045,0 7.323,3.279 7.323,7.324 C 47.419,-21.23 26.188,0 0,0"
             style="fill:#67b59f;fill-opacity:1;fill-rule:nonzero;stroke:none"
             id="path4373" /></g><g
           id="g4375"
           transform="translate(457.0811,211.3662)"><path
             d="M 0,0 H -85.747 V -54.743 H 40.096 c 4.044,0 7.323,3.279 7.323,7.324 C 47.419,-21.23 26.188,0 0,0 Z"
             style="fill:none;stroke:#000000;stroke-width:15;stroke-linecap:round;stroke-linejoin:round;stroke-miterlimit:10;stroke-dasharray:none;stroke-opacity:1"
             id="path4377" /></g><g
           id="g4379"
           transform="translate(209.7256,176.7412)"><path
             d="m 0,0 v 57.925 h 57.392 c 5.666,0 10.258,-4.592 10.258,-10.258 V 0 Z"
             style="fill:#655e67;fill-opacity:1;fill-rule:nonzero;stroke:none"
             id="path4381" /></g><g
           id="g4383"
           transform="translate(209.7256,176.7412)"><path
             d="m 0,0 v 57.925 h 57.392 c 5.666,0 10.258,-4.592 10.258,-10.258 V 0 Z"
             style="fill:none;stroke:#000000;stroke-width:15;stroke-linecap:round;stroke-linejoin:round;stroke-miterlimit:10;stroke-dasharray:none;stroke-opacity:1"
             id="path4385" /></g><g
           id="g4387"
           transform="translate(209.7256,176.7412)"><path
             d="M 0,0 V 215.653"
             style="fill:none;stroke:#000000;stroke-width:15;stroke-linecap:round;stroke-linejoin:round;stroke-miterlimit:10;stroke-dasharray:none;stroke-opacity:1"
             id="path4389" /></g><g
           id="g4391"
           transform="translate(330.0352,176.7412)"><path
             d="m 0,0 h -175.856 c -5.523,0 -10,4.477 -10,10 v 41.098 c 0,8.748 -7.092,15.84 -15.84,15.84 h -31.669 v 134.243 c 0,7.992 6.479,14.472 14.471,14.472 H -9.913 c 6.234,0 11.457,-4.72 12.086,-10.924 L 13.657,91.409 V 13.657 C 13.657,6.114 7.543,0 0,0 M 121.741,112.384 54.722,233.388 c -4.853,8.763 -14.081,14.201 -24.099,14.201 h -288.487 c -22.401,0 -41.551,-16.121 -45.371,-38.193 l -19.3,-111.509 V -17.46 c 0,-7.996 6.481,-14.477 14.477,-14.477 H 41.607 c 18.934,0 36.076,11.195 43.688,28.531 l 37.813,86.12 c 4.199,9.561 3.693,20.535 -1.367,29.67"
             style="fill:#e9a761;fill-opacity:1;fill-rule:nonzero;stroke:none"
             id="path4393" /></g><g
           id="g4395"
           transform="translate(451.7764,289.125)"><path
             d="m 0,0 -67.02,121.004 c -4.853,8.764 -14.081,14.201 -24.098,14.201 h -27.712 c 10.017,0 19.245,-5.437 24.099,-14.201 L -27.712,0 c 5.059,-9.135 5.565,-20.108 1.366,-29.67 l -37.813,-86.12 c -7.612,-17.336 -24.754,-28.531 -43.688,-28.531 h 27.713 c 18.934,0 36.075,11.195 43.688,28.531 L 1.367,-29.67 C 5.565,-20.108 5.06,-9.135 0,0"
             style="fill:#e38523;fill-opacity:1;fill-rule:nonzero;stroke:none"
             id="path4397" /></g><g
           id="g4399"
           transform="translate(343.6924,243.6797)"><path
             d="m 0,0 v -53.282 c 0,-7.542 -6.114,-13.656 -13.657,-13.656 h -175.857 c -5.522,0 -10,4.477 -10,10 v 41.097 c 0,8.749 -7.091,15.841 -15.84,15.841 h -120.838 v -84.398 c 0,-7.996 6.481,-14.477 14.477,-14.477 H 27.95 c 18.934,0 36.075,11.194 43.688,28.531 L 102.524,0 Z"
             style="fill:#77d1b3;fill-opacity:1;fill-rule:nonzero;stroke:none"
             id="path4401" /></g><g
           id="g4403"
           transform="translate(415.3301,173.3354)"><path
             d="M 0,0 30.887,70.344 H 3.174 L -27.713,0 c -1.218,-2.774 -2.682,-5.388 -4.355,-7.827 -3.747,-0.941 -7.643,-1.44 -11.62,-1.44 h -349.666 c -7.995,0 -14.476,6.481 -14.476,14.477 v -19.264 c 0,-7.996 6.481,-14.477 14.477,-14.477 H -43.688 C -24.761,-28.531 -7.6,-17.306 0,0"
             style="fill:#67b59f;fill-opacity:1;fill-rule:nonzero;stroke:none"
             id="path4405" /></g><g
           id="g4407"
           transform="translate(451.7764,289.125)"><path
             d="m 0,0 -57.196,103.269 h -14.686 c -5.723,0 -10.138,-5.039 -9.386,-10.712 l 12.732,-96.035 c 1.119,-8.446 8.322,-14.757 16.843,-14.757 H 4.123 C 4.502,-11.966 3.12,-5.633 0,0"
             style="fill:#8a94db;fill-opacity:1;fill-rule:nonzero;stroke:none"
             id="path4409" /></g><g
           id="g4411"
           transform="translate(379.8945,392.394)"><path
             d="m 0,0 c -4.432,0 -8.066,-3.025 -9.138,-7.022 l 53.308,-96.247 c 3.119,-5.633 4.502,-11.966 4.123,-18.235 H 76.005 C 77.045,-104.351 69.231,-101.792 14.686,0 Z"
             style="fill:#717ed4;fill-opacity:1;fill-rule:nonzero;stroke:none"
             id="path4413" /></g><g
           id="g4415"
           transform="translate(330.0352,176.7412)"><path
             d="m 0,0 h -175.856 c -5.523,0 -10,4.477 -10,10 v 41.098 c 0,8.748 -7.092,15.84 -15.84,15.84 h -31.669 v 134.243 c 0,7.992 6.479,14.472 14.471,14.472 H -9.913 c 6.234,0 11.457,-4.72 12.086,-10.924 L 13.657,91.409 V 13.657 C 13.657,6.114 7.543,0 0,0 Z M -100.76,-31.937 H 41.607 c 18.934,0 36.076,11.195 43.688,28.531 l 37.813,86.12 c 4.199,9.561 3.693,20.535 -1.367,29.67 l -21.293,38.446 m -17.174,31.005 -28.552,51.553 c -4.853,8.763 -14.081,14.201 -24.099,14.201 h -288.487 c -22.401,0 -41.551,-16.121 -45.371,-38.193 l -4.818,-27.833 m -6.057,-35 -8.425,-48.676 V -17.46 c 0,-7.996 6.481,-14.477 14.477,-14.477 h 172.299"
             style="fill:none;stroke:#000000;stroke-width:15;stroke-linecap:round;stroke-linejoin:round;stroke-miterlimit:10;stroke-dasharray:none;stroke-opacity:1"
             id="path4417" /></g><g
           id="g4419"
           transform="translate(394.5801,392.394)"><path
             d="m 0,0 h -14.686 c -5.723,0 -10.137,-5.039 -9.385,-10.712 l 12.731,-96.035 c 1.119,-8.446 8.322,-14.757 16.843,-14.757 h 55.816"
             style="fill:none;stroke:#000000;stroke-width:15;stroke-linecap:round;stroke-linejoin:round;stroke-miterlimit:10;stroke-dasharray:none;stroke-opacity:1"
             id="path4421" /></g><g
           id="g4423"
           transform="translate(446.2168,243.6797)"><path
             d="M 0,0 H -102.524"
             style="fill:none;stroke:#000000;stroke-width:15;stroke-linecap:round;stroke-linejoin:round;stroke-miterlimit:10;stroke-dasharray:none;stroke-opacity:1"
             id="path4425" /></g><g
           id="g4427"
           transform="translate(144.1787,227.8389)"><path
             d="M 0,0 C 0,8.749 -7.092,15.841 -15.84,15.841 H -136.679"
             style="fill:none;stroke:#000000;stroke-width:15;stroke-linecap:round;stroke-linejoin:round;stroke-miterlimit:10;stroke-dasharray:none;stroke-opacity:1"
             id="path4429" /></g><g
           id="g4431"
           transform="translate(81.5029,177.9717)"><path
             d="m 0,0 c -24.936,0 -45.15,-20.215 -45.15,-45.151 0,-24.936 20.214,-45.151 45.15,-45.151 24.937,0 45.151,20.215 45.151,45.151 C 45.151,-20.215 24.937,0 0,0"
             style="fill:#655e67;fill-opacity:1;fill-rule:nonzero;stroke:none"
             id="path4433" /></g><g
           id="g4435"
           transform="translate(81.5029,177.9717)"><path
             d="m 0,0 c -24.936,0 -45.15,-20.215 -45.15,-45.151 0,-24.936 20.214,-45.151 45.15,-45.151 24.937,0 45.151,20.215 45.151,45.151 C 45.151,-20.215 24.937,0 0,0 Z"
             style="fill:none;stroke:#000000;stroke-width:15;stroke-linecap:round;stroke-linejoin:round;stroke-miterlimit:10;stroke-dasharray:none;stroke-opacity:1"
             id="path4437" /></g><g
           id="g4439"
           transform="translate(81.5029,148.8838)"><path
             d="m 0,0 c -8.871,0 -16.062,-7.192 -16.062,-16.063 0,-8.871 7.191,-16.063 16.062,-16.063 8.872,0 16.063,7.192 16.063,16.063 C 16.063,-7.192 8.872,0 0,0"
             style="fill:#f0e9e6;fill-opacity:1;fill-rule:nonzero;stroke:none"
             id="path4441" /></g><g
           id="g4443"
           transform="translate(81.5029,148.8838)"><path
             d="m 0,0 c -8.871,0 -16.062,-7.192 -16.062,-16.063 0,-8.871 7.191,-16.063 16.062,-16.063 8.872,0 16.063,7.192 16.063,16.063 C 16.063,-7.192 8.872,0 0,0 Z"
             style="fill:none;stroke:#000000;stroke-width:15;stroke-linecap:round;stroke-linejoin:round;stroke-miterlimit:10;stroke-dasharray:none;stroke-opacity:1"
             id="path4445" /></g><g
           id="g4447"
           transform="translate(65.0664,278.1279)"><path
             d="M 0,0 H -25.599"
             style="fill:none;stroke:#000000;stroke-width:15;stroke-linecap:round;stroke-linejoin:round;stroke-miterlimit:10;stroke-dasharray:none;stroke-opacity:1"
             id="path4449" /></g><g
           id="g4451"
           transform="translate(65.0664,308.6387)"><path
             d="M 0,0 H -19.599"
             style="fill:none;stroke:#000000;stroke-width:15;stroke-linecap:round;stroke-linejoin:round;stroke-miterlimit:10;stroke-dasharray:none;stroke-opacity:1"
             id="path4453" /></g></g></g></g></svg>
