<?xml version="1.0" encoding="utf-8"?>
<!-- Generator: Adobe Illustrator 24.3.0, SVG Export Plug-In . SVG Version: 6.00 Build 0)  -->
<svg version="1.1" id="man-launching-business-startup"
	 xmlns="http://www.w3.org/2000/svg" xmlns:xlink="http://www.w3.org/1999/xlink" x="0px" y="0px" viewBox="0 0 1535.9 1484.4"
	 style="enable-background:new 0 0 1535.9 1484.4;" xml:space="preserve">
<style type="text/css">
	.st0{fill:#F1F1F6;}
	.st1{fill:#F6D6CE;}
	.st2{fill:#ED9F00;}
	.st3{fill:#FCBA06;}
	.st4{fill:#362E92;}
	.st5{fill:#EECABE;}
	.st6{fill:#362E94;}
	.st7{fill:#423EAF;}
	.st8{fill:#807DFB;}
	.st9{fill:#CED3F8;}
	.st10{fill:#20196F;}
	.st11{fill:#6B67E9;}
	.st12{fill:#5652CC;}
	.st13{fill:#FFD03E;}
	.st14{fill:#F7D3C9;}
	.st15{fill:#E9EDF7;}
	.st16{fill:#DDE2F8;}
	.st17{fill:#FFFFFF;}
	.st18{fill:none;stroke:#CED3F8;stroke-width:5;stroke-linecap:round;stroke-linejoin:round;}
</style>
<path class="st0" d="M924.8,1444c0-30.3-207-54.8-462.4-54.8S0,1413.7,0,1444s207,54.8,462.4,54.8S924.8,1474.3,924.8,1444z"/>
<path class="st0" d="M827,1411c0-19.3,138.2-35,308.7-35s308.7,15.7,308.7,35s-138.2,35-308.7,35S827,1430.3,827,1411z"/>
<path class="st1" d="M1368.7,611.5c-11.7,72.6-66.6,130.3-102.5,105.2c-28.2-19.7,54.3-86.3,87.2-105.9
	C1362.3,605.5,1368.7,611.5,1368.7,611.5L1368.7,611.5z M1246.3,635.2l-33.8,47.3l-38.6-32.8l29.6-52
	C1225.6,618.4,1246.3,635.2,1246.3,635.2z"/>
<path class="st2" d="M1157.1,547c14.2,13.2,30.1,31.7,47.9,48.4l-31.1,54.3l-38.2-32.4L1157.1,547z"/>
<path class="st3" d="M1097.2,521.4c-29.7,5.1-66.5,27.9-67.8,92.3c-1.5,71.8-7.6,193.3-7.6,193.3h196
	c-4.3-64.6-11.7-131.7-24.7-191.5C1178.3,547.8,1126.9,516.3,1097.2,521.4z"/>
<path class="st1" d="M1079.7,479.4c2.1,9.2,10.9,33,8.1,45.3c10.9,24,67.6,23.6,49.1,5.9c-3.6-3.5-3.8-17.2-2.3-20.8
	c5.1-12.4,13,2.7,20-17.1c8.2-23.1,6.8-66.9-4.8-77.9c-13.1-12.3-38.1-26.5-67.6-4.7C1058.1,427.9,1075.4,460.7,1079.7,479.4
	L1079.7,479.4z"/>
<path class="st4" d="M1101.1,455.7c7.2-0.7,1.6-19,6.3-24c5.7-5.9,26.1-11.1,46.4-11s30.1-27.4,16.1-37s-24.1,6.7-34,4.5
	c-11.6-2.6-11-16.4-27.4-13.2c-15.2,2.9-6.7,16.4-16.2,20c-9.8,3.7-25.9-8.1-36.5,8.9c-7.9,12.6,6.5,18,6.4,31.1
	c-0.1,8.2-17.8,34.2,5.1,42.1s15.5-13.9,13.4-22.9s1.4-15.6,6-16.2S1090.9,456.6,1101.1,455.7L1101.1,455.7z M1217.7,807.1
	c0,73.1-0.3,400.9-0.3,550.7h-26.6c-14.9-37.1-114.4-480.1-124.5-550.7H1217.7z"/>
<path class="st5" d="M1190.9,1367.5v-9.7h26.6c0.2,6,1.2,11.9,3,17.7C1213.6,1378.1,1203.5,1371.2,1190.9,1367.5L1190.9,1367.5z"/>
<path class="st6" d="M1190.9,1367.5c12.6,3.8,22.7,10.6,29.6,8c3.7,2.7,57.5,22,63,25.8s4.8,9.8-1.2,9.8c-8.7,0-80.2-3.2-80.2-3.2
	c-1.4,1.6-2.6,3.2-2.6,3.2h-16.3C1178.3,1402.6,1179.6,1377.2,1190.9,1367.5L1190.9,1367.5z"/>
<path class="st5" d="M995.5,1367.5v-9.7h26.6c0.2,6,1.2,11.9,3,17.7C1018.2,1378.1,1008.1,1371.2,995.5,1367.5L995.5,1367.5z"/>
<path class="st6" d="M995.5,1367.5c12.6,3.8,22.7,10.6,29.6,8c3.7,2.7,57.6,22,63,25.8s4.8,9.8-1.2,9.8c-8.7,0-80.2-3.2-80.2-3.2
	c-1.4,1.6-2.6,3.2-2.6,3.2h-16.4C982.9,1402.6,984.2,1377.2,995.5,1367.5L995.5,1367.5z"/>
<path class="st7" d="M1021.7,807.1c-1.5,27.7-26.2,400.9-26.2,550.7h26.6c14.9-37.1,140.9-480.1,151-550.7H1021.7z"/>
<path class="st8" d="M931,1377.3c-4.7-0.1-9.4-0.8-14-1.9c-95.4-22.5-149-34.2-232.1-34.2c-13.3,0-24.3-4.5-32.5-13.4
	c-22.6-24.4-18.6-76.1-15.7-113.8c0.8-10.3,1.5-19.3,1.5-25.9h17.5c0,7.3-0.7,16.5-1.5,27.2c-2.5,32.6-6.3,81.8,11.1,100.5
	c4.9,5.3,11.3,7.8,19.7,7.8c84.9,0,142.2,12.5,236.1,34.7c11.5,2.7,13.8,0.8,13.8,0.7s1.7-1.8,1.5-9.9c-0.2-7.4-1.6-17.5-3.4-30.2
	c-5.3-37.5-14.3-100.4-0.8-186c14.8-94.2,68.5-135.5,125.4-179.2c31.7-24.4,64.5-49.6,93.3-85.7l13.7,10.9
	c-30.1,37.8-63.7,63.7-96.3,88.7c-56.3,43.3-105,80.8-118.7,168.1c-13.1,83-4.7,141.8,0.8,180.8c4.1,28.8,6.6,46.2-3.6,55.5
	C942.3,1376,936.8,1377.3,931,1377.3L931,1377.3z"/>
<path class="st9" d="M1531.1,583.1c7.1-8.2,6.2-20.6-2-27.7c-8.1-7-20.2-6.2-27.4,1.7l-93,105.3l29.4,26L1531.1,583.1z M1400,467.2
	c7.3-8,19.7-8.7,27.7-1.4c7.9,7.2,8.7,19.3,1.7,27.4l-93,105.3l-29.4-26L1400,467.2z"/>
<path class="st10" d="M1385.7,615.5c-72.3-63.9-140.6-104.6-152.6-91l-21.7,24.6l130.9,115.5L1385.7,615.5z"/>
<path class="st6" d="M1473.1,780.3l21.7-24.6c12-13.6-36.9-76.4-109.1-140.2l-43.4,49.1L1473.1,780.3z"/>
<path class="st7" d="M1364,640.1c72.3,63.9,121.1,126.6,109.1,140.2s-80.3-27.2-152.6-91c-72.3-63.8-121.1-126.7-109.1-140.3
	S1291.7,576.2,1364,640.1L1364,640.1z"/>
<path class="st11" d="M1338.1,897.6l118.7-134.3c9.2-10.4-34-63.7-96.5-118.9c-62.5-55.2-120.7-91.6-129.9-81.2l-118.7,134.3
	c-37.1,42-16.5,120.8,46,176S1300.9,939.6,1338.1,897.6L1338.1,897.6z"/>
<path class="st12" d="M1097.5,722.4c-6.3,23.4,1.8,51.8,29.8,79.6c43.4,43.1,97.3-4.1,113.1-22s96.4-109.1,119.7-135.5
	c-62.5-55.2-120.7-91.6-129.9-81.2l-118.6,134.3c-1.3,1.5-2.4,3-3.6,4.4C1103.5,708.2,1099.9,715,1097.5,722.4L1097.5,722.4z"/>
<path class="st13" d="M1057.6,548.6c-12.1,5.7-20.4,48.6-11.2,99.7c19.8-1.4,51.4-8.4,69.8-16
	C1105.7,581.8,1089.5,533.7,1057.6,548.6L1057.6,548.6z"/>
<path class="st1" d="M1430.6,811.6c5.7-12.8,4.1-33.4-1.7-33.6s-5.5,19.6-5.5,19.6c-1.4-3-3.3-17.3-9.3-10.6
	c-4.7,5.3,3.4,19.2,3.4,19.2c-2.1-2.3-5.2-11.9-9.8-6.5s-5.3,25-5.3,25C1408.2,826.5,1421.9,831.3,1430.6,811.6L1430.6,811.6z"/>
<path class="st14" d="M1275.5,788.2c-0.6-1.6,15-6.3,15.1-8.6s-13.7,0.5-18.4,1s-8.1,2.3-18,3.7c-8.1,1.1-7.7,0.5-10.1-0.7
	c-38-19.4-89.7-49-116.1-73c-6.3-5.8-10-46.5-15.4-78.4c-20.7,4.5-44,11.3-63.5,14.4c6.5,35.8,21.3,82.6,38.3,96.7
	c46.6,38.7,128.5,57.5,146.9,61.3l2.9,0.6c8.2,2.3,17.9,10.3,30.1,13.3c20.4,5.1,38.8-6.2,44.2-12.5S1276.2,789.8,1275.5,788.2
	L1275.5,788.2z"/>
<path class="st3" d="M287.6,1195.8c-51.2,32.8-143.3,125.4-140.2,256c-119.8-130.6-78.1-433.1,54.5-527.3
	C246.9,947.5,287.6,1195.8,287.6,1195.8z"/>
<path class="st2" d="M287.6,1195.8c0,0-29.2-178.2-65.5-246.7l-56.9,9.1l28.8,72c-25.1,40.9,4.9,108.6-12,156
	s-62.5,194.7-34.7,265.5C144.3,1321.2,236.4,1228.6,287.6,1195.8z"/>
<path class="st3" d="M637.3,1195.8c51.2,32.8,143.3,125.4,140.2,256c119.8-130.6,78.1-433.1-54.5-527.3
	C678,947.5,637.3,1195.8,637.3,1195.8z"/>
<path class="st2" d="M753.6,1200.5c-9.8-9.8,35.1-93.1,62.2-145.4c-21.5-55.4-53.1-102.4-92.8-130.6c-45,23-85.8,271.3-85.8,271.3
	c51.2,32.8,143.3,125.4,140.2,256C807.3,1357.6,764.8,1211.7,753.6,1200.5L753.6,1200.5z"/>
<path class="st3" d="M581.7,1284.9H343.1l29.2,56.7c0.3,1,0.7,1.9,1.4,2.7c7.7,9.8,44.5,17.2,88.8,17.2c48.2,0,87.7-8.8,90.2-19.9
	L581.7,1284.9z"/>
<path class="st2" d="M477.9,1361.1c40.9-1.7,72.4-9.7,74.7-19.6l29.1-56.7h-62.8l-29.1,17.8C489.9,1313.8,483.1,1341.7,477.9,1361.1
	z"/>
<path class="st15" d="M760.1,907.9c0-211.5-45.5-415.3-115.1-588.1c0.5,1.2,0.8,2.6,0.8,3.9c0,23.5-82.1,42.6-183.4,42.6
	S279,347.2,279,323.7c0-1.3,0.3-2.6,0.8-3.9c-69.6,172.8-115,376.5-115,588c0,114.8,59.3,299.7,159.3,376.2
	c9.7,15.8,68,27.9,138.4,27.9s128.7-12.1,138.4-27.9C700.8,1207.6,760.1,1022.7,760.1,907.9z"/>
<path class="st3" d="M462.4,366.3c101.3,0,183.4-19.1,183.4-42.6c0-1.3-0.3-2.7-0.8-3.9C594.3,193.6,530.6,84,462.4,0
	c-68.2,84-131.8,193.7-182.6,319.8c-0.5,1.2-0.7,2.5-0.8,3.9C279.1,347.2,361.2,366.3,462.4,366.3z"/>
<path class="st16" d="M760.1,906.7c-0.1-119.8-14.8-237-40.1-347.5c0,33.1-115.3,59.9-257.5,59.9S205,592.3,205,559.2
	c-25.4,110.5-40,227.8-40.1,347.5v0.3c0.3,38.2,133.4,69.1,297.7,69.1S760,945.2,760.3,907L760.1,906.7L760.1,906.7z"/>
<path class="st15" d="M645.1,319.8c0.5,1.2,0.8,2.6,0.8,3.9c0,13.4-26.6,25.3-68.1,33.2c40.9,150.9,74.3,319.2,74.3,472.1
	c0,299.5-142.6,481.1-142.6,481.1c48.1-4,84-13.9,91.4-26c100-76.5,159.3-261.4,159.3-376.2C760.1,696.3,714.6,492.6,645.1,319.8
	L645.1,319.8z"/>
<path class="st2" d="M577.7,356.8c41.5-7.8,68.1-19.8,68.1-33.2c0-1.3-0.3-2.7-0.8-3.9C594.3,193.6,530.6,84,462.4,0
	C492.4,71.2,557,283,577.7,356.8L577.7,356.8z"/>
<path class="st9" d="M284,796.3c0-91.6,74.2-165.8,165.8-165.7c91.6,0,165.8,74.2,165.7,165.8c0,91.5-74.2,165.7-165.8,165.7
	C358.2,962.1,284,887.9,284,796.3C284,796.4,284,796.4,284,796.3z"/>
<path class="st17" d="M293.7,796.3c0-86.2,69.9-156,156.1-155.9c86.2,0,156,69.9,155.9,156.1c0,86.1-69.9,155.9-156,155.9
	C363.6,952.4,293.7,882.6,293.7,796.3C293.7,796.4,293.7,796.4,293.7,796.3z"/>
<path class="st18" d="M347.9,777.8c37.7-11.1,79.9-11,101.6-11c24.2,0,69,1.3,103.8,11.7c16.4,4.9,26.2,11,26.2,17.6
	c0,16.2-58.2,29.2-130,29.2s-130-13.1-130-29.2C319.4,789.2,330.1,782.8,347.9,777.8L347.9,777.8z"/>
<path class="st18" d="M383.2,875.2c9.2-38.2,30.4-74.7,41.3-93.4c12.1-20.9,35.6-59.1,62-84.1c12.5-11.8,22.6-17.2,28.3-13.9
	c14,8.1-3.8,65-39.7,127.2s-76.3,106-90.3,98C378.8,905.5,378.6,893.1,383.2,875.2L383.2,875.2z"/>
<path class="st18" d="M485.2,893.3c-28.5-27.1-49.5-63.7-60.3-82.5c-12.1-20.9-33.3-60.4-41.8-95.8c-4-16.7-3.6-28.2,2.2-31.5
	c14-8.1,54.4,35.8,90.3,98s53.7,119.2,39.7,127.2C509.2,912.3,498.4,906.3,485.2,893.3z"/>
<path class="st8" d="M429.7,796.4c0-11,9-20,20-20s20,9,20,20s-9,20-20,20S429.7,807.4,429.7,796.4z"/>
<path class="st2" d="M477.3,697.6c0-5,4.1-9.1,9.1-9.1s9.1,4.1,9.1,9.1s-4.1,9.1-9.1,9.1S477.3,702.6,477.3,697.6z M356.6,818.5
	c0-5,4.1-9.1,9.1-9.1s9.1,4.1,9.1,9.1s-4.1,9.1-9.1,9.1l0,0C360.7,827.6,356.6,823.5,356.6,818.5z M469.5,886.8c0-5,4.1-9.1,9.1-9.1
	s9.1,4.1,9.1,9.1s-4.1,9.1-9.1,9.1l0,0C473.6,895.9,469.5,891.9,469.5,886.8z"/>
</svg>
