<?xml version="1.0" encoding="utf-8"?>
<!-- Generator: Adobe Illustrator 24.3.0, SVG Export Plug-In . SVG Version: 6.00 Build 0)  -->
<svg version="1.1" id="Layer_1" xmlns="http://www.w3.org/2000/svg" xmlns:xlink="http://www.w3.org/1999/xlink" x="0px" y="0px"
	 viewBox="0 0 438.3 375.2" style="enable-background:new 0 0 438.3 375.2;" xml:space="preserve">
<style type="text/css">
	.st0{fill:#ECF0F7;}
	.st1{fill:#FFFFFF;stroke:#1D1D1B;stroke-miterlimit:10;}
	.st2{fill:#817E84;}
	.st3{font-family:'Poppins-Regular';}
	.st4{font-size:5.6569px;}
	.st5{fill:#F0EFED;}
	.st6{fill:none;stroke:#FFFFFF;stroke-width:0.9921;stroke-miterlimit:10;}
	.st7{fill:none;stroke:#FFFFFF;stroke-width:1.4173;stroke-miterlimit:10;}
	.st8{fill:#FFFFFF;}
	.st9{fill:#FFCD38;}
	.st10{fill:none;stroke:#FFCD38;stroke-width:1.4173;stroke-linecap:round;stroke-miterlimit:10;}
	.st11{fill:#38303B;}
	.st12{opacity:0.58;fill:#211E23;enable-background:new    ;}
	.st13{fill:none;}
	.st14{fill:#231F20;}
	.st15{fill:#C4C4C4;}
	.st16{opacity:0.14;fill:#38303B;enable-background:new    ;}
	.st17{fill:#F7B094;}
	.st18{fill:#2E3C87;}
	.st19{fill:#415299;}
	.st20{fill:#EFB93F;}
	.st21{fill:#F2E2C8;}
	.st22{fill:none;stroke:#2E3C87;stroke-width:0.2835;stroke-miterlimit:10;}
	.st23{fill:#E89C82;}
	.st24{fill:#FFFFFF;stroke:#777776;stroke-width:0.9921;stroke-miterlimit:10;}
</style>
<g id="BACKGROUND">
</g>
<g>
	<g>
		<ellipse class="st0" cx="219.7" cy="363.5" rx="218.5" ry="10.1"/>
	</g>
</g>
<g>
	<g>
		<g>
			<g>
				<g id="base_1_">
					<g>
						<path class="st1" d="M325.1,348.6H215.2c-12.7,0-23-10.3-23-23v-302c0-12.7,10.3-23,23-23h109.9c12.7,0,23,10.3,23,23v302
							C348.1,338.3,337.8,348.6,325.1,348.6z"/>
						<g>
							<g>
								<g>
									<text transform="matrix(0.9399 0 0 1 207.418 22.1975)" class="st2 st3 st4">8:30</text>
								</g>
								<g>
									<rect x="306.7" y="20.3" class="st2" width="1.2" height="2.1"/>
									<rect x="308.5" y="19.4" class="st2" width="1.2" height="2.9"/>
									<rect x="310.2" y="18.6" class="st2" width="1.2" height="3.8"/>
									<rect x="311.9" y="17.7" class="st2" width="1.2" height="4.7"/>
								</g>
								<g>
									<path class="st2" d="M315.8,20.1c0.7-0.7,1.6-1.2,2.7-1.2s2,0.4,2.7,1.2l0.8-0.9c-0.9-0.9-2.1-1.5-3.5-1.5
										s-2.6,0.6-3.5,1.5L315.8,20.1z"/>
									<path class="st2" d="M316.8,21.2c0.4-0.4,1-0.7,1.6-0.7s1.2,0.3,1.6,0.7l0.8-0.9c-0.6-0.6-1.5-1-2.4-1s-1.8,0.4-2.4,1
										L316.8,21.2z"/>
									<path class="st2" d="M317.9,22.4c0.1-0.1,0.3-0.2,0.5-0.2s0.4,0.1,0.5,0.2l0.8-0.9c-0.3-0.4-0.8-0.6-1.3-0.6
										s-1,0.2-1.3,0.6L317.9,22.4z"/>
								</g>
								<g>
									<path class="st2" d="M331.1,21.8h-7.2c-0.1,0-0.2-0.1-0.2-0.2v-3.1c0-0.1,0.1-0.2,0.2-0.2h7.2c0.1,0,0.2,0.1,0.2,0.2v3.1
										C331.3,21.7,331.2,21.8,331.1,21.8z"/>
									<path class="st2" d="M331.9,20.8h-0.2c-0.1,0-0.2-0.1-0.2-0.2v-1.1c0-0.1,0.1-0.2,0.2-0.2h0.2c0.1,0,0.2,0.1,0.2,0.2v1.1
										C332.1,20.7,332,20.8,331.9,20.8z"/>
								</g>
							</g>
						</g>
					</g>
				</g>
				<g id="map">
					<g>
						<path class="st5" d="M328.3,244.9H211.6c-6.1,0-11-4.9-11-11V49.7c0-6.1,4.9-11,11-11h116.7c6.1,0,11,4.9,11,11v184.1
							C339.4,239.9,334.4,244.9,328.3,244.9z"/>
						<g>
							<line class="st6" x1="297.9" y1="69.9" x2="292.1" y2="84.2"/>
							<line class="st6" x1="228.5" y1="205.6" x2="249.9" y2="208.2"/>
							<line class="st6" x1="214.1" y1="31.8" x2="250.5" y2="95.5"/>
							<line class="st6" x1="314.9" y1="65.4" x2="307.1" y2="85.8"/>
							<path class="st7" d="M263.3,88.2l26.6,27c1.3,1.3,2.1,3,2.4,4.9l0,0c0,0.4,0.1,0.7,0.1,1.1v123.5l11.2,12.7"/>
							<line class="st7" x1="290.6" y1="27.8" x2="263.8" y2="88.6"/>
							<line class="st6" x1="297.8" y1="70" x2="276.9" y2="59.6"/>
							<line class="st6" x1="292.1" y1="216" x2="341.6" y2="216.3"/>
							<polyline class="st7" points="198,86.4 222.9,111.5 264.1,88.5 							"/>
							<path class="st7" d="M222.9,111.5l4.2,20c3.8,17.9,4.7,36.4,2.9,54.6l-7.2,71.8"/>
							<path class="st7" d="M230,146.2l25.2-7.9c0-1.9,0.3-10.5,0.3-10.5l18.3-6.6"/>
							<line class="st6" x1="265.2" y1="124.7" x2="269.8" y2="177.2"/>
							<line class="st6" x1="281.1" y1="106.1" x2="273.8" y2="122.1"/>
							<line class="st6" x1="242.3" y1="141.6" x2="234" y2="105.2"/>
							<line class="st6" x1="279" y1="176.5" x2="278.2" y2="203.3"/>
							<line class="st6" x1="237.2" y1="121.6" x2="251.5" y2="116.5"/>
							<line class="st6" x1="251.5" y1="116.5" x2="249" y2="106.4"/>
							<polyline class="st7" points="293,149.8 320.1,149.8 320.1,101.8 328.2,71.1 281.3,48.5 							"/>
							<path class="st8" d="M227.8,214.1"/>
							<polyline class="st7" points="197.4,172.7 212.5,177.7 207.5,205.9 228.1,209.7 							"/>
							<line class="st6" x1="210.7" y1="188.4" x2="229.3" y2="192.1"/>
							<polyline class="st7" points="226.3,128.2 209.8,134.1 196.3,126.3 							"/>
							<line class="st6" x1="315.9" y1="216.3" x2="316.2" y2="257.7"/>
							<line class="st7" x1="292.1" y1="229.8" x2="259.1" y2="228.2"/>
							<polyline class="st7" points="256.1,258 261.1,191.5 230.2,187.7 							"/>
							<polyline class="st6" points="238.4,246.8 240,230.4 249.1,231.6 250.4,218.5 							"/>
							<path class="st6" d="M292.7,169.5c0.4,0,31-0.9,31-0.9v8.8l23.9,0.3"/>
							<path class="st6" d="M316.5,236c0.9-0.3,16.8-0.3,16.8-0.3"/>
							<line class="st6" x1="320.1" y1="101.8" x2="301.2" y2="102.1"/>
							<path class="st7" d="M250.9,208c0.1-0.5,3.7-32,3.7-32l37,0.9"/>
						</g>
					</g>
				</g>
			</g>
			<path class="st9" d="M235.4,57c-2.6,0-4.8,2.3-4.8,5.1c0,2.8,4.7,10.4,4.7,10.4s4.9-7.5,4.9-10.4C240.2,59.4,238.1,57.1,235.4,57
				z M235.4,64.6c-1.4,0-2.6-1.2-2.6-2.6s1.2-2.6,2.6-2.6c1.4,0,2.6,1.2,2.6,2.6C238,63.4,236.8,64.6,235.4,64.6z"/>
			<polyline class="st10" points="235.7,71.2 251,97.3 234,108.1 241.8,144.6 255.7,140.8 261.9,178.4 295.2,178.4 			"/>
			<g>
				<path class="st9" d="M300.4,178.7c0,2.8-2.3,5.1-5.1,5.1c-2.8,0-5.1-2.3-5.1-5.1s2.3-5.1,5.1-5.1
					C298.1,173.7,300.4,175.9,300.4,178.7z"/>
				<path class="st8" d="M298.1,178.7c0,1.5-1.2,2.7-2.7,2.7s-2.7-1.2-2.7-2.7s1.2-2.7,2.7-2.7C296.8,176,298.1,177.2,298.1,178.7z"
					/>
			</g>
			<g>
				<path class="st8" d="M323.8,204.3h3.5c0.3,0,0.6,0.3,0.6,0.6v3.7c0,0.4,0.3,0.6,0.6,0.6l0,0c0.3,0,0.6-0.3,0.6-0.6v-3.7
					c0-0.4,0.3-0.6,0.6-0.6h3.5c0.3,0,0.6-0.3,0.6-0.6l0,0c0-0.4-0.3-0.6-0.6-0.6h-3.5c-0.3,0-0.6-0.3-0.6-0.6v-3.7
					c0-0.4-0.3-0.6-0.6-0.6l0,0c-0.3,0-0.6,0.3-0.6,0.6v3.7c0,0.4-0.3,0.6-0.6,0.6h-3.5c-0.3,0-0.6,0.3-0.6,0.6l0,0
					C323.2,204.1,323.5,204.3,323.8,204.3z"/>
				<path class="st8" d="M308.9,188.5h5.7c0.5,0,1,0.4,1,1v5.7c0,0.5,0.4,1,1,1l0,0c0.5,0,1-0.4,1-1v-5.7c0-0.5,0.4-1,1-1h5.7
					c0.5,0,1-0.4,1-1l0,0c0-0.5-0.4-1-1-1h-5.7c-0.5,0-1-0.4-1-1v-5.6c0-0.5-0.4-1-1-1l0,0c-0.5,0-1,0.4-1,1v5.7c0,0.5-0.4,1-1,1
					h-5.7c-0.5,0-1,0.4-1,1l0,0C307.9,188,308.4,188.5,308.9,188.5z"/>
			</g>
		</g>
		<g>
			<g>
				<path class="st9" d="M179.4,336.5c-1.6-14.1-2.5-28.3-2.8-42.5c-0.1-3.7-0.1-7.5,1.2-11c1.4-3.9,4.2-7,7-10
					c4.2-4.6,8.4-9.2,13.6-12.5c6.8-4.3,14.8-6.3,22.8-7.3c6.8-0.8,13.7-0.9,20.6-1c20.6-0.4,41.2-0.7,61.8-1.1
					c5.1-0.1,10.3-0.2,15.4,0.9c6,1.2,11.6,4,17,6.8c8.3,4.2,17,8.8,21.6,16.8c3.7,6.5,3.6,14.2,3.9,21.7
					c0.5,12.8,0.5,25.6-1.3,38.6c-0.3,1.8-1,3.7-2.5,4.8c-1.2,0.9-2.7,1-4.2,1.1c-15.8,0.9-31.8-2.3-47.5,0.2"/>
			</g>
			<path class="st11" d="M203.2,336.3h-17.8c-2,0-3.6,1.6-3.6,3.6v19.4c0,2,1.6,3.6,3.6,3.6h17.8c2,0,3.6-1.6,3.6-3.6v-19.4
				C206.8,337.9,205.2,336.3,203.2,336.3z"/>
			<rect x="181.9" y="339.5" class="st12" width="24.9" height="15.4"/>
			<path class="st11" d="M354.6,336.3h-17.8c-2,0-3.6,1.6-3.6,3.6v19.4c0,2,1.6,3.6,3.6,3.6h17.8c2,0,3.6-1.6,3.6-3.6v-19.4
				C358.2,337.9,356.6,336.3,354.6,336.3z"/>
			<rect x="333.3" y="339.5" class="st12" width="24.9" height="15.4"/>
			<path class="st9" d="M309.1,218.6h-78l10-18.4c0.9-1.6,2.6-2.6,4.4-2.6h49.2c1.8,0,3.5,1,4.4,2.6L309.1,218.6z"/>
			<path class="st8" d="M305.3,217.6H235l9.4-15.7c0.6-0.9,1.6-1.5,2.7-1.5h46.1c1.1,0,2.1,0.6,2.7,1.5L305.3,217.6z"/>
			<rect x="244.5" y="203.2" class="st13" width="51.5" height="16.5"/>
			<path class="st9" d="M342.5,262l-148.2,2.5l15.6-41.1c1.3-3.4,4.3-5.7,7.6-5.7l100.8-0.8c3.3,0,6.2,2.1,7.6,5.4L342.5,262z"/>
			<path class="st14" d="M338.4,261.9l-139.9,2.3l14.7-37.6c1.2-3.1,4.1-5.2,7.2-5.2l95.1-0.7c3.1,0,5.9,1.9,7.2,4.9L338.4,261.9z"
				/>
			<path class="st8" d="M310.6,309c0,0-30.8,2.8-41.1,2.8c-10.1,0-40.3-2.8-40.3-2.8c-2.2,0-4-1.4-4-3.2v-4c0-1.8,1.8-3.2,4-3.2
				c0,0,30-2.7,40-2.7c10.4,0,41.5,2.7,41.5,2.7c2.2,0,4,1.4,4,3.2v4C314.6,307.6,312.8,309,310.6,309z"/>
			<path class="st14" d="M318,327.1h-96.3c-0.7,0-1.3-0.6-1.3-1.3v-1.3c0-0.7,0.6-1.3,1.3-1.3h96.2c0.7,0,1.3,0.6,1.3,1.3v1.3
				C319.3,326.5,318.7,327.1,318,327.1z"/>
			<path class="st15" d="M360,333.2H179.7c-3.1,0-5.6,2.5-5.6,5.6v6.6c0,3.1,2.5,5.6,5.6,5.6h180.2c3.1,0,5.6-2.5,5.6-5.6v-6.6
				C365.6,335.7,363.1,333.2,360,333.2z"/>
			<path class="st16" d="M174.1,344.1v2.2c0,2.6,1.9,4.8,4.3,4.8h182.9c2.4,0,4.3-2.1,4.3-4.8v-2.2H174.1z"/>
			<g>
				<path class="st9" d="M195.9,261.8c-1.8-0.2-3.6-0.4-5.1-1.4c-0.9-0.7-1.5-1.6-2.1-2.4c-1.6-2.2-3.6-4.2-6.2-5.1
					c-2.5-0.9-5.7-0.6-7.6,1.4c-2.2,2.2-2.1,6-0.3,8.6c1.8,2.5,5,3.8,8.1,3.9c1.8,0.1,3.6-0.2,5.5-0.5c2.7-0.4,5.5-0.9,8.2-1.3"/>
			</g>
			<g>
				<path class="st9" d="M341.3,261.8c1.8-0.2,3.6-0.4,5.1-1.4c0.9-0.7,1.5-1.6,2.1-2.4c1.6-2.2,3.6-4.2,6.2-5.1
					c2.5-0.9,5.7-0.6,7.6,1.4c2.2,2.2,2.1,6,0.3,8.6c-1.8,2.5-5,3.8-8.1,3.9c-1.8,0.1-3.6-0.2-5.5-0.5c-2.7-0.4-5.5-0.9-8.2-1.3"/>
			</g>
			<g>
				<path class="st8" d="M217.9,307.1c-9.3,2.8-20,0.6-27.5-5.7c-3-2.6-5.7-5.9-6.3-9.9c-0.1-0.5-0.1-1.1,0.1-1.6
					c0.4-1,1.7-1.4,2.8-1.6c8-1.1,15.9,2.3,22.8,6.5c3.1,1.9,6,4.5,8.4,7.2c1.2,1.3,2.1,3.5,0.8,4.6"/>
			</g>
			<g>
				<path class="st8" d="M321.7,307.1c9.3,2.8,20,0.6,27.5-5.7c3-2.6,5.7-5.9,6.3-9.9c0.1-0.5,0.1-1.1-0.1-1.6
					c-0.4-1-1.7-1.4-2.8-1.6c-8-1.1-15.9,2.3-22.8,6.5c-3.1,1.9-6,4.5-8.4,7.2c-1.2,1.3-2.1,3.5-0.8,4.6"/>
			</g>
		</g>
	</g>
	<g>
		<g>
			<g>
				<path class="st11" d="M141.8,152.8c-2.4-5.5-9.5-8.3-15.3-7.1c-5.8,1.3-10.4,6.1-12.6,11.6c-1.9,4.8-2.3,10-3.9,14.9
					c-1.4,4.2-3.6,8-6.6,11.2c-2.7,3-6,5.4-8,8.8c-2.7,4.4-3,10.2-0.8,14.9s6.9,8.2,12,8.9c5.4,0.8,11-1.2,16.3,0.2
					c2.7,0.7,5.1,2.4,7.8,2.8c4.7,0.7,9.4-2.6,11.5-6.9c2.1-4.3,1.9-9.4,0.8-14c-1.2-5-3.5-9.9-3.7-15c-0.2-5.7,1.2-9.5,1.7-15.2
					C141.2,162.9,145.1,160.5,141.8,152.8z"/>
			</g>
			<g>
				<g>
					<path class="st17" d="M150,354.8c-0.1-2-0.3-3.9-0.4-5.9c-0.1-0.8-0.1-1.6-0.7-2.2c-0.9-1-2.7-0.9-4.2-0.6
						c-0.5,0.1-1.1,0.2-1.4,0.6c-0.4,0.5-0.3,1.2-0.1,1.8c0.7,2.6,1.3,5.3,2,7.9"/>
					<g>
						<path class="st11" d="M164.3,362.1c-3.6,0.1-6.5,0.1-10.1,0.1c-1.1,0-9.8-0.3-11.1-0.3c-0.4,0-0.9,0-1.2-0.3
							c-0.4-0.3-0.4-0.9-0.3-1.4c0.1-1.9,0.5-3.8,1.2-5.6c0.1-0.4,0.4-0.9,0.8-1c0.4-0.1,0.8,0.1,1.1,0.3c1.4,0.8,1.5,0.8,3.2,0.5
							c0.4-0.1,2-0.6,2.4-0.7c0.4-0.2,0.9-0.1,1.4,0c4,0.8,7.8,2.2,11.4,4c0.8,0.4,1.7,0.9,2.1,1.7c0.5,0.8,0.4,2-0.4,2.5"/>
					</g>
				</g>
				<g>
					<path class="st17" d="M71.3,340.6c1.6-1.1,3.2-2.2,4.8-3.4c0.6-0.4,1.3-0.9,2.1-0.8c1.5,0.1,2.6,1.8,3.4,3.2
						c0.3,0.5,0.6,1.1,0.5,1.6c-0.1,0.7-0.7,1-1.3,1.2c-2.5,1.1-5,2.2-7.5,3.3"/>
					<g>
						<path class="st11" d="M74.9,361.4c-1.7-3.1-3.2-5.7-4.9-8.9c-0.5-1-4.3-8.8-4.9-9.9c-0.2-0.4-0.4-0.8-0.3-1.2
							c0.1-0.5,0.6-0.7,1-0.9c1.8-0.8,3.6-1.3,5.5-1.6c0.4-0.1,0.9-0.1,1.2,0.2c0.3,0.3,0.3,0.7,0.2,1.1c-0.1,1.6,0,1.7,1.1,3
							c0.3,0.3,1.5,1.5,1.8,1.8c0.4,0.3,0.5,0.8,0.6,1.2c1.1,3.9,1.8,7.9,1.8,12c0,0.9,0,1.9-0.5,2.7c-0.5,0.8-1.5,1.3-2.3,0.8"/>
					</g>
				</g>
				<g>
					<g>
						<path class="st18" d="M121.3,260.8c6.2,27.8,11.6,57.1,20.2,84.2c0.7,2.2,1.6,5.9,2.7,6c1.4,0.2,2.7,0,4-0.2
							c1.1-0.2,1.9-1.2,1.8-2.3c-3.9-41-2.8-82.4-11.9-122.4c-0.3-1.4-18.6,0.6-18.6,0.6"/>
					</g>
					<g>
						<path class="st19" d="M78,342.7c0.2,0.7,1.1,1.1,1.7,0.7c9.8-4.9,18.4-13.3,25.6-23.7c10.6-15.3,17.1-27.5,23-45.7
							c4.5-14,8.4-28.7,7.1-43.5c-6.7,0.4-13.4,1.2-20.1,2.3c-1.4,0.2-1.7,0.3-2.6,1.4c-0.9,1-1.4,3.6-1.7,5
							c-2.9,15.8-3.4,31.3-6.8,46.9c-4.1,19-13,38.7-27.5,50.4c-0.4,0.3-0.6,0.9-0.4,1.4L78,342.7z"/>
					</g>
				</g>
			</g>
			<g>
				<path class="st20" d="M107.5,246.1l0.7,3.5c0.3,1.3,1.6,2.3,3.3,2.3c9.9,0.2,19.8,0.3,29.7,0.2c0.8,0,1.7,0,2.2-0.5
					c0.5-0.4,0.6-0.9,0.8-1.5c0.3-1.5,0.7-3,1.1-4.6"/>
			</g>
			<g>
				<g>
					<path class="st17" d="M153.9,242.2c1.1,1.8,4.9,9.5,5.4,11.5c0.5,2.2,0.7,4.5,1.8,6.4c0.2,0.4,1,0.2,1.1-0.2
						c0.3-0.8,0.4-1.6,0.4-2.4c0-0.5,0.8-0.7,1.1-0.4c0.2,0.3,0.4,0.6,0.6,0.9c0.8,1.9,1.7,3.3,2.6,5.3c0.3,0.8,0.9,2,1.4,2.8
						c0.3,0.3,0.6,0,0.6-0.4s-0.3-1.7-0.2-1.6c0.2,0.4,0.9,0.2,0.9-0.4c0-2.7-1-6.2-1.8-8.1c-2-4.5-7.5-10.5-9.5-15.3"/>
				</g>
				<g>
					<path class="st20" d="M132.2,204c4.2,13.4,11.4,26.9,20.8,39.1c1,1.3,1.8,2.4,3.1,2.3c1.9-0.1,5.1-1.1,4.2-3.1
						c-4.1-9.5-9.9-20.6-11.1-29.9c-0.5-4.2-0.7-8.4-1.8-12.7c-1-4.3-2.8-9.3-6.3-12.6"/>
				</g>
			</g>
			<g>
				<path class="st21" d="M111,249.5c-2.1,0-3.8-2.1-4.1-4.2c-0.3-2.1,2.1-6.7,1.8-8.9c-0.4-3.1-3.3-30.9,2.9-46
					c1.4-3.4,3.8-6.9,7.4-7.8c1.9-0.5,3.9-0.2,5.9-0.1c4.1,0.2,8.4-0.4,12.1,1.4c6.3,3.1,7.3,11.4,7.6,18.4
					c0.2,5.8,0.5,11.7,0.7,17.5c0.3,7.3,2.8,13.9,0.5,19.7c-0.7,1.7,1.6,6.7,0.4,8.1c-1.3,1.6-4.8,1-6.9,1
					c-8.4,0.2-16.9,0.4-25.3,0.7"/>
			</g>
			<g>
				<path class="st11" d="M147.4,198.8l-0.7-0.7c-0.2-0.2-0.2-0.5,0-0.7l12.1-12.1c0.2-0.2,0.5-0.2,0.7,0l0.7,0.7
					c0.2,0.2,0.2,0.5,0,0.7l-12.1,12.1C147.9,199,147.6,199,147.4,198.8z"/>
				<g>
					<path class="st20" d="M126.7,230.3c-1.9,1.5-6.8,4.1-8.8,5.4c-1.5,1-4.1-0.1-6.2-2.4c-1.5-1.6-2.6-4.9-3.2-7
						c-1.1-4-1.5-9.4-1.6-14.2c-0.1-6.4,0.6-12.1,1.3-16.7c0.7-4.6,4.1-10.8,7.5-12.1c4.9-1.8,7,0.3,7.5,7.4
						c0.4,5.1-0.8,9.5-1.7,18.2c-0.4,3.9-0.9,11-0.9,11L126.7,230.3z"/>
				</g>
				<g>
					<path class="st17" d="M135.4,208.8c1.5-1.4,7.3-7.8,8.3-9.6c1.1-1.9,1.9-4.1,3.5-5.7c0.3-0.3,1,0,1,0.5c0,0.8,0,1.7-0.3,2.4
						c-0.1,0.4,1.5,0.9,1.9,0.7c0.3-0.2,5.4-5.3,5.6-5.5c0.3-0.3,0.9,0,0.7,0.6c-0.8,2.6-2.7,5.7-3.9,7.3c-3.2,3.8-10,8.1-13.1,12.2
						"/>
				</g>
				<g>
					<path class="st20" d="M117.7,235.6c2.4-0.4,7.5-3.6,9.8-6.2c3.5-4.1,14.7-17.3,15.1-19.5c0.1-0.9-2.9-3.7-4.1-4.9
						c-0.7-0.7-6.7,6-9.8,8.7c-1,0.8-6.7,5.2-9.4,7"/>
				</g>
				<g>
					<g>
						<path class="st22" d="M116.1,221c5.2-0.9,10.7-4.9,21.1-15.6c0.4-0.4,1-0.4,1.3,0l3.9,4"/>
						<path class="st22" d="M119.9,219.7c-1-0.7-3-1.5-4.3-1.6"/>
					</g>
				</g>
			</g>
			<g>
				<g>
					<path class="st17" d="M123.8,181.1c0.7-2.9,1.8-7.1,2.3-9c0.2-0.8,0.4-1.6,0.7-2.4c0.1-0.2,0.1-0.4,0.2-0.5s0.2-0.1,0.4-0.1
						c1.2,0,2.1,1,3.1,1.5c1.2,0.7,2.7,0.7,4,1.4c0.2,0.1,0.3,0.2,0.4,0.4c0,0.1,0,0.3,0,0.4c-0.4,2.3-0.9,8.7-1.2,11.6
						c-0.2,1.7-3.1,2.5-6.1,1.7C123.9,185,123.5,182.2,123.8,181.1z"/>
					<g>
						<path class="st23" d="M127,169.3c0.1-0.1,0.2-0.1,0.4-0.1c1.2,0,2.1,1,3.1,1.5c1.2,0.7,2.7,0.7,4,1.4c0.2,0.1,0.3,0.2,0.4,0.4
							c0,0.1,0,0.3,0,0.4c-0.2,1.3-0.5,2.6-0.7,3.9c-1.4,0.6-2.8,0.8-4.1,0.5c-1.8-0.4-3.4-1.9-4.1-4c0.1-0.4,0.2-0.8,0.3-1.1
							c0.2-0.8,0.4-1.6,0.7-2.4C126.8,169.6,126.9,169.4,127,169.3z"/>
					</g>
				</g>
				<g>
					<path class="st17" d="M124.1,167.2c-1.7-0.2-3.3-1.2-3.5-2.5c-0.3-1.3,1.1-2.7,2.8-2.8"/>
				</g>
				<g>
					<path class="st17" d="M124,167.3c1.8,6.4,6.3,7.2,11,8.7c0.8,0.3,2.2,0.4,3.1,0.3c2.2-0.2,3.2-2.3,3.6-4.1
						c0.7-3.1,1.1-6.2,1.1-9.3c0-2.2-0.2-4.4-1.3-6.3c-1.1-2-3.1-3.7-5.7-4.1c-3.2-0.5-6.4,1.1-8.6,3.1c-3.2,3-4.8,7.2-3.5,11"/>
				</g>
				<g>
					<path class="st17" d="M142.8,162.8c0,2,0.1,1.7,0.3,2.8c0,0.1,0.3,1.1,0.9,1.5c0.5,0.4,0.7,1.2,0.2,1.6
						c-0.3,0.2-0.5,0.4-0.9,0.4c-0.5,0.1-1,0-1.3-0.5"/>
				</g>
			</g>
			<g>
				<path class="st11" d="M119.3,162.5c4.8-0.4,9.2-2.2,13.2-4.2c1.9-1,3.7-2,5-3.5c0.7-0.8,1.2-1.9,0.6-2.7c-0.7-0.9-2.3-1.1-3.6-1
					c-1,0.1-1.9,0.2-2.9,0.3c-1.6,0.2-3.2,0.6-4.6,1.3c-1.6,0.8-2.8,1.9-4,3.1c-1.2,1.2-2.5,2.4-2.6,4"/>
			</g>
		</g>
		<g>
			<path class="st24" d="M157.8,83.9h39.1c6.5,0,11.7,5.3,11.7,11.7v33.9c0,6.5-5.3,11.7-11.7,11.7h-25.6l-17.1,18.7
				c-0.7,0.7-1.9,0.1-1.7-0.9l3.8-18c-5.8-0.7-10.3-5.7-10.3-11.6V95.6C146,89.2,151.3,83.9,157.8,83.9z"/>
			<path class="st20" d="M164.6,105.4c0.1,7.2,12.3,26.2,12.3,26.2s12-19.2,11.9-26.4c-0.1-7.2-5.5-13-12.2-12.9
				S164.6,98.2,164.6,105.4z M170.2,104.8c0-3.7,2.9-6.6,6.5-6.7c3.6,0,6.5,2.9,6.6,6.6c0,3.7-2.9,6.6-6.5,6.7
				C173.2,111.4,170.2,108.4,170.2,104.8z"/>
		</g>
	</g>
</g>
</svg>
