<?xml version="1.0" encoding="utf-8"?>
<!-- Generator: Adobe Illustrator 24.3.0, SVG Export Plug-In . SVG Version: 6.00 Build 0)  -->
<svg version="1.1" id="Ñëîé_1" xmlns="http://www.w3.org/2000/svg" xmlns:xlink="http://www.w3.org/1999/xlink" x="0px" y="0px"
	 viewBox="0 0 217.2 90.8" style="enable-background:new 0 0 217.2 90.8;" xml:space="preserve">
<style type="text/css">
	.st0{fill:#E9E4F5;}
	.st1{fill:#FDB8C0;}
	.st2{fill:#FFFFFF;}
	.st3{fill:#FFC83D;}
	.st4{fill:#2F2738;}
	.st5{fill:#37A385;}
	.st6{fill:#6C4E99;}
	.st7{opacity:0.2;}
	.st8{opacity:0.2;fill:#2F2738;}
	.st9{fill:#FF8A98;}
	.st10{fill:#FB9828;}
	.st11{fill:#B8AFC4;}
	.st12{fill:#CF3636;}
</style>
<g>
	<g>
		<g>
			<path class="st0" d="M183.9,60.3V36h-11.8v26.1h-8.5V17.8h8.5l-8.8-13.2h-11.6V47h-9.5V29.2h-6.7v-16h-5.2V7.5H126V0.4h-11.6v7.1
				H110v31.2h-5.1V10.9H80.7v10.3h-9.1V16h-7.1v12.2h-4.6v20.7H47.7V4.7H30.3V16h-5.6v20H12.9v24.3H0.4v16.5h200.9V60.3H183.9z
				 M28.6,32.6h-1.1v-3.8h1.1V32.6z M28.6,26.7h-1.1v-6.8h1.1V26.7z M44.3,16v8.3h-3.7V16H44.3z M32.7,32.6h-1.1v-6.8h1.1V32.6z
				 M32.7,23.7h-1.1v-3.8h1.1V23.7z M36.8,32.6h-1.1v-3.8h1.1V32.6z M36.8,26.7h-1.1v-6.8h1.1V26.7z M40.6,60.4v-6h3.7v6H40.6z
				 M70.2,33.8H68v-1.2h2.2V33.8z M70.2,29.8H68v-1.2h2.2V29.8z M70.2,25.8H68v-1.2h2.2V25.8z M74.5,33.8h-2.2v-1.2h2.2V33.8z
				 M74.5,29.8h-2.2v-1.2h2.2V29.8z M74.5,25.8h-2.2v-1.2h2.2V25.8z M94.8,60.4h-9.4V21.1h9.4V60.4z M121.5,21.1h-8.6v-1.2h8.6V21.1
				z M155.6,33.7h-1.1v-5.2h1.1V33.7z M159.7,25.1h-1.1v-5.2h1.1V25.1z"/>
		</g>
		<g>
			<g>
				<path class="st1" d="M48.4,30l1.4,0.4V37l-5-1.4c-1.7-0.5-2.7-2.2-2.2-3.9c0.3-1,1-1.7,1.8-2.1c0.6-0.3,1.4-0.3,2.1-0.1L48.4,30
					z"/>
			</g>
			<g>
				<polygon class="st1" points="53.1,31.4 53.1,36.5 52.2,37.7 51.4,37.5 49.8,37 49.8,30.4 52.4,31.2 				"/>
			</g>
			<g>
				<polygon class="st1" points="53.1,39 53.1,44.2 52.2,45.4 51.4,45.1 49.8,44.7 49.8,38.1 52.4,38.8 				"/>
			</g>
			<g>
				<path class="st1" d="M48.4,37.7l1.4,0.4v6.6l-5-1.4c-1.7-0.5-2.7-2.2-2.2-3.9c0.3-1,1-1.7,1.8-2.1c0.6-0.3,1.4-0.3,2.1-0.1
					L48.4,37.7z"/>
			</g>
			<g>
				<path class="st1" d="M48.4,45.2l1.4,0.5v6.6l-5-1.5c-1.7-0.5-2.7-2.2-2.2-3.9c0.3-1,1-1.7,1.8-2.1c0.6-0.3,1.4-0.3,2.1-0.1
					L48.4,45.2z"/>
			</g>
			<g>
				<polygon class="st1" points="53.1,46.7 53.1,51.8 52.2,53 51.4,52.8 49.8,52.3 49.8,45.7 52.4,46.5 				"/>
			</g>
			<g>
				<path class="st2" d="M75.8,6H54.1c-1.5,0-2.8,1.2-2.8,2.8v40.3V57c0,1.5,1.2,2.8,2.8,2.8h21.7c1.5,0,2.8-1.2,2.8-2.8v-7.9V8.7
					C78.5,7.2,77.3,6,75.8,6z"/>
			</g>
			<g>
				<g>
					<path class="st0" d="M51.3,8.7V49h27.2V8.7c0-1.5-1.2-2.8-2.8-2.8H54.1C52.5,6,51.3,7.2,51.3,8.7z"/>
				</g>
				<g>
					<path class="st2" d="M51.3,49.1V57c0,1.5,1.2,2.8,2.8,2.8h21.7c1.5,0,2.8-1.2,2.8-2.8v-7.9C78.5,49.1,51.3,49.1,51.3,49.1z"/>
				</g>
				<g>
					<g>
						<rect x="54.6" y="51.9" class="st3" width="20.6" height="4.7"/>
					</g>
					<g>
						<g>
							<polygon class="st4" points="68.9,53.7 70,54.2 70,54.2 68.9,54.7 68.9,55 70.4,54.3 70.4,54.1 68.9,53.5 							"/>
						</g>
						<g>
							<polygon class="st4" points="70.7,53.5 70.7,53.7 71.8,54.2 71.8,54.2 70.7,54.7 70.7,55 72.1,54.3 72.1,54.1 							"/>
						</g>
					</g>
				</g>
				<g>
					<path class="st2" d="M57,23.3v5h-4.6v0.5H57v5.7h-4.6V35H57v11.9h2v-6h6.4L67,39l1.9,1.4l-6,6.7h0.7l8.8-10l4.8,4.1v-2.7
						L74.5,36v-7.2h2.9v-0.5h-2.9v-9.1h2.9v-0.5h-2.9v-7.9h-2v7.9h-4.6v-7.9h-1.5v7.9h-4.8l-7-7.9h-0.7L63.8,22l-4.6,2.6v-2.3
						l-6.6-4.9v2.5L57,23.3z M66.3,20.4l-2.2,1.2l-2.2-2.4h4.4V20.4z M72.5,28.3h-7.7v-5.2l3.1-1.8v-2.1h4.6V28.3z M59.1,35h7.7v3.5
						l-1.6,1.9H59L59.1,35L59.1,35z M59.1,28.8h13.4v7.7L69.4,40l-2.1-1.5v-4h-8.2L59.1,28.8L59.1,28.8z M59.1,26.3l5.1-2.9v4.9
						h-5.1V26.3z"/>
				</g>
				<g>
					<rect x="52.9" y="35.8" class="st0" width="2.6" height="11.1"/>
				</g>
				<g>
					<g>
						
							<rect x="67.1" y="41.7" transform="matrix(0.6619 -0.7496 0.7496 0.6619 -8.1875 67.6151)" class="st0" width="7.5" height="2.3"/>
					</g>
					<g>
						<rect x="68.3" y="29.9" class="st0" width="2.8" height="5.8"/>
					</g>
					<g>
						<rect x="60.5" y="29.9" class="st0" width="6.6" height="3"/>
					</g>
					<g>
						<rect x="52.9" y="29.9" class="st0" width="2.6" height="3.8"/>
					</g>
					<g>
						<rect x="60.5" y="42" class="st0" width="1.3" height="4.9"/>
					</g>
					<g>
						<polygon class="st0" points="67.8,26.4 66.1,26.4 66.1,27.5 70.9,27.5 70.9,21.2 67.8,22.8 						"/>
					</g>
					<g>
						<polygon class="st0" points="60.6,26.6 60.6,27.5 63.1,27.5 63.1,25.3 						"/>
					</g>
					<g>
						<rect x="60" y="20.1" class="st0" width="1.2" height="2.4"/>
					</g>
					<g>
						<rect x="56.6" y="16.9" transform="matrix(0.7495 -0.662 0.662 0.7495 2.2518 42.7111)" class="st0" width="1.9" height="3"/>
					</g>
					<g>
						
							<rect x="53.9" y="14.8" transform="matrix(0.7495 -0.662 0.662 0.7495 3.5058 40.1912)" class="st0" width="1.9" height="1.3"/>
					</g>
					<g>
						<rect x="68.8" y="16.8" class="st0" width="2.1" height="1.4"/>
					</g>
					<g>
						<rect x="68.8" y="12.5" class="st0" width="2.1" height="3.1"/>
					</g>
					<g>
						<path class="st0" d="M64.5,19.6c0.3,0,0.6,0.3,0.6,0.6c0,0.3-0.3,0.6-0.6,0.6c-0.3,0-0.6-0.3-0.6-0.6S64.1,19.6,64.5,19.6z"/>
					</g>
					<g>
						<path class="st0" d="M67.2,40.1c0.3,0,0.6,0.3,0.6,0.6s-0.3,0.6-0.6,0.6c-0.3,0-0.6-0.3-0.6-0.6
							C66.6,40.3,66.9,40.1,67.2,40.1z"/>
					</g>
					<g>
						<rect x="75.8" y="20.5" class="st0" width="1" height="6.4"/>
					</g>
					<g>
						<rect x="75.8" y="10.8" class="st0" width="1" height="1.7"/>
					</g>
					<g>
						<rect x="61.9" y="10.8" class="st0" width="3.2" height="7.2"/>
					</g>
					<g>
						<rect x="73.5" y="43.6" class="st0" width="3.3" height="3.3"/>
					</g>
					<g>
						<rect x="58.1" y="10.8" class="st0" width="2.2" height="2.2"/>
					</g>
					<g>
						<rect x="75.8" y="30.3" class="st0" width="1" height="2.7"/>
					</g>
					<g>
						<rect x="52.9" y="23.7" class="st0" width="2.6" height="1.2"/>
					</g>
				</g>
				<g>
					<g>
						<polygon class="st5" points="66.8,20.7 66.8,14.4 67.3,14.4 67.3,21 58.4,26.1 58.4,40.4 62.7,40.4 62.7,40.9 57.9,40.9 
							57.9,25.8 						"/>
					</g>
					<g>
						<g>
							<g>
								<path class="st2" d="M67.1,13.6c0.4,0,0.8,0.3,0.8,0.8s-0.3,0.8-0.8,0.8c-0.4,0-0.8-0.3-0.8-0.8S66.7,13.6,67.1,13.6z"/>
							</g>
						</g>
						<g>
							<g>
								<path class="st5" d="M67.1,13.9c0.3,0,0.5,0.2,0.5,0.5s-0.2,0.5-0.5,0.5s-0.5-0.2-0.5-0.5C66.6,14.1,66.8,13.9,67.1,13.9z"
									/>
							</g>
						</g>
					</g>
					<g>
						<g>
							<g>
								<path class="st2" d="M62,40.4h1.5c-0.1-0.3-0.4-0.6-0.7-0.6C62.3,39.8,62,40.1,62,40.4z"/>
							</g>
							<g>
								<path class="st2" d="M61.9,40.6c0,0.1,0,0.2,0.1,0.3c0.1,0.3,0.4,0.5,0.7,0.5s0.6-0.2,0.7-0.5c0-0.1,0.1-0.2,0.1-0.3
									s0-0.1,0-0.2H62C61.9,40.5,61.9,40.5,61.9,40.6z"/>
							</g>
						</g>
						<g>
							<g>
								<path class="st5" d="M62.7,40.1c0.3,0,0.5,0.2,0.5,0.5s-0.2,0.5-0.5,0.5s-0.5-0.2-0.5-0.5S62.4,40.1,62.7,40.1z"/>
							</g>
						</g>
					</g>
				</g>
				<g>
					<g>
						<path class="st3" d="M62.6,35.7L62.6,35.7h0.2c1.4,0.1,2.1,1.7,1.3,2.8l-1.4,2.1l-1.4-2.1C60.5,37.4,61.2,35.8,62.6,35.7z"/>
					</g>
				</g>
				<g>
					<g>
						<path class="st2" d="M71.8,11.5c0.5,0.6,0.4,1.5-0.2,2s-1.5,0.4-2-0.2c-0.5-0.6-0.4-1.5,0.2-2S71.3,10.9,71.8,11.5z"/>
					</g>
					<g>
						<polygon class="st5" points="70.9,12.2 71.8,12.7 69.8,13.1 70.6,11.3 						"/>
					</g>
				</g>
			</g>
			<g>
				<g>
					<path class="st4" d="M75.8,5.5H54.1c-1.8,0-3.3,1.5-3.3,3.2V57c0,1.8,1.5,3.3,3.3,3.3h21.7c0.1,0,0.1,0,0.2,0
						c0.8,0,1.6-0.4,2.1-1c0.6-0.6,0.9-1.4,0.9-2.3V8.7C79,7,77.6,5.5,75.8,5.5z M51.8,57V8.7c0-1.3,1-2.3,2.3-2.3h21.7
						c1.3,0,2.3,1,2.3,2.3V57c0,1.3-1,2.3-2.3,2.3H54.1C52.8,59.2,51.8,58.2,51.8,57z"/>
				</g>
			</g>
			<g>
				<path class="st4" d="M58.7,6v1.8c0,0.6,0.5,1.1,1.1,1.1H70c0.6,0,1.1-0.5,1.1-1.1V6H58.7z"/>
			</g>
			<g>
				<rect x="62.8" y="7.4" class="st6" width="4.1" height="0.3"/>
			</g>
			<g>
				<path class="st2" d="M64.1,34.5c0,0.5,0.2,0.9,0.5,1.2s0.8,0.5,1.3,0.5h1.8v-1.8C67.8,34.5,64.1,34.5,64.1,34.5z"/>
			</g>
			<g>
				<path class="st1" d="M75.2,74.7h19.1l-2.2-12l0,0l0,0l0,0l-4.8-26.6L79,29.4v9.8l-2.5-2.7c-1.2-1.3-2.9-2-4.6-2h-4.2v1.8h-1.8
					c-0.5,0-1-0.2-1.3-0.5s-0.5-0.7-0.5-1.2H62v1.2c0,0.8,0.2,1.5,0.5,2.2c0.7,1.2,1.9,2.1,3.3,2.4l5.9,1l3.4,5.2v11.1
					c0,0.9,0.3,1.8,0.7,2.6l0.1,0.1l0,0c-0.1,0-0.1,0-0.2,0h-9.3l1.4,1.4l7.3,7l0,0L75.2,74.7L75.2,74.7z"/>
			</g>
			<g class="st7">
				<polygon class="st4" points="79,39.2 82.3,42.8 84.3,38.3 84.3,36.7 				"/>
			</g>
			<g>
				<path class="st4" d="M77.2,61.6h-9.3l-2-1.9l10,0.5c0.2,0.3,0.4,0.5,0.6,0.7l0.5,0.6L77.2,61.6z"/>
			</g>
			<g>
				<rect x="75.2" y="68.7" class="st8" width="4.5" height="0.9"/>
			</g>
			<g>
				<path class="st6" d="M97.5,90.8L97.5,90.8L97.5,90.8V73c0-1.6-0.9-3-2.2-3.8L93.1,68l0,0l-25.2,9.5l7.4,13.3H97.5L97.5,90.8
					L97.5,90.8z"/>
			</g>
		</g>
		<g>
			<g>
				<g>
					<path class="st3" d="M10.8,11C5.1,11,0.4,15.7,0.4,21.4c0,5.8,4.7,10.4,10.5,10.4s10.4-4.7,10.4-10.5
						C21.3,15.6,16.6,11,10.8,11z"/>
				</g>
				<g>
					<path class="st2" d="M2,21.4c0,4.9,4,8.8,8.9,8.8s8.8-4,8.8-8.9s-4-8.8-8.9-8.8C5.9,12.6,2,16.6,2,21.4z"/>
				</g>
				<g>
					<polygon class="st5" points="9,21.4 6.9,26.4 16.7,21.4 6.9,16.5 					"/>
				</g>
			</g>
		</g>
		<g>
			<g>
				<g>
					<g>
						<path class="st6" d="M102.4,2.2c-0.2,0-0.4,0-0.6,0s-0.4,0-0.6,0c-7.4,0.4-11.3,9-7.2,15.1l7.8,11.4l7.8-11.4
							C113.7,11.2,109.8,2.6,102.4,2.2z"/>
					</g>
					<g>
						<path class="st2" d="M101.7,7.3c-2.4,0-4.4,2-4.4,4.4s2,4.4,4.4,4.4s4.4-2,4.4-4.4C106.1,9.2,104.1,7.3,101.7,7.3z"/>
					</g>
				</g>
			</g>
			<g>
				<ellipse class="st5" cx="101.7" cy="33.5" rx="10.3" ry="2.4"/>
			</g>
		</g>
		<g>
			<g>
				<path class="st5" d="M116.6,23.4l55.1,0.1v0.8l-55.1-0.1l0,0c-1,0-1.9,0.4-2.6,1l-8.2,7.7l-0.6-0.6l8.2-7.7
					C114.3,23.8,115.4,23.4,116.6,23.4L116.6,23.4z"/>
			</g>
			<g>
				<path class="st5" d="M216.5,12.1c0,3.2-1.3,6.3-3.6,8.6s-5.3,3.6-8.6,3.6l0,0h-24v-0.8h24l0,0c3,0,5.9-1.2,8-3.3s3.3-5,3.3-8
					c0-6.2-5.1-11.3-11.3-11.3H4.6c-2.1,0-3.8,1.7-3.8,3.8v0.1c0,0.9,0.3,1.7,0.8,2.4C1.4,7.3,1.2,7.5,1,7.6C0.4,6.8,0,5.8,0,4.8
					V4.6C0,2.1,2.1,0,4.6,0h199.7C211,0,216.5,5.4,216.5,12.1z"/>
			</g>
		</g>
		<g>
			<g>
				<g>
					<g>
						<rect x="28.1" y="89.9" class="st0" width="5.4" height="0.9"/>
					</g>
					<g>
						<rect x="3.2" y="89.9" class="st0" width="22.5" height="0.9"/>
					</g>
				</g>
				<g>
					<g>
						<path class="st4" d="M17.9,39c-2-1.4-4.8-0.9-6.2,1.1c-1,1.5-1.1,3.3-0.2,4.8c-0.6,0.3-1,0.9-1,1.6c0,1.1,0.9,1.9,1.9,1.9
							c0.9,0,1.6-0.6,1.8-1.4c0.5,0.1,1,0.2,1.5,0.1v-5.9h3.8C19.3,40.3,18.7,39.6,17.9,39z"/>
					</g>
					<g>
						<path class="st1" d="M36.2,52.5l-3.6-0.8v0.8H32l-0.4-1.1l-6.8,1.1h-6.4v-3.2h13.1c0.7,0,1.4,0.3,2.1,0.6l1.7,0.9
							c0.3,0.2,0.5,0.4,0.7,0.7S36.2,52.1,36.2,52.5z"/>
					</g>
					<g>
						<path class="st4" d="M17.7,89.8l-0.8-0.3h-1.2l-2.1-3.3L13.1,87c-0.2,0.3-0.3,0.7-0.3,1v1.5h-0.2l-2.1-3.3L10,87
							c-0.2,0.3-0.3,0.7-0.3,1v2.8h0.5l0.4-1.9l1.2,1.9h0.9h0.5H15h0.4h3.1C18.4,90.3,18.1,89.9,17.7,89.8z"/>
					</g>
					<g>
						<path class="st1" d="M15.8,86.8l1.1,2.7h-1.2l-1.5-2.3l-0.6-1l0,0l0,0V82l-0.9,4.7l1.1,2.7h-1.2L11.1,87l-0.6-0.9v-8
							c0-0.3,0.1-0.7,0.2-1c0.1-0.3,0.2-0.6,0.4-0.9c-0.3-1-0.5-1.6-0.5-2.4H18L15.8,86.8z"/>
					</g>
					<g>
						<path class="st6" d="M20.6,52.9l-2.1-3.6h-7.3v5.1v3.7l-1.3,2.1c-0.2,0.3-0.3,0.5-0.4,0.8h9.7v-4l1.2-1.5
							C21,54.8,21.1,53.7,20.6,52.9z"/>
					</g>
					<g>
						<path class="st1" d="M19.4,41.5c-0.5-1.1-1.6-1.8-2.9-1.8s-2.4,0.7-3,1.8c0,0,0,0.1-0.1,0.1c-0.2,0.3-0.3,0.7-0.3,1.1v5.8l0,0
							v0.8l0,0l2.5,1.3c0.9,0.5,2.2-0.3,2-1.3L17,48.5c0.1,0,0.2,0,0.2,0c0.6-0.1,1.1-0.4,1.6-0.9c0.4-0.4,0.7-0.9,0.9-1.4
							c0.1-0.3,0.1-0.6,0.2-1v-2.7C19.7,42.2,19.6,41.8,19.4,41.5z"/>
					</g>
					<g>
						<path class="st3" d="M19.1,61.1v13.8H8.9V63.7c0-0.2,0-0.5,0-0.7c0.1-0.6,0.2-1.3,0.5-1.9H19.1z"/>
					</g>
					<g>
						<rect x="15.2" y="53.9" class="st4" width="2.2" height="2.4"/>
					</g>
					<g>
						<polygon class="st4" points="15.4,75.8 13.6,84.7 13.6,82 14.8,75.8 						"/>
					</g>
					<g>
						<rect x="15" y="67.6" class="st4" width="0.6" height="3.5"/>
					</g>
					<g>
						<rect x="24.4" y="49.3" class="st4" width="0.4" height="1.3"/>
					</g>
					<g>
						<path class="st1" d="M15.2,56.3v-0.7L14.4,56l0,0l0,0H9.3c0,0,3.3-4.3,3.4-4.4c0.4-0.8,0.2-1.7-0.6-2.2
							c-0.7-0.4-1.6-0.2-2.1,0.4l-4.7,6.3c-0.3,0.5-0.3,1.1,0,1.6c0.2,0.3,0.6,0.5,1.1,0.5h7.3l0,0h3.1c0.6,0,1.1-0.5,1.1-1.1v-1
							h-2.7C15.2,56.1,15.2,56.3,15.2,56.3z"/>
					</g>
					<g>
						<path class="st4" d="M12.9,39.6v5l1.2,0.5h1l0.7-3.8l0.1,0.1c1.1,0.9,2.2,1.4,3.6,1.4h0.1c0.9,0,1.6-0.7,1.6-1.6l0,0
							c0-0.9-0.7-1.6-1.6-1.6L12.9,39.6L12.9,39.6z"/>
					</g>
					<g>
						<path class="st9" d="M13.2,43.2c-0.5,0-1,0.4-1,1v0.4c0,0.5,0.4,1,1,1h1v-1.3C14.2,43.6,13.8,43.2,13.2,43.2z"/>
					</g>
				</g>
			</g>
		</g>
		<g>
			<g>
				<g>
					<g>
						<polygon class="st0" points="98.3,89.9 209.2,89.9 209.2,90.8 98.3,90.8 						"/>
					</g>
					<g>
						<polygon class="st0" points="217.2,89.9 217.2,90.8 212.2,90.8 212.2,89.9 						"/>
					</g>
				</g>
				<g>
					<path class="st2" d="M105.8,69.4v3.2h-1.5l0.8-3c0.1-0.2,0.1-0.3,0.2-0.5L105.8,69.4z"/>
				</g>
				<g>
					<ellipse class="st4" cx="167.9" cy="82.3" rx="8.5" ry="8.5"/>
				</g>
				<g>
					<path class="st3" d="M205.9,64.3c-0.1-0.1-0.3-0.1-0.4-0.1l-3.1-0.7l-0.5-0.1l-2.6-0.6l-8.9-8c-0.4-0.4-0.9-0.7-1.4-1.1
						c-2.7-1.8-6.4-2.7-9.4-2.7h-36.3c-2.1,0-4.2,0.6-6,1.6L122,62.7l-13.6,3.8c-1.4,0.4-2.5,1.4-3,2.7l0.5,0.2v3.2h-1.5v12.7h104
						V67.5C208.2,66.1,207.3,64.8,205.9,64.3z"/>
				</g>
				<g>
					<polygon class="st4" points="137.2,52.6 121.9,62.7 151.9,62.7 163,52.6 					"/>
				</g>
				<g>
					<rect x="158" y="64.8" class="st2" width="39.2" height="1"/>
				</g>
				<g>
					<path class="st4" d="M189.8,56.4c-2.3-2.1-6.7-3.8-9.8-3.8h-12.1c-0.9,0-1.9,0.3-2.5,1l-10,9.1l2.7,2h18v17.1h0.5v-17h20.2V71
						h0.5v-7.8L189.8,56.4z"/>
				</g>
				<g>
					<path class="st3" d="M165,60.2h-2.5l-3.5,3h9C168.1,61.6,166.7,60.2,165,60.2z"/>
				</g>
				<g>
					<rect x="169.8" y="68.4" class="st4" width="3.9" height="0.9"/>
				</g>
				<g>
					<rect x="191.5" y="68.4" class="st4" width="3.9" height="0.9"/>
				</g>
				<g>
					<rect x="158" y="77.8" class="st10" width="13.7" height="2.4"/>
				</g>
				<g>
					<rect x="178.8" y="77.8" class="st10" width="6.6" height="2.4"/>
				</g>
				<g>
					<rect x="148.7" y="68.5" class="st10" width="6.4" height="1.3"/>
				</g>
				<g>
					<polygon class="st2" points="135.1,67.4 129.1,69.4 129.1,72.7 135.4,72.7 143.1,68.5 143.1,67.4 					"/>
				</g>
				<g class="st7">
					<polygon class="st4" points="127.4,72.7 127.4,73.8 107.5,73.8 107.5,69.4 127.4,69.4 					"/>
				</g>
				<g>
					<g>
						<path class="st4" d="M155.1,83.4c0.1-0.4,0.1-0.8,0.1-1.2c0-4.7-3.8-8.5-8.5-8.5s-8.5,3.8-8.5,8.5c0,0.6,0.1,1.1,0.2,1.7H131
							l-3.6-6.4h-20l-3.2,5.8v1.4l0,0v0.7h6.3c1.2,3.1,4.3,5.4,7.9,5.4s6.7-2.2,7.9-5.4h12.5c1.2,3.1,4.3,5.4,7.9,5.4
							c4.1,0,7.6-2.9,8.3-6.8h31.3v-0.5L155.1,83.4L155.1,83.4z"/>
					</g>
					<g>
						<g>
							<g>
								<g>
									<path class="st11" d="M146.7,76.9c-3,0-5.4,2.4-5.4,5.4s2.4,5.4,5.4,5.4c0.3,0,0.5,0,0.8-0.1v-0.5c-0.3,0-0.5,0.1-0.8,0.1
										c-2.7,0-5-2.2-5-5c0-2.7,2.2-5,5-5c2.1,0,3.9,1.3,4.6,3.1l0.4-0.2C150.9,78.2,149,76.9,146.7,76.9z"/>
								</g>
							</g>
							<g>
								<path class="st11" d="M144.2,82.8l-1.4,0.8c-0.2-0.4-0.2-0.9-0.2-1.4s0.1-1,0.2-1.4l1.4,0.8c0,0.2-0.1,0.4-0.1,0.6
									C144.2,82.5,144.2,82.7,144.2,82.8z"/>
							</g>
							<g>
								<path class="st11" d="M143.7,79.5c0.6-0.7,1.4-1.1,2.3-1.3v1.6c-0.3,0.1-0.6,0.3-0.9,0.5L143.7,79.5z"/>
							</g>
							<g>
								<path class="st11" d="M145.1,84.2c0.2,0.2,0.5,0.4,0.9,0.5v1.6c-0.9-0.2-1.7-0.6-2.3-1.3L145.1,84.2z"/>
							</g>
							<g>
								<path class="st11" d="M148.4,84.2l1.4,0.8c-0.6,0.6-1.4,1.1-2.3,1.3v-1.6C147.9,84.6,148.1,84.4,148.4,84.2z"/>
							</g>
							<g>
								<path class="st11" d="M148.4,80.4c-0.2-0.2-0.5-0.4-0.9-0.5v-1.6c0.9,0.2,1.7,0.6,2.3,1.3L148.4,80.4z"/>
							</g>
							<g>
								<path class="st11" d="M150.9,82.3c0,0.5-0.1,0.9-0.2,1.4l-1.4-0.8c0-0.2,0.1-0.4,0.1-0.6s0-0.4-0.1-0.6l1.4-0.8
									C150.8,81.3,150.9,81.8,150.9,82.3z"/>
							</g>
							<g>
								<path class="st11" d="M146.7,80.9c-0.8,0-1.4,0.6-1.4,1.4s0.6,1.4,1.4,1.4c0.8,0,1.4-0.6,1.4-1.4
									C148.1,81.5,147.5,80.9,146.7,80.9z"/>
							</g>
						</g>
						<g>
							<path class="st2" d="M152.1,82.3c0,2.7-2,5-4.6,5.4v-0.5c2.4-0.4,4.2-2.4,4.2-4.9c0-0.7-0.1-1.3-0.4-1.8l0.4-0.2
								C152,80.8,152.1,81.5,152.1,82.3z"/>
						</g>
					</g>
				</g>
				<g>
					<g>
						<ellipse class="st4" cx="196.2" cy="82.3" rx="8.5" ry="8.5"/>
					</g>
					<g>
						<g>
							<g>
								<g>
									<path class="st11" d="M196.2,76.9c-3,0-5.4,2.4-5.4,5.4s2.4,5.4,5.4,5.4c0.3,0,0.5,0,0.8-0.1v-0.5c-0.3,0-0.5,0.1-0.8,0.1
										c-2.7,0-5-2.2-5-5c0-2.7,2.2-5,5-5c2.1,0,3.9,1.3,4.6,3.1l0.4-0.2C200.4,78.2,198.4,76.9,196.2,76.9z"/>
								</g>
							</g>
							<g>
								<path class="st11" d="M193.7,82.8l-1.4,0.8c-0.2-0.4-0.2-0.9-0.2-1.4s0.1-1,0.2-1.4l1.4,0.8c0,0.2-0.1,0.4-0.1,0.6
									C193.6,82.5,193.7,82.7,193.7,82.8z"/>
							</g>
							<g>
								<path class="st11" d="M193.1,79.5c0.6-0.7,1.4-1.1,2.3-1.3v1.6c-0.3,0.1-0.6,0.3-0.9,0.5L193.1,79.5z"/>
							</g>
							<g>
								<path class="st11" d="M194.5,84.2c0.2,0.2,0.5,0.4,0.9,0.5v1.6c-0.9-0.2-1.7-0.6-2.3-1.3L194.5,84.2z"/>
							</g>
							<g>
								<path class="st11" d="M197.9,84.2l1.4,0.8c-0.6,0.7-1.4,1.1-2.3,1.3v-1.6C197.3,84.6,197.6,84.4,197.9,84.2z"/>
							</g>
							<g>
								<path class="st11" d="M197.9,80.4c-0.2-0.2-0.5-0.4-0.9-0.5v-1.6c0.9,0.2,1.7,0.6,2.3,1.3L197.9,80.4z"/>
							</g>
							<g>
								<path class="st11" d="M200.3,82.3c0,0.5-0.1,0.9-0.2,1.4l-1.4-0.8c0-0.2,0.1-0.4,0.1-0.6s0-0.4-0.1-0.6l1.4-0.8
									C200.2,81.3,200.3,81.8,200.3,82.3z"/>
							</g>
							<g>
								<path class="st11" d="M196.2,80.9c-0.8,0-1.4,0.6-1.4,1.4s0.6,1.4,1.4,1.4s1.4-0.6,1.4-1.4
									C197.6,81.5,196.9,80.9,196.2,80.9z"/>
							</g>
						</g>
						<g>
							<path class="st2" d="M201.6,82.3c0,2.7-2,5-4.6,5.4v-0.5c2.4-0.4,4.2-2.4,4.2-4.9c0-0.7-0.1-1.3-0.4-1.8l0.4-0.2
								C201.5,80.8,201.6,81.5,201.6,82.3z"/>
						</g>
					</g>
				</g>
				<g>
					<g>
						<polygon class="st4" points="135.8,80.5 135.3,80.5 135.3,75.5 129.1,75.5 129.1,75 135.8,75 						"/>
					</g>
				</g>
				<g>
					<path class="st12" d="M208.2,67.6v2.2h-2.3v-5.5C207.3,64.8,208.2,66.1,208.2,67.6z"/>
				</g>
				<g>
					<g>
						<polygon class="st3" points="175.1,51 170.6,51 170.7,50.5 171.9,46.3 173.9,46.3 						"/>
					</g>
					<g>
						<polygon class="st10" points="171.9,46.3 170.7,50.5 170.6,51 150.1,51 150.3,50.5 152.4,46.3 						"/>
					</g>
					<g>
						<g>
							<polygon class="st4" points="155.1,47.7 154.8,48.7 156.6,48.7 156.8,47.7 							"/>
						</g>
						<g>
							<polygon class="st4" points="158.6,47.7 158.3,48.7 160.1,48.7 160.4,47.7 							"/>
						</g>
						<g>
							<polygon class="st4" points="165.7,47.7 165.4,48.7 167.2,48.7 167.5,47.7 							"/>
						</g>
						<g>
							<polygon class="st4" points="156.3,49.6 158.1,49.6 158.3,48.7 156.6,48.7 							"/>
						</g>
						<g>
							<polygon class="st4" points="159.8,49.6 161.6,49.6 161.9,48.7 160.1,48.7 							"/>
						</g>
						<g>
							<polygon class="st4" points="163.4,49.6 165.2,49.6 165.4,48.7 163.7,48.7 							"/>
						</g>
						<g>
							<polygon class="st4" points="162.2,47.7 161.9,48.7 163.7,48.7 163.9,47.7 							"/>
						</g>
					</g>
				</g>
			</g>
		</g>
		<g>
			<g>
				<g>
					<rect x="187.2" y="33.9" class="st4" width="24.2" height="12.3"/>
				</g>
				<g>
					<rect x="189.3" y="32.2" class="st3" width="24.2" height="12.3"/>
				</g>
				<g>
					<g>
						<rect x="192.6" y="35.9" class="st4" width="3.5" height="2.5"/>
					</g>
					<g>
						<rect x="196" y="38.3" class="st4" width="3.5" height="2.5"/>
					</g>
					<g>
						<rect x="199.5" y="35.9" class="st4" width="3.5" height="2.5"/>
					</g>
					<g>
						<rect x="206.4" y="35.9" class="st4" width="3.5" height="2.5"/>
					</g>
					<g>
						<rect x="203" y="38.3" class="st4" width="3.5" height="2.5"/>
					</g>
				</g>
			</g>
		</g>
	</g>
</g>
</svg>
